STARTFONT 2.1
FONT -HP-Mincho-Bold-R-Normal--20-145-100-100-C-200-JISX0208.1990-0
SIZE 14 100 100
FONTBOUNDINGBOX 20 20 0 -2

STARTPROPERTIES 23
FONTNAME_REGISTRY ""
FOUNDRY "HP"
FAMILY_NAME "Mincho"
WEIGHT_NAME "Bold"
SLANT "R"
SETWIDTH_NAME "Normal"
ADD_STYLE_NAME ""
PIXEL_SIZE 20
POINT_SIZE 145
RESOLUTION_X 100
RESOLUTION_Y 100
SPACING "C"
AVERAGE_WIDTH 200
CHARSET_REGISTRY "JISX0208.1990"
CHARSET_ENCODING "0"
COPYRIGHT "Copyright (c) 1994 Hewlett-Packard Company. Copyright 1994 by Bridge Inc."
_HP_ASXVERSION "@(#) ASX 3.00 $Revision: 13.9 $ minB20k"
WEIGHT 10
X_HEIGHT 18
QUAD_WIDTH 20
DEFAULT_CHAR 8751
FONT_DESCENT 2
FONT_ASCENT 18
ENDPROPERTIES

CHARS 6963

STARTCHAR jisx0208_2121
ENCODING 8481
SWIDTH 960 0
DWIDTH 20 0
BBX 20 20 0 -2
BITMAP
000000
000000
000000
000000
000000
000000
000000
000000
000000
000000
000000
000000
000000
000000
000000
000000
000000
000000
000000
000000
ENDCHAR

STARTCHAR jisx0208_2122
ENCODING 8482
SWIDTH 960 0
DWIDTH 20 0
BBX 20 20 0 -2
BITMAP
000000
000000
000000
000000
000000
000000
000000
000000
000000
000000
000000
000000
000000
000000
000000
300000
1C0000
0E0000
060000
000000
ENDCHAR

STARTCHAR jisx0208_2123
ENCODING 8483
SWIDTH 960 0
DWIDTH 20 0
BBX 20 20 0 -2
BITMAP
000000
000000
000000
000000
000000
000000
000000
000000
000000
000000
000000
000000
000000
000000
1E0000
330000
330000
330000
1E0000
000000
ENDCHAR

STARTCHAR jisx0208_2124
ENCODING 8484
SWIDTH 960 0
DWIDTH 20 0
BBX 20 20 0 -2
BITMAP
000000
000000
000000
000000
000000
000000
000000
000000
000000
000000
000000
000000
000000
000000
000000
380000
380000
180000
300000
000000
ENDCHAR

STARTCHAR jisx0208_2125
ENCODING 8485
SWIDTH 960 0
DWIDTH 20 0
BBX 20 20 0 -2
BITMAP
000000
000000
000000
000000
000000
000000
000000
000000
000000
000000
000000
000000
000000
000000
000000
380000
380000
000000
000000
000000
ENDCHAR

STARTCHAR jisx0208_2126
ENCODING 8486
SWIDTH 960 0
DWIDTH 20 0
BBX 20 20 0 -2
BITMAP
000000
000000
000000
000000
000000
000000
000000
000000
007000
00F800
007000
000000
000000
000000
000000
000000
000000
000000
000000
000000
ENDCHAR

STARTCHAR jisx0208_2127
ENCODING 8487
SWIDTH 960 0
DWIDTH 20 0
BBX 20 20 0 -2
BITMAP
000000
000000
000000
000000
000000
007000
007000
000000
000000
000000
000000
000000
007000
007000
000000
000000
000000
000000
000000
000000
ENDCHAR

STARTCHAR jisx0208_2128
ENCODING 8488
SWIDTH 960 0
DWIDTH 20 0
BBX 20 20 0 -2
BITMAP
000000
000000
000000
000000
000000
007000
007000
000000
000000
000000
000000
000000
007000
007000
003000
006000
000000
000000
000000
000000
ENDCHAR

STARTCHAR jisx0208_2129
ENCODING 8489
SWIDTH 960 0
DWIDTH 20 0
BBX 20 20 0 -2
BITMAP
000000
000000
01F800
030C00
060600
070600
070600
000C00
001800
003000
006000
006000
006000
000000
000000
007000
007000
000000
000000
000000
ENDCHAR

STARTCHAR jisx0208_212A
ENCODING 8490
SWIDTH 960 0
DWIDTH 20 0
BBX 20 20 0 -2
BITMAP
000000
000000
006000
006000
006000
006000
006000
006000
006000
006000
006000
006000
000000
000000
000000
007000
007000
000000
000000
000000
ENDCHAR

STARTCHAR jisx0208_212B
ENCODING 8491
SWIDTH 960 0
DWIDTH 20 0
BBX 20 20 0 -2
BITMAP
000000
180000
6C0000
300000
000000
000000
000000
000000
000000
000000
000000
000000
000000
000000
000000
000000
000000
000000
000000
000000
ENDCHAR

STARTCHAR jisx0208_212C
ENCODING 8492
SWIDTH 960 0
DWIDTH 20 0
BBX 20 20 0 -2
BITMAP
000000
000000
380000
6C0000
6C0000
380000
000000
000000
000000
000000
000000
000000
000000
000000
000000
000000
000000
000000
000000
000000
ENDCHAR

STARTCHAR jisx0208_212D
ENCODING 8493
SWIDTH 960 0
DWIDTH 20 0
BBX 20 20 0 -2
BITMAP
000000
003C00
01E000
000000
000000
000000
000000
000000
000000
000000
000000
000000
000000
000000
000000
000000
000000
000000
000000
000000
ENDCHAR

STARTCHAR jisx0208_212E
ENCODING 8494
SWIDTH 960 0
DWIDTH 20 0
BBX 20 20 0 -2
BITMAP
000000
01E000
003C00
000000
000000
000000
000000
000000
000000
000000
000000
000000
000000
000000
000000
000000
000000
000000
000000
000000
ENDCHAR

STARTCHAR jisx0208_212F
ENCODING 8495
SWIDTH 960 0
DWIDTH 20 0
BBX 20 20 0 -2
BITMAP
000000
038E00
038E00
000000
000000
000000
000000
000000
000000
000000
000000
000000
000000
000000
000000
000000
000000
000000
000000
000000
ENDCHAR

STARTCHAR jisx0208_2130
ENCODING 8496
SWIDTH 960 0
DWIDTH 20 0
BBX 20 20 0 -2
BITMAP
000000
007000
01DC00
030600
000000
000000
000000
000000
000000
000000
000000
000000
000000
000000
000000
000000
000000
000000
000000
000000
ENDCHAR

STARTCHAR jisx0208_2131
ENCODING 8497
SWIDTH 960 0
DWIDTH 20 0
BBX 20 20 0 -2
BITMAP
000000
7FFFF0
000000
000000
000000
000000
000000
000000
000000
000000
000000
000000
000000
000000
000000
000000
000000
000000
000000
000000
ENDCHAR

STARTCHAR jisx0208_2132
ENCODING 8498
SWIDTH 960 0
DWIDTH 20 0
BBX 20 20 0 -2
BITMAP
000000
000000
000000
000000
000000
000000
000000
000000
000000
000000
000000
000000
000000
000000
000000
000000
000000
000000
7FFFF0
000000
ENDCHAR

STARTCHAR jisx0208_2133
ENCODING 8499
SWIDTH 960 0
DWIDTH 20 0
BBX 20 20 0 -2
BITMAP
000000
000000
000000
000000
000000
000000
030000
01C000
006000
003000
001800
000C00
000E00
000600
000600
000000
000000
000000
000000
000000
ENDCHAR

STARTCHAR jisx0208_2134
ENCODING 8500
SWIDTH 960 0
DWIDTH 20 0
BBX 20 20 0 -2
BITMAP
000000
000000
000C00
000600
001800
000C00
030000
01C000
006000
003000
001800
000C00
000E00
000600
000600
000000
000000
000000
000000
000000
ENDCHAR

STARTCHAR jisx0208_2135
ENCODING 8501
SWIDTH 960 0
DWIDTH 20 0
BBX 20 20 0 -2
BITMAP
000000
000000
000000
000000
000000
060000
038000
00C000
006000
003000
001800
001800
000C00
00FC00
000C00
000000
000000
000000
000000
000000
ENDCHAR

STARTCHAR jisx0208_2136
ENCODING 8502
SWIDTH 960 0
DWIDTH 20 0
BBX 20 20 0 -2
BITMAP
000000
000000
000000
000C00
000600
061800
038C00
00C000
006000
003000
001800
001800
000C00
00FC00
000C00
000000
000000
000000
000000
000000
ENDCHAR

STARTCHAR jisx0208_2137
ENCODING 8503
SWIDTH 960 0
DWIDTH 20 0
BBX 20 20 0 -2
BITMAP
000000
000000
000000
000000
000000
00CC00
00EE00
00CC00
01DC00
019800
019800
033000
033000
066000
066000
000000
000000
000000
000000
000000
ENDCHAR

STARTCHAR jisx0208_2138
ENCODING 8504
SWIDTH 960 0
DWIDTH 20 0
BBX 20 20 0 -2
BITMAP
000000
007000
007000
00D800
018C00
030600
060300
0C01C0
1800F0
700360
0FFF80
006000
006000
006000
006000
006000
0060C0
3FFFE0
000000
000000
ENDCHAR

STARTCHAR jisx0208_2139
ENCODING 8505
SWIDTH 960 0
DWIDTH 20 0
BBX 20 20 0 -2
BITMAP
000000
000000
01C000
018000
018180
03FFC0
030180
060300
060300
0C0600
180C00
318C00
00D800
007000
003800
001C00
000C00
000000
000000
000000
ENDCHAR

STARTCHAR jisx0208_213A
ENCODING 8506
SWIDTH 960 0
DWIDTH 20 0
BBX 20 20 0 -2
BITMAP
000000
000000
0001C0
0000E0
0000C0
000180
000300
03C600
066C00
0C1800
0C2C00
186600
18C300
198000
1B0000
160000
1E0000
1C0000
000000
000000
ENDCHAR

STARTCHAR jisx0208_213B
ENCODING 8507
SWIDTH 960 0
DWIDTH 20 0
BBX 20 20 0 -2
BITMAP
000000
000000
01FC00
070700
0C0180
1800C0
1800C0
300060
300060
300060
300060
300060
300060
1800C0
1800C0
0C0180
070700
01FC00
000000
000000
ENDCHAR

STARTCHAR jisx0208_213C
ENCODING 8508
SWIDTH 960 0
DWIDTH 20 0
BBX 20 20 0 -2
BITMAP
000000
000000
000000
000000
000000
000000
000000
000000
3000C0
3FFFE0
180060
000000
000000
000000
000000
000000
000000
000000
000000
000000
ENDCHAR

STARTCHAR jisx0208_213D
ENCODING 8509
SWIDTH 960 0
DWIDTH 20 0
BBX 20 20 0 -2
BITMAP
000000
000000
000000
000000
000000
000000
000000
000000
000000
7FFFF0
000000
000000
000000
000000
000000
000000
000000
000000
000000
000000
ENDCHAR

STARTCHAR jisx0208_213E
ENCODING 8510
SWIDTH 960 0
DWIDTH 20 0
BBX 20 20 0 -2
BITMAP
000000
000000
000000
000000
000000
000000
000000
000000
000000
01FC00
000000
000000
000000
000000
000000
000000
000000
000000
000000
000000
ENDCHAR

STARTCHAR jisx0208_213F
ENCODING 8511
SWIDTH 960 0
DWIDTH 20 0
BBX 20 20 0 -2
BITMAP
000000
000030
000060
0000C0
000180
000300
000600
000C00
001800
003000
006000
00C000
018000
030000
060000
0C0000
180000
300000
600000
000000
ENDCHAR

STARTCHAR jisx0208_2140
ENCODING 8512
SWIDTH 960 0
DWIDTH 20 0
BBX 20 20 0 -2
BITMAP
000000
600000
300000
180000
0C0000
060000
030000
018000
00C000
006000
003000
001800
000C00
000600
000300
000180
0000C0
000060
000030
000000
ENDCHAR

STARTCHAR jisx0208_2141
ENCODING 8513
SWIDTH 960 0
DWIDTH 20 0
BBX 20 20 0 -2
BITMAP
000000
000000
000000
000000
000000
000000
000000
000000
078000
1CE060
3039C0
000F00
000000
000000
000000
000000
000000
000000
000000
000000
ENDCHAR

STARTCHAR jisx0208_2142
ENCODING 8514
SWIDTH 960 0
DWIDTH 20 0
BBX 20 20 0 -2
BITMAP
000000
030600
030600
030600
030600
030600
030600
030600
030600
030600
030600
030600
030600
030600
030600
030600
030600
030600
030600
000000
ENDCHAR

STARTCHAR jisx0208_2143
ENCODING 8515
SWIDTH 960 0
DWIDTH 20 0
BBX 20 20 0 -2
BITMAP
000000
006000
006000
006000
006000
006000
006000
006000
006000
006000
006000
006000
006000
006000
006000
006000
006000
006000
006000
000000
ENDCHAR

STARTCHAR jisx0208_2144
ENCODING 8516
SWIDTH 960 0
DWIDTH 20 0
BBX 20 20 0 -2
BITMAP
000000
000000
000000
000000
000000
000000
000000
000000
000000
1C71C0
1C71C0
000000
000000
000000
000000
000000
000000
000000
000000
000000
ENDCHAR

STARTCHAR jisx0208_2145
ENCODING 8517
SWIDTH 960 0
DWIDTH 20 0
BBX 20 20 0 -2
BITMAP
000000
000000
000000
000000
000000
000000
000000
000000
000000
0E0380
0E0380
000000
000000
000000
000000
000000
000000
000000
000000
000000
ENDCHAR

STARTCHAR jisx0208_2146
ENCODING 8518
SWIDTH 960 0
DWIDTH 20 0
BBX 20 20 0 -2
BITMAP
000000
000060
0000C0
0000E0
0000E0
000000
000000
000000
000000
000000
000000
000000
000000
000000
000000
000000
000000
000000
000000
000000
ENDCHAR

STARTCHAR jisx0208_2147
ENCODING 8519
SWIDTH 960 0
DWIDTH 20 0
BBX 20 20 0 -2
BITMAP
000000
380000
380000
180000
300000
000000
000000
000000
000000
000000
000000
000000
000000
000000
000000
000000
000000
000000
000000
000000
ENDCHAR

STARTCHAR jisx0208_2148
ENCODING 8520
SWIDTH 960 0
DWIDTH 20 0
BBX 20 20 0 -2
BITMAP
000000
000360
0006C0
0006E0
0006E0
000000
000000
000000
000000
000000
000000
000000
000000
000000
000000
000000
000000
000000
000000
000000
ENDCHAR

STARTCHAR jisx0208_2149
ENCODING 8521
SWIDTH 960 0
DWIDTH 20 0
BBX 20 20 0 -2
BITMAP
000000
370000
370000
1B0000
360000
000000
000000
000000
000000
000000
000000
000000
000000
000000
000000
000000
000000
000000
000000
000000
ENDCHAR

STARTCHAR jisx0208_214A
ENCODING 8522
SWIDTH 960 0
DWIDTH 20 0
BBX 20 20 0 -2
BITMAP
000000
000060
0000C0
000180
000300
000300
000600
000600
000600
000600
000600
000600
000600
000600
000300
000300
000180
0000C0
000060
000000
ENDCHAR

STARTCHAR jisx0208_214B
ENCODING 8523
SWIDTH 960 0
DWIDTH 20 0
BBX 20 20 0 -2
BITMAP
000000
300000
180000
0C0000
060000
060000
030000
030000
030000
030000
030000
030000
030000
030000
060000
060000
0C0000
180000
300000
000000
ENDCHAR

STARTCHAR jisx0208_214C
ENCODING 8524
SWIDTH 960 0
DWIDTH 20 0
BBX 20 20 0 -2
BITMAP
000000
0000E0
000380
000600
000600
000600
000600
000600
000600
000600
000600
000600
000600
000600
000600
000600
000600
000380
0000E0
000000
ENDCHAR

STARTCHAR jisx0208_214D
ENCODING 8525
SWIDTH 960 0
DWIDTH 20 0
BBX 20 20 0 -2
BITMAP
000000
380000
0E0000
030000
030000
030000
030000
030000
030000
030000
030000
030000
030000
030000
030000
030000
030000
0E0000
380000
000000
ENDCHAR

STARTCHAR jisx0208_214E
ENCODING 8526
SWIDTH 960 0
DWIDTH 20 0
BBX 20 20 0 -2
BITMAP
000000
0007E0
000600
000600
000600
000600
000600
000600
000600
000600
000600
000600
000600
000600
000600
000600
000600
000600
0007E0
000000
ENDCHAR

STARTCHAR jisx0208_214F
ENCODING 8527
SWIDTH 960 0
DWIDTH 20 0
BBX 20 20 0 -2
BITMAP
000000
3F0000
030000
030000
030000
030000
030000
030000
030000
030000
030000
030000
030000
030000
030000
030000
030000
030000
3F0000
000000
ENDCHAR

STARTCHAR jisx0208_2150
ENCODING 8528
SWIDTH 960 0
DWIDTH 20 0
BBX 20 20 0 -2
BITMAP
000000
000060
0000C0
000180
000180
000180
000180
000180
000300
000600
000300
000180
000180
000180
000180
000180
000180
0000C0
000060
000000
ENDCHAR

STARTCHAR jisx0208_2151
ENCODING 8529
SWIDTH 960 0
DWIDTH 20 0
BBX 20 20 0 -2
BITMAP
000000
300000
180000
0C0000
0C0000
0C0000
0C0000
0C0000
060000
030000
060000
0C0000
0C0000
0C0000
0C0000
0C0000
0C0000
180000
300000
000000
ENDCHAR

STARTCHAR jisx0208_2152
ENCODING 8530
SWIDTH 960 0
DWIDTH 20 0
BBX 20 20 0 -2
BITMAP
000000
000060
000060
0000C0
0000C0
000180
000180
000300
000300
000600
000600
000300
000300
000180
000180
0000C0
0000C0
000060
000060
000000
ENDCHAR

STARTCHAR jisx0208_2153
ENCODING 8531
SWIDTH 960 0
DWIDTH 20 0
BBX 20 20 0 -2
BITMAP
000000
300000
300000
180000
180000
0C0000
0C0000
060000
060000
030000
030000
060000
060000
0C0000
0C0000
180000
180000
300000
300000
000000
ENDCHAR

STARTCHAR jisx0208_2154
ENCODING 8532
SWIDTH 960 0
DWIDTH 20 0
BBX 20 20 0 -2
BITMAP
000000
000360
000360
0006C0
0006C0
000D80
000D80
001B00
001B00
003600
003600
001B00
001B00
000D80
000D80
0006C0
0006C0
000360
000360
000000
ENDCHAR

STARTCHAR jisx0208_2155
ENCODING 8533
SWIDTH 960 0
DWIDTH 20 0
BBX 20 20 0 -2
BITMAP
000000
360000
360000
1B0000
1B0000
0D8000
0D8000
06C000
06C000
036000
036000
06C000
06C000
0D8000
0D8000
1B0000
1B0000
360000
360000
000000
ENDCHAR

STARTCHAR jisx0208_2156
ENCODING 8534
SWIDTH 960 0
DWIDTH 20 0
BBX 20 20 0 -2
BITMAP
000000
000FE0
000C00
000C00
000C00
000C00
000C00
000C00
000C00
000C00
000C00
000C00
000C00
000C00
000C00
000C00
000C00
000C00
000C00
000000
ENDCHAR

STARTCHAR jisx0208_2157
ENCODING 8535
SWIDTH 960 0
DWIDTH 20 0
BBX 20 20 0 -2
BITMAP
000000
018000
018000
018000
018000
018000
018000
018000
018000
018000
018000
018000
018000
018000
018000
018000
018000
018000
3F8000
000000
ENDCHAR

STARTCHAR jisx0208_2158
ENCODING 8536
SWIDTH 960 0
DWIDTH 20 0
BBX 20 20 0 -2
BITMAP
000000
000FE0
000C60
000BE0
000B00
000B00
000B00
000B00
000B00
000B00
000B00
000B00
000B00
000B00
000B00
000B00
000B00
000B00
000F00
000000
ENDCHAR

STARTCHAR jisx0208_2159
ENCODING 8537
SWIDTH 960 0
DWIDTH 20 0
BBX 20 20 0 -2
BITMAP
000000
078000
058000
058000
058000
058000
058000
058000
058000
058000
058000
058000
058000
058000
058000
058000
3D8000
318000
3F8000
000000
ENDCHAR

STARTCHAR jisx0208_215A
ENCODING 8538
SWIDTH 960 0
DWIDTH 20 0
BBX 20 20 0 -2
BITMAP
000000
0003E0
0003C0
0003C0
000380
000380
000380
000300
000300
000300
000300
000300
000300
000380
000380
000380
0003C0
0003C0
0003E0
000000
ENDCHAR

STARTCHAR jisx0208_215B
ENCODING 8539
SWIDTH 960 0
DWIDTH 20 0
BBX 20 20 0 -2
BITMAP
000000
3E0000
1E0000
1E0000
0E0000
0E0000
0E0000
060000
060000
060000
060000
060000
060000
0E0000
0E0000
0E0000
1E0000
1E0000
3E0000
000000
ENDCHAR

STARTCHAR jisx0208_215C
ENCODING 8540
SWIDTH 960 0
DWIDTH 20 0
BBX 20 20 0 -2
BITMAP
000000
000000
000000
006000
006000
006000
006000
006000
006000
1FFF80
006000
006000
006000
006000
006000
006000
000000
000000
000000
000000
ENDCHAR

STARTCHAR jisx0208_215D
ENCODING 8541
SWIDTH 960 0
DWIDTH 20 0
BBX 20 20 0 -2
BITMAP
000000
000000
000000
000000
000000
000000
000000
000000
000000
1FFFC0
000000
000000
000000
000000
000000
000000
000000
000000
000000
000000
ENDCHAR

STARTCHAR jisx0208_215E
ENCODING 8542
SWIDTH 960 0
DWIDTH 20 0
BBX 20 20 0 -2
BITMAP
000000
000000
000000
006000
006000
006000
006000
1FFF80
006000
006000
006000
006000
000000
000000
000000
1FFF80
000000
000000
000000
000000
ENDCHAR

STARTCHAR jisx0208_215F
ENCODING 8543
SWIDTH 960 0
DWIDTH 20 0
BBX 20 20 0 -2
BITMAP
000000
000000
000000
000000
0C0300
060600
030C00
019800
00B000
006000
00B000
019800
030C00
060600
0C0300
000000
000000
000000
000000
000000
ENDCHAR

STARTCHAR jisx0208_2160
ENCODING 8544
SWIDTH 960 0
DWIDTH 20 0
BBX 20 20 0 -2
BITMAP
000000
000000
000000
000000
007000
007000
000000
000000
000000
1FFFC0
000000
000000
000000
007000
007000
000000
000000
000000
000000
000000
ENDCHAR

STARTCHAR jisx0208_2161
ENCODING 8545
SWIDTH 960 0
DWIDTH 20 0
BBX 20 20 0 -2
BITMAP
000000
000000
000000
000000
000000
000000
1FFFC0
000000
000000
000000
000000
000000
1FFFC0
000000
000000
000000
000000
000000
000000
000000
ENDCHAR

STARTCHAR jisx0208_2162
ENCODING 8546
SWIDTH 960 0
DWIDTH 20 0
BBX 20 20 0 -2
BITMAP
000000
000000
000000
000C00
000C00
001800
1FFFC0
003000
003000
006000
006000
00C000
1FFFC0
018000
018000
030000
030000
000000
000000
000000
ENDCHAR

STARTCHAR jisx0208_2163
ENCODING 8547
SWIDTH 960 0
DWIDTH 20 0
BBX 20 20 0 -2
BITMAP
000000
000000
000000
0001C0
000700
001C00
007000
01C000
070000
1C0000
070000
01C000
007000
001C00
000700
0001C0
000000
000000
000000
000000
ENDCHAR

STARTCHAR jisx0208_2164
ENCODING 8548
SWIDTH 960 0
DWIDTH 20 0
BBX 20 20 0 -2
BITMAP
000000
000000
000000
1C0000
070000
01C000
007000
001C00
000700
0001C0
000700
001C00
007000
01C000
070000
1C0000
000000
000000
000000
000000
ENDCHAR

STARTCHAR jisx0208_2165
ENCODING 8549
SWIDTH 960 0
DWIDTH 20 0
BBX 20 20 0 -2
BITMAP
000000
000000
000000
0003C0
001E00
00F000
078000
1C0000
078000
00F000
001E00
0003C0
000000
1FFFC0
000000
000000
1FFFC0
000000
000000
000000
ENDCHAR

STARTCHAR jisx0208_2166
ENCODING 8550
SWIDTH 960 0
DWIDTH 20 0
BBX 20 20 0 -2
BITMAP
000000
000000
000000
1E0000
03C000
007800
000F00
0001C0
000F00
007800
03C000
1E0000
000000
1FFFC0
000000
000000
1FFFC0
000000
000000
000000
ENDCHAR

STARTCHAR jisx0208_2167
ENCODING 8551
SWIDTH 960 0
DWIDTH 20 0
BBX 20 20 0 -2
BITMAP
000000
000000
000000
000000
000000
000000
1F07C0
318C60
60D830
607030
607030
60D830
318C60
1F07C0
000000
000000
000000
000000
000000
000000
ENDCHAR

STARTCHAR jisx0208_2168
ENCODING 8552
SWIDTH 960 0
DWIDTH 20 0
BBX 20 20 0 -2
BITMAP
000000
000000
000000
000000
007000
007000
000000
000000
000000
000000
000000
000000
000000
0E0380
0E0380
000000
000000
000000
000000
000000
ENDCHAR

STARTCHAR jisx0208_2169
ENCODING 8553
SWIDTH 960 0
DWIDTH 20 0
BBX 20 20 0 -2
BITMAP
000000
000000
007FC0
0001C0
0002C0
0006C0
000CC0
0018C0
0FB0C0
1860C0
303000
303000
303000
303000
303000
186000
0FC000
000000
000000
000000
ENDCHAR

STARTCHAR jisx0208_216A
ENCODING 8554
SWIDTH 960 0
DWIDTH 20 0
BBX 20 20 0 -2
BITMAP
000000
000000
01F800
030C00
060600
060600
060600
060600
060600
030C00
01F800
006000
006000
0FFF00
006000
006000
006000
006000
000000
000000
ENDCHAR

STARTCHAR jisx0208_216B
ENCODING 8555
SWIDTH 960 0
DWIDTH 20 0
BBX 20 20 0 -2
BITMAP
000000
380000
6C0000
6C0000
380000
000000
000000
000000
000000
000000
000000
000000
000000
000000
000000
000000
000000
000000
000000
000000
ENDCHAR

STARTCHAR jisx0208_216C
ENCODING 8556
SWIDTH 960 0
DWIDTH 20 0
BBX 20 20 0 -2
BITMAP
000000
180000
180000
300000
300000
600000
000000
000000
000000
000000
000000
000000
000000
000000
000000
000000
000000
000000
000000
000000
ENDCHAR

STARTCHAR jisx0208_216D
ENCODING 8557
SWIDTH 960 0
DWIDTH 20 0
BBX 20 20 0 -2
BITMAP
000000
1B0000
1B0000
360000
360000
6C0000
000000
000000
000000
000000
000000
000000
000000
000000
000000
000000
000000
000000
000000
000000
ENDCHAR

STARTCHAR jisx0208_216E
ENCODING 8558
SWIDTH 960 0
DWIDTH 20 0
BBX 20 20 0 -2
BITMAP
000000
1C0000
363EC0
36E3C0
1D80C0
018060
030060
030000
030000
030000
030000
030000
030000
018060
0180C0
00E1C0
003F00
000000
000000
000000
ENDCHAR

STARTCHAR jisx0208_216F
ENCODING 8559
SWIDTH 960 0
DWIDTH 20 0
BBX 20 20 0 -2
BITMAP
000000
000000
1F9F80
060600
060600
030C00
030C00
019800
019800
0FBF00
00B000
006000
0FFF00
006000
006000
006000
01F800
000000
000000
000000
ENDCHAR

STARTCHAR jisx0208_2170
ENCODING 8560
SWIDTH 960 0
DWIDTH 20 0
BBX 20 20 0 -2
BITMAP
000000
006000
03F600
066E00
0C6600
0C6300
0C6300
066000
03E000
007C00
006700
006180
0C6180
0C6180
066180
076300
05FE00
006000
006000
000000
ENDCHAR

STARTCHAR jisx0208_2171
ENCODING 8561
SWIDTH 960 0
DWIDTH 20 0
BBX 20 20 0 -2
BITMAP
000000
000000
000000
000000
000C00
000C00
00FC00
039E00
031700
061700
063000
063000
063000
066000
036300
036600
00FC00
00C000
00C000
000000
ENDCHAR

STARTCHAR jisx0208_2172
ENCODING 8562
SWIDTH 960 0
DWIDTH 20 0
BBX 20 20 0 -2
BITMAP
000000
000000
003E00
006300
00C700
00C700
00C000
00C000
00C000
0FFF00
006000
006000
006000
0F6000
18E180
18B180
0F9F00
000000
000000
000000
ENDCHAR

STARTCHAR jisx0208_2173
ENCODING 8563
SWIDTH 960 0
DWIDTH 20 0
BBX 20 20 0 -2
BITMAP
000000
000000
0E0300
1B0300
318600
318C00
318C00
319800
1B3000
0E3380
0066C0
00CC60
00CC60
018C60
030C60
0306C0
060380
000000
000000
000000
ENDCHAR

STARTCHAR jisx0208_2174
ENCODING 8564
SWIDTH 960 0
DWIDTH 20 0
BBX 20 20 0 -2
BITMAP
000000
000000
00C600
00C600
00C600
00C600
0FFFC0
0FFFC0
018C00
018C00
018C00
018C00
1FFF80
1FFF80
031800
031800
031800
000000
000000
000000
ENDCHAR

STARTCHAR jisx0208_2175
ENCODING 8565
SWIDTH 960 0
DWIDTH 20 0
BBX 20 20 0 -2
BITMAP
000000
000000
01F000
031800
031800
031800
033000
016000
01C000
02C000
066F80
0C3600
0C3600
0C1600
0C0CC0
0616C0
03F380
000000
000000
000000
ENDCHAR

STARTCHAR jisx0208_2176
ENCODING 8566
SWIDTH 960 0
DWIDTH 20 0
BBX 20 20 0 -2
BITMAP
000000
000000
000000
000000
006000
006000
066600
076E00
035C00
00F000
00F000
035C00
076E00
066600
006000
006000
000000
000000
000000
000000
ENDCHAR

STARTCHAR jisx0208_2177
ENCODING 8567
SWIDTH 960 0
DWIDTH 20 0
BBX 20 20 0 -2
BITMAP
000000
000000
01F800
070E00
0C0300
18F580
198D80
330CC0
330CC0
360CC0
3618C0
361980
1B3980
19EF00
0C0000
070E00
01F800
000000
000000
000000
ENDCHAR

STARTCHAR jisx0208_2178
ENCODING 8568
SWIDTH 960 0
DWIDTH 20 0
BBX 20 20 0 -2
BITMAP
000000
00F800
018C00
030E00
030E00
018000
00E000
01B800
030C00
030600
030600
018600
00EC00
003800
000C00
038600
038600
018C00
00F800
000000
ENDCHAR

STARTCHAR jisx0208_2179
ENCODING 8569
SWIDTH 960 0
DWIDTH 20 0
BBX 20 20 0 -2
BITMAP
000000
007000
007000
007000
00D800
00D800
00D800
7F8FF0
300060
1C01C0
060300
030600
030600
060300
067300
06DB00
0B8D80
0E0380
0C0180
000000
ENDCHAR

STARTCHAR jisx0208_217A
ENCODING 8570
SWIDTH 960 0
DWIDTH 20 0
BBX 20 20 0 -2
BITMAP
000000
007000
007000
007000
00F800
00F800
00F800
7FFFF0
3FFFE0
1FFFC0
07FF00
03FE00
03FE00
07FF00
07FF00
07DF00
0F8F80
0E0380
0C0180
000000
ENDCHAR

STARTCHAR jisx0208_217B
ENCODING 8571
SWIDTH 960 0
DWIDTH 20 0
BBX 20 20 0 -2
BITMAP
000000
000000
00F800
038E00
060300
0C0180
1800C0
1800C0
300060
300060
300060
300060
1800C0
1800C0
0C0180
060300
038E00
00F800
000000
000000
ENDCHAR

STARTCHAR jisx0208_217C
ENCODING 8572
SWIDTH 960 0
DWIDTH 20 0
BBX 20 20 0 -2
BITMAP
000000
000000
00F800
03FE00
07FF00
0FFF80
1FFFC0
1FFFC0
3FFFE0
3FFFE0
3FFFE0
3FFFE0
1FFFC0
1FFFC0
0FFF80
07FF00
03FE00
00F800
000000
000000
ENDCHAR

STARTCHAR jisx0208_217D
ENCODING 8573
SWIDTH 960 0
DWIDTH 20 0
BBX 20 20 0 -2
BITMAP
000000
000000
00F800
038E00
060300
0CF980
1B8EC0
1B06C0
360360
360360
360360
360360
1B06C0
1B8EC0
0CF980
060300
038E00
00F800
000000
000000
ENDCHAR

STARTCHAR jisx0208_217E
ENCODING 8574
SWIDTH 960 0
DWIDTH 20 0
BBX 20 20 0 -2
BITMAP
000000
007000
00D800
018C00
030600
060300
0C0180
1800C0
300060
600030
600030
300060
1800C0
0C0180
060300
030600
018C00
00D800
007000
000000
ENDCHAR

STARTCHAR jisx0208_2221
ENCODING 8737
SWIDTH 960 0
DWIDTH 20 0
BBX 20 20 0 -2
BITMAP
000000
007000
00F800
01FC00
03FE00
07FF00
0FFF80
1FFFC0
3FFFE0
7FFFF0
7FFFF0
3FFFE0
1FFFC0
0FFF80
07FF00
03FE00
01FC00
00F800
007000
000000
ENDCHAR

STARTCHAR jisx0208_2222
ENCODING 8738
SWIDTH 960 0
DWIDTH 20 0
BBX 20 20 0 -2
BITMAP
000000
000000
3FFFE0
300060
300060
300060
300060
300060
300060
300060
300060
300060
300060
300060
300060
300060
300060
3FFFE0
000000
000000
ENDCHAR

STARTCHAR jisx0208_2223
ENCODING 8739
SWIDTH 960 0
DWIDTH 20 0
BBX 20 20 0 -2
BITMAP
000000
000000
3FFFE0
3FFFE0
3FFFE0
3FFFE0
3FFFE0
3FFFE0
3FFFE0
3FFFE0
3FFFE0
3FFFE0
3FFFE0
3FFFE0
3FFFE0
3FFFE0
3FFFE0
3FFFE0
000000
000000
ENDCHAR

STARTCHAR jisx0208_2224
ENCODING 8740
SWIDTH 960 0
DWIDTH 20 0
BBX 20 20 0 -2
BITMAP
000000
000000
007000
007000
00D800
00D800
018C00
030600
030600
060300
060300
0C0180
1800C0
1800C0
300060
300060
7FFFF0
000000
000000
000000
ENDCHAR

STARTCHAR jisx0208_2225
ENCODING 8741
SWIDTH 960 0
DWIDTH 20 0
BBX 20 20 0 -2
BITMAP
000000
000000
007000
007000
00F800
00F800
01FC00
03FE00
03FE00
07FF00
07FF00
0FFF80
1FFFC0
1FFFC0
3FFFE0
3FFFE0
7FFFF0
000000
000000
000000
ENDCHAR

STARTCHAR jisx0208_2226
ENCODING 8742
SWIDTH 960 0
DWIDTH 20 0
BBX 20 20 0 -2
BITMAP
000000
000000
000000
7FFFF0
300060
300060
1800C0
1800C0
0C0180
060300
060300
030600
030600
018C00
00D800
00D800
007000
007000
000000
000000
ENDCHAR

STARTCHAR jisx0208_2227
ENCODING 8743
SWIDTH 960 0
DWIDTH 20 0
BBX 20 20 0 -2
BITMAP
000000
000000
000000
7FFFF0
3FFFE0
3FFFE0
1FFFC0
1FFFC0
0FFF80
07FF00
07FF00
03FE00
03FE00
01FC00
00F800
00F800
007000
007000
000000
000000
ENDCHAR

STARTCHAR jisx0208_2228
ENCODING 8744
SWIDTH 960 0
DWIDTH 20 0
BBX 20 20 0 -2
BITMAP
000000
000000
000000
1870C0
0C7180
060300
030600
018C00
00D800
1C71C0
1C71C0
00D800
018C00
030600
060300
0C7180
1870C0
000000
000000
000000
ENDCHAR

STARTCHAR jisx0208_2229
ENCODING 8745
SWIDTH 960 0
DWIDTH 20 0
BBX 20 20 0 -2
BITMAP
000000
000000
3FFFE0
3FFFE0
000000
000000
3FFFE0
3FFFE0
007000
007000
007000
007000
007000
007000
007000
007000
007000
000000
000000
000000
ENDCHAR

STARTCHAR jisx0208_222A
ENCODING 8746
SWIDTH 960 0
DWIDTH 20 0
BBX 20 20 0 -2
BITMAP
000000
000000
000000
000000
000000
000000
000600
000300
0001C0
7FFFF0
0001C0
000300
000600
000000
000000
000000
000000
000000
000000
000000
ENDCHAR

STARTCHAR jisx0208_222B
ENCODING 8747
SWIDTH 960 0
DWIDTH 20 0
BBX 20 20 0 -2
BITMAP
000000
000000
000000
000000
000000
000000
030000
060000
1C0000
7FFFF0
1C0000
060000
030000
000000
000000
000000
000000
000000
000000
000000
ENDCHAR

STARTCHAR jisx0208_222C
ENCODING 8748
SWIDTH 960 0
DWIDTH 20 0
BBX 20 20 0 -2
BITMAP
000000
006000
006000
00F000
00F000
015800
036C00
006000
006000
006000
006000
006000
006000
006000
006000
006000
006000
006000
006000
000000
ENDCHAR

STARTCHAR jisx0208_222D
ENCODING 8749
SWIDTH 960 0
DWIDTH 20 0
BBX 20 20 0 -2
BITMAP
000000
006000
006000
006000
006000
006000
006000
006000
006000
006000
006000
006000
006000
036C00
015800
00F000
00F000
006000
006000
000000
ENDCHAR

STARTCHAR jisx0208_222E
ENCODING 8750
SWIDTH 960 0
DWIDTH 20 0
BBX 20 20 0 -2
BITMAP
000000
000000
000000
000000
000000
000000
0FFF80
0FFF80
000000
000000
000000
0FFF80
0FFF80
000000
000000
000000
000000
000000
000000
000000
ENDCHAR

STARTCHAR jisx0208_222F
ENCODING 8751
SWIDTH 960 0
DWIDTH 20 0
BBX 20 20 0 -2
BITMAP
000000
000000
300060
000000
000000
000000
000000
000000
000000
000000
000000
000000
000000
000000
000000
000000
000000
300060
000000
000000
ENDCHAR

STARTCHAR jisx0208_223A
ENCODING 8762
SWIDTH 960 0
DWIDTH 20 0
BBX 20 20 0 -2
BITMAP
000000
000000
000000
000000
03FFC0
0E0000
0C0000
180000
180000
1FFFC0
180000
180000
0C0000
0E0000
03FFC0
000000
000000
000000
000000
000000
ENDCHAR

STARTCHAR jisx0208_223B
ENCODING 8763
SWIDTH 960 0
DWIDTH 20 0
BBX 20 20 0 -2
BITMAP
000000
000000
000000
000000
1FFE00
000380
000180
0000C0
0000C0
1FFFC0
0000C0
0000C0
000180
000380
1FFE00
000000
000000
000000
000000
000000
ENDCHAR

STARTCHAR jisx0208_223C
ENCODING 8764
SWIDTH 960 0
DWIDTH 20 0
BBX 20 20 0 -2
BITMAP
000000
000000
000000
03FFC0
0E0000
0C0000
180000
180000
180000
180000
0C0000
0E0000
03FFC0
000000
000000
1FFFC0
000000
000000
000000
000000
ENDCHAR

STARTCHAR jisx0208_223D
ENCODING 8765
SWIDTH 960 0
DWIDTH 20 0
BBX 20 20 0 -2
BITMAP
000000
000000
000000
1FFE00
000380
000180
0000C0
0000C0
0000C0
0000C0
000180
000380
1FFE00
000000
000000
1FFFC0
000000
000000
000000
000000
ENDCHAR

STARTCHAR jisx0208_223E
ENCODING 8766
SWIDTH 960 0
DWIDTH 20 0
BBX 20 20 0 -2
BITMAP
000000
000000
000000
000000
03FFC0
0E0000
0C0000
180000
180000
180000
180000
180000
0C0000
0E0000
03FFC0
000000
000000
000000
000000
000000
ENDCHAR

STARTCHAR jisx0208_223F
ENCODING 8767
SWIDTH 960 0
DWIDTH 20 0
BBX 20 20 0 -2
BITMAP
000000
000000
000000
000000
1FFE00
000380
000180
0000C0
0000C0
0000C0
0000C0
0000C0
000180
000380
1FFE00
000000
000000
000000
000000
000000
ENDCHAR

STARTCHAR jisx0208_2240
ENCODING 8768
SWIDTH 960 0
DWIDTH 20 0
BBX 20 20 0 -2
BITMAP
000000
000000
000000
0C0300
0C0300
0C0300
0C0300
0C0300
0C0300
0C0300
0C0300
0C0300
0C0300
0C0300
060600
070E00
01F800
000000
000000
000000
ENDCHAR

STARTCHAR jisx0208_2241
ENCODING 8769
SWIDTH 960 0
DWIDTH 20 0
BBX 20 20 0 -2
BITMAP
000000
000000
000000
01F800
070E00
060600
0C0300
0C0300
0C0300
0C0300
0C0300
0C0300
0C0300
0C0300
0C0300
0C0300
0C0300
000000
000000
000000
ENDCHAR

STARTCHAR jisx0208_224A
ENCODING 8778
SWIDTH 960 0
DWIDTH 20 0
BBX 20 20 0 -2
BITMAP
000000
000000
000000
007000
007000
00D800
00D800
018C00
018C00
030600
030600
060300
060300
0C0180
0C0180
1800C0
1800C0
000000
000000
000000
ENDCHAR

STARTCHAR jisx0208_224B
ENCODING 8779
SWIDTH 960 0
DWIDTH 20 0
BBX 20 20 0 -2
BITMAP
000000
000000
000000
1800C0
1800C0
0C0180
0C0180
060300
060300
030600
030600
018C00
018C00
00D800
00D800
007000
007000
000000
000000
000000
ENDCHAR

STARTCHAR jisx0208_224C
ENCODING 8780
SWIDTH 960 0
DWIDTH 20 0
BBX 20 20 0 -2
BITMAP
000000
000000
000000
000000
000000
000000
000000
3FFFE0
000060
000060
000060
000060
000000
000000
000000
000000
000000
000000
000000
000000
ENDCHAR

STARTCHAR jisx0208_224D
ENCODING 8781
SWIDTH 960 0
DWIDTH 20 0
BBX 20 20 0 -2
BITMAP
000000
000000
000000
000000
000600
000300
000180
7FFFC0
000060
000030
000060
7FFFC0
000180
000300
000600
000000
000000
000000
000000
000000
ENDCHAR

STARTCHAR jisx0208_224E
ENCODING 8782
SWIDTH 960 0
DWIDTH 20 0
BBX 20 20 0 -2
BITMAP
000000
000000
000000
000000
030600
060300
0C0180
1FFFC0
300060
600030
300060
1FFFC0
0C0180
060300
030600
000000
000000
000000
000000
000000
ENDCHAR

STARTCHAR jisx0208_224F
ENCODING 8783
SWIDTH 960 0
DWIDTH 20 0
BBX 20 20 0 -2
BITMAP
000000
000000
000000
1800C0
1800C0
0C0180
0FFF80
060300
060300
030600
030600
018C00
018C00
00D800
00D800
007000
007000
000000
000000
000000
ENDCHAR

STARTCHAR jisx0208_2250
ENCODING 8784
SWIDTH 960 0
DWIDTH 20 0
BBX 20 20 0 -2
BITMAP
000000
000000
000000
07FF00
000300
000300
000300
000300
000300
07FF00
000300
000300
000300
000300
000300
07FF00
000000
000000
000000
000000
ENDCHAR

STARTCHAR jisx0208_225C
ENCODING 8796
SWIDTH 960 0
DWIDTH 20 0
BBX 20 20 0 -2
BITMAP
000000
000000
000000
000180
000300
000600
000C00
001800
003000
006000
00C000
018000
030000
060000
0C0000
1FFF80
000000
000000
000000
000000
ENDCHAR

STARTCHAR jisx0208_225D
ENCODING 8797
SWIDTH 960 0
DWIDTH 20 0
BBX 20 20 0 -2
BITMAP
000000
000000
000000
006000
006000
006000
006000
006000
006000
006000
006000
006000
006000
006000
006000
1FFF80
000000
000000
000000
000000
ENDCHAR

STARTCHAR jisx0208_225E
ENCODING 8798
SWIDTH 960 0
DWIDTH 20 0
BBX 20 20 0 -2
BITMAP
000000
01FC00
0F0780
3800E0
600030
000000
000000
000000
000000
000000
000000
000000
000000
000000
000000
000000
000000
000000
000000
000000
ENDCHAR

STARTCHAR jisx0208_225F
ENCODING 8799
SWIDTH 960 0
DWIDTH 20 0
BBX 20 20 0 -2
BITMAP
000000
000000
00F800
018C00
030600
000600
000600
00F600
018E00
030600
030600
060600
060600
060C00
060C00
031800
01F000
000000
000000
000000
ENDCHAR

STARTCHAR jisx0208_2260
ENCODING 8800
SWIDTH 960 0
DWIDTH 20 0
BBX 20 20 0 -2
BITMAP
000000
000000
000000
000000
3FFFE0
1FFFC0
1C00C0
0E0180
0E0180
070300
038600
038600
01CC00
01CC00
00D800
007000
007000
000000
000000
000000
ENDCHAR

STARTCHAR jisx0208_2261
ENCODING 8801
SWIDTH 960 0
DWIDTH 20 0
BBX 20 20 0 -2
BITMAP
000000
000000
000000
000000
000000
1FFFC0
000000
000000
000000
1FFFC0
000000
000000
000000
1FFFC0
000000
000000
000000
000000
000000
000000
ENDCHAR

STARTCHAR jisx0208_2262
ENCODING 8802
SWIDTH 960 0
DWIDTH 20 0
BBX 20 20 0 -2
BITMAP
000000
000000
000000
070000
070000
000000
000000
1FFFC0
000000
000000
000000
1FFFC0
000000
000000
000700
000700
000000
000000
000000
000000
ENDCHAR

STARTCHAR jisx0208_2263
ENCODING 8803
SWIDTH 960 0
DWIDTH 20 0
BBX 20 20 0 -2
BITMAP
000000
000000
000000
003300
006600
00CC00
019800
033000
066000
0CC000
066000
033000
019800
00CC00
006600
003300
000000
000000
000000
000000
ENDCHAR

STARTCHAR jisx0208_2264
ENCODING 8804
SWIDTH 960 0
DWIDTH 20 0
BBX 20 20 0 -2
BITMAP
000000
000000
000000
066000
033000
019800
00CC00
006600
003300
001980
003300
006600
00CC00
019800
033000
066000
000000
000000
000000
000000
ENDCHAR

STARTCHAR jisx0208_2265
ENCODING 8805
SWIDTH 960 0
DWIDTH 20 0
BBX 20 20 0 -2
BITMAP
000000
003FF0
003000
006000
006000
006000
00C000
00C000
00C000
018000
018000
198000
3B0000
6B0000
0B0000
060000
060000
060000
000000
000000
ENDCHAR

STARTCHAR jisx0208_2266
ENCODING 8806
SWIDTH 960 0
DWIDTH 20 0
BBX 20 20 0 -2
BITMAP
000000
000000
000000
000000
000000
000000
1F07C0
318C60
601830
603030
606030
60C030
318C60
1F07C0
000000
000000
000000
000000
000000
000000
ENDCHAR

STARTCHAR jisx0208_2267
ENCODING 8807
SWIDTH 960 0
DWIDTH 20 0
BBX 20 20 0 -2
BITMAP
000000
000000
000000
000000
000000
000000
0F87C0
18CC60
305800
303000
303000
305800
18CC60
0F87C0
000000
000000
000000
000000
000000
000000
ENDCHAR

STARTCHAR jisx0208_2268
ENCODING 8808
SWIDTH 960 0
DWIDTH 20 0
BBX 20 20 0 -2
BITMAP
000000
000000
000000
000000
0E0380
0E0380
000000
000000
000000
000000
000000
000000
000000
007000
007000
000000
000000
000000
000000
000000
ENDCHAR

STARTCHAR jisx0208_2269
ENCODING 8809
SWIDTH 960 0
DWIDTH 20 0
BBX 20 20 0 -2
BITMAP
000000
007800
00CC00
00DC00
00DC00
00C000
00C000
006000
006000
006000
006000
006000
006000
003000
003000
03B000
03B000
033000
01E000
000000
ENDCHAR

STARTCHAR jisx0208_226A
ENCODING 8810
SWIDTH 960 0
DWIDTH 20 0
BBX 20 20 0 -2
BITMAP
000000
03C780
066CC0
06EDC0
06EDC0
060C00
060C00
030600
030600
030600
030600
030600
030600
018300
018300
1DBB00
1DBB00
19B300
0F1E00
000000
ENDCHAR

STARTCHAR jisx0208_2272
ENCODING 8818
SWIDTH 960 0
DWIDTH 20 0
BBX 20 20 0 -2
BITMAP
000000
007000
00D800
00D800
007000
007000
00D800
00D800
018C00
018C00
030600
030600
07FF00
060300
0C0180
0C0180
3F07E0
000000
000000
000000
ENDCHAR

STARTCHAR jisx0208_2273
ENCODING 8819
SWIDTH 960 0
DWIDTH 20 0
BBX 20 20 0 -2
BITMAP
000000
000000
3C6000
666000
66C000
66C000
658000
658000
3B0000
030000
06F3C0
059660
0D9660
0D9660
199660
199660
30F3C0
000000
000000
000000
ENDCHAR

STARTCHAR jisx0208_2274
ENCODING 8820
SWIDTH 960 0
DWIDTH 20 0
BBX 20 20 0 -2
BITMAP
000000
000000
000C00
030C00
030C00
030F80
03FC00
1F0C00
030C00
030C00
030C00
030F80
03FC00
1F0C00
030C00
030C00
030000
000000
000000
000000
ENDCHAR

STARTCHAR jisx0208_2275
ENCODING 8821
SWIDTH 960 0
DWIDTH 20 0
BBX 20 20 0 -2
BITMAP
000000
000000
018000
018000
018000
018000
018000
018000
017800
01CC00
018600
018600
018600
018C00
019800
01B000
016000
01C000
000000
000000
ENDCHAR

STARTCHAR jisx0208_2276
ENCODING 8822
SWIDTH 960 0
DWIDTH 20 0
BBX 20 20 0 -2
BITMAP
000000
000000
006000
007000
005800
006C00
006600
006300
006300
006300
006300
006600
006C00
006000
006000
01E000
03E000
03C000
000000
000000
ENDCHAR

STARTCHAR jisx0208_2277
ENCODING 8823
SWIDTH 960 0
DWIDTH 20 0
BBX 20 20 0 -2
BITMAP
000000
006000
00F000
006000
036C00
07FE00
036C00
006000
00F000
00F000
006000
006000
006000
006000
006000
006000
006000
00F000
00F000
000000
ENDCHAR

STARTCHAR jisx0208_2278
ENCODING 8824
SWIDTH 960 0
DWIDTH 20 0
BBX 20 20 0 -2
BITMAP
000000
006000
00F000
006000
036C00
07FE00
036C00
006000
00F000
006000
006000
00F000
006000
036C00
07FE00
036C00
006000
00F000
006000
000000
ENDCHAR

STARTCHAR jisx0208_2279
ENCODING 8825
SWIDTH 960 0
DWIDTH 20 0
BBX 20 20 0 -2
BITMAP
000000
01FF00
03E600
07E600
07E600
07E600
07E600
07E600
03E600
01E600
006600
006600
006600
006600
006600
006600
006600
006600
006600
000000
ENDCHAR

STARTCHAR jisx0208_227E
ENCODING 8830
SWIDTH 960 0
DWIDTH 20 0
BBX 20 20 0 -2
BITMAP
000000
01FC00
070700
0C0180
1800C0
300060
300060
600030
600030
600030
600030
600030
600030
300060
300060
1800C0
0C0180
070700
01FC00
000000
ENDCHAR

STARTCHAR jisx0208_2330
ENCODING 9008
SWIDTH 960 0
DWIDTH 20 0
BBX 20 20 0 -2
BITMAP
000000
000000
00F800
038E00
060300
060300
0C0180
0C0180
0C0180
0C0180
0C0180
0C0180
0C0180
060300
060300
038E00
00F800
000000
000000
000000
ENDCHAR

STARTCHAR jisx0208_2331
ENCODING 9009
SWIDTH 960 0
DWIDTH 20 0
BBX 20 20 0 -2
BITMAP
000000
000000
006000
00E000
016000
036000
006000
006000
006000
006000
006000
006000
006000
006000
006000
006000
03FC00
000000
000000
000000
ENDCHAR

STARTCHAR jisx0208_2332
ENCODING 9010
SWIDTH 960 0
DWIDTH 20 0
BBX 20 20 0 -2
BITMAP
000000
000000
01FC00
030600
060300
060300
070300
070300
000600
000C00
003800
00E000
018000
030180
060180
060300
07FF00
000000
000000
000000
ENDCHAR

STARTCHAR jisx0208_2333
ENCODING 9011
SWIDTH 960 0
DWIDTH 20 0
BBX 20 20 0 -2
BITMAP
000000
000000
01FC00
030600
060300
070300
070300
000300
000600
00FE00
000300
000180
0E0180
0E0180
0C0180
060300
03FE00
000000
000000
000000
ENDCHAR

STARTCHAR jisx0208_2334
ENCODING 9012
SWIDTH 960 0
DWIDTH 20 0
BBX 20 20 0 -2
BITMAP
000000
000000
001C00
001C00
002C00
006C00
006C00
00CC00
018C00
030C00
030C00
060D80
0C0D80
0FFF80
000C00
000C00
003F00
000000
000000
000000
ENDCHAR

STARTCHAR jisx0208_2335
ENCODING 9013
SWIDTH 960 0
DWIDTH 20 0
BBX 20 20 0 -2
BITMAP
000000
000000
07FE00
060000
060000
060000
0C0000
0DF800
0B0E00
0E0600
0C0300
000300
000300
0E0300
0E0600
070E00
01F800
000000
000000
000000
ENDCHAR

STARTCHAR jisx0208_2336
ENCODING 9014
SWIDTH 960 0
DWIDTH 20 0
BBX 20 20 0 -2
BITMAP
000000
000000
01F800
070E00
060700
0C0700
0C0000
0DF800
0B0E00
0E0600
0C0300
0C0300
0C0300
0C0300
060600
070E00
01F800
000000
000000
000000
ENDCHAR

STARTCHAR jisx0208_2337
ENCODING 9015
SWIDTH 960 0
DWIDTH 20 0
BBX 20 20 0 -2
BITMAP
000000
000000
07FF00
060300
0C0600
0C0C00
000C00
001800
001800
003000
003000
003000
006000
006000
006000
006000
006000
000000
000000
000000
ENDCHAR

STARTCHAR jisx0208_2338
ENCODING 9016
SWIDTH 960 0
DWIDTH 20 0
BBX 20 20 0 -2
BITMAP
000000
000000
01FC00
030600
060300
060300
060300
030600
01FC00
070700
060300
0C0180
0C0180
0C0180
060300
070700
01FC00
000000
000000
000000
ENDCHAR

STARTCHAR jisx0208_2339
ENCODING 9017
SWIDTH 960 0
DWIDTH 20 0
BBX 20 20 0 -2
BITMAP
000000
000000
01F800
070E00
060600
0C0300
0C0300
0C0300
0C0300
060700
070B00
01FB00
000300
0E0300
0E0600
070E00
01F800
000000
000000
000000
ENDCHAR

STARTCHAR jisx0208_2341
ENCODING 9025
SWIDTH 960 0
DWIDTH 20 0
BBX 20 20 0 -2
BITMAP
000000
000000
006000
006000
00B000
00B000
019800
019800
019800
030C00
030C00
060600
07FE00
060600
0C0300
0C0300
3F0FC0
000000
000000
000000
ENDCHAR

STARTCHAR jisx0208_2342
ENCODING 9026
SWIDTH 960 0
DWIDTH 20 0
BBX 20 20 0 -2
BITMAP
000000
000000
1FFC00
060600
060300
060300
060300
060300
060600
07FE00
060300
060180
060180
060180
060180
060300
1FFE00
000000
000000
000000
ENDCHAR

STARTCHAR jisx0208_2343
ENCODING 9027
SWIDTH 960 0
DWIDTH 20 0
BBX 20 20 0 -2
BITMAP
000000
000000
01FB00
070F00
0C0300
0C0180
180180
180000
180000
180000
180000
180000
180180
0C0180
0C0300
070700
01FC00
000000
000000
000000
ENDCHAR

STARTCHAR jisx0208_2344
ENCODING 9028
SWIDTH 960 0
DWIDTH 20 0
BBX 20 20 0 -2
BITMAP
000000
000000
1FF800
060E00
060300
060300
060180
060180
060180
060180
060180
060180
060180
060300
060300
060E00
1FF800
000000
000000
000000
ENDCHAR

STARTCHAR jisx0208_2345
ENCODING 9029
SWIDTH 960 0
DWIDTH 20 0
BBX 20 20 0 -2
BITMAP
000000
000000
1FFE00
060600
060300
060300
060000
060C00
060C00
07FC00
060C00
060C00
060000
060180
060180
060300
1FFF00
000000
000000
000000
ENDCHAR

STARTCHAR jisx0208_2346
ENCODING 9030
SWIDTH 960 0
DWIDTH 20 0
BBX 20 20 0 -2
BITMAP
000000
000000
1FFF00
060300
060180
060180
060000
060C00
060C00
07FC00
060C00
060C00
060000
060000
060000
060000
1FC000
000000
000000
000000
ENDCHAR

STARTCHAR jisx0208_2347
ENCODING 9031
SWIDTH 960 0
DWIDTH 20 0
BBX 20 20 0 -2
BITMAP
000000
000000
01FB00
070F00
0C0300
0C0180
180180
180000
180000
180000
183FC0
180180
180180
0C0180
0C0380
070580
01FD80
000000
000000
000000
ENDCHAR

STARTCHAR jisx0208_2348
ENCODING 9032
SWIDTH 960 0
DWIDTH 20 0
BBX 20 20 0 -2
BITMAP
000000
000000
3F0FC0
0C0300
0C0300
0C0300
0C0300
0C0300
0C0300
0FFF00
0C0300
0C0300
0C0300
0C0300
0C0300
0C0300
3F0FC0
000000
000000
000000
ENDCHAR

STARTCHAR jisx0208_2349
ENCODING 9033
SWIDTH 960 0
DWIDTH 20 0
BBX 20 20 0 -2
BITMAP
000000
000000
01F800
006000
006000
006000
006000
006000
006000
006000
006000
006000
006000
006000
006000
006000
01F800
000000
000000
000000
ENDCHAR

STARTCHAR jisx0208_234A
ENCODING 9034
SWIDTH 960 0
DWIDTH 20 0
BBX 20 20 0 -2
BITMAP
000000
000000
003F00
000C00
000C00
000C00
000C00
000C00
000C00
000C00
000C00
000C00
070C00
070C00
060C00
031800
01F000
000000
000000
000000
ENDCHAR

STARTCHAR jisx0208_234B
ENCODING 9035
SWIDTH 960 0
DWIDTH 20 0
BBX 20 20 0 -2
BITMAP
000000
000000
3F1F80
0C0600
0C0C00
0C1800
0C3000
0C6000
0CE000
0DB000
0B3000
0E1800
0C0C00
0C0C00
0C0600
0C0300
3F0FC0
000000
000000
000000
ENDCHAR

STARTCHAR jisx0208_234C
ENCODING 9036
SWIDTH 960 0
DWIDTH 20 0
BBX 20 20 0 -2
BITMAP
000000
000000
0FC000
030000
030000
030000
030000
030000
030000
030000
030000
030000
030000
0300C0
0300C0
030180
0FFF80
000000
000000
000000
ENDCHAR

STARTCHAR jisx0208_234D
ENCODING 9037
SWIDTH 960 0
DWIDTH 20 0
BBX 20 20 0 -2
BITMAP
000000
000000
7C03E0
1C0380
160580
160580
160580
1B0D80
1B0D80
199980
199980
199980
18B180
18B180
186180
186180
7E67E0
000000
000000
000000
ENDCHAR

STARTCHAR jisx0208_234E
ENCODING 9038
SWIDTH 960 0
DWIDTH 20 0
BBX 20 20 0 -2
BITMAP
000000
000000
3E0FC0
0E0300
0B0300
0D8300
0D8300
0CC300
0C6300
0C6300
0C3300
0C1B00
0C1B00
0C0B00
0C0700
0C0700
3F0300
000000
000000
000000
ENDCHAR

STARTCHAR jisx0208_234F
ENCODING 9039
SWIDTH 960 0
DWIDTH 20 0
BBX 20 20 0 -2
BITMAP
000000
000000
01F800
070E00
0C0300
0C0300
180180
180180
180180
180180
180180
180180
180180
0C0300
0C0300
070E00
01F800
000000
000000
000000
ENDCHAR

STARTCHAR jisx0208_2350
ENCODING 9040
SWIDTH 960 0
DWIDTH 20 0
BBX 20 20 0 -2
BITMAP
000000
000000
0FFE00
030300
030180
030180
030180
030180
030180
030300
03FE00
030000
030000
030000
030000
030000
0FE000
000000
000000
000000
ENDCHAR

STARTCHAR jisx0208_2351
ENCODING 9041
SWIDTH 960 0
DWIDTH 20 0
BBX 20 20 0 -2
BITMAP
000000
000000
01F800
070E00
0C0300
0C0300
180180
180180
180180
180180
180180
180180
180180
0DF300
0B1B00
070EC0
01FB80
000000
000000
000000
ENDCHAR

STARTCHAR jisx0208_2352
ENCODING 9042
SWIDTH 960 0
DWIDTH 20 0
BBX 20 20 0 -2
BITMAP
000000
000000
1FFC00
060600
060300
060300
060300
060300
060600
07FC00
060C00
060600
060600
060600
060600
0606C0
1F8380
000000
000000
000000
ENDCHAR

STARTCHAR jisx0208_2353
ENCODING 9043
SWIDTH 960 0
DWIDTH 20 0
BBX 20 20 0 -2
BITMAP
000000
000000
03F600
060E00
0C0600
0C0300
0C0300
060000
03C000
007C00
000700
000180
0C0180
0C0180
060180
078300
06FE00
000000
000000
000000
ENDCHAR

STARTCHAR jisx0208_2354
ENCODING 9044
SWIDTH 960 0
DWIDTH 20 0
BBX 20 20 0 -2
BITMAP
000000
000000
0FFF00
0C6300
186180
186180
006000
006000
006000
006000
006000
006000
006000
006000
006000
006000
01F800
000000
000000
000000
ENDCHAR

STARTCHAR jisx0208_2355
ENCODING 9045
SWIDTH 960 0
DWIDTH 20 0
BBX 20 20 0 -2
BITMAP
000000
000000
3F0FC0
0C0300
0C0300
0C0300
0C0300
0C0300
0C0300
0C0300
0C0300
0C0300
0C0300
0C0300
060600
070E00
01F800
000000
000000
000000
ENDCHAR

STARTCHAR jisx0208_2356
ENCODING 9046
SWIDTH 960 0
DWIDTH 20 0
BBX 20 20 0 -2
BITMAP
000000
000000
3F0FC0
0C0300
0C0300
060600
060600
060600
030C00
030C00
019800
019800
019800
00B000
00B000
006000
006000
000000
000000
000000
ENDCHAR

STARTCHAR jisx0208_2357
ENCODING 9047
SWIDTH 960 0
DWIDTH 20 0
BBX 20 20 0 -2
BITMAP
000000
000000
7C63F0
3060C0
3060C0
30B0C0
18B180
18B180
199980
199980
0D9B00
0B0B00
0B0B00
0B0B00
060600
060600
060600
000000
000000
000000
ENDCHAR

STARTCHAR jisx0208_2358
ENCODING 9048
SWIDTH 960 0
DWIDTH 20 0
BBX 20 20 0 -2
BITMAP
000000
000000
1F8FC0
060300
030600
018C00
018C00
00D800
007000
007000
007000
00D800
018C00
018C00
030600
060300
1F8FC0
000000
000000
000000
ENDCHAR

STARTCHAR jisx0208_2359
ENCODING 9049
SWIDTH 960 0
DWIDTH 20 0
BBX 20 20 0 -2
BITMAP
000000
000000
1F9F80
060600
060600
030C00
030C00
019800
019800
00B000
00B000
006000
006000
006000
006000
006000
01F800
000000
000000
000000
ENDCHAR

STARTCHAR jisx0208_235A
ENCODING 9050
SWIDTH 960 0
DWIDTH 20 0
BBX 20 20 0 -2
BITMAP
000000
000000
03FF80
030300
060600
060600
000C00
001800
003000
003000
006000
00C000
018000
018180
030180
060300
0FFF00
000000
000000
000000
ENDCHAR

STARTCHAR jisx0208_2361
ENCODING 9057
SWIDTH 960 0
DWIDTH 20 0
BBX 20 20 0 -2
BITMAP
000000
000000
000000
000000
000000
000000
01FC00
038600
038600
001E00
00F600
038600
060600
060600
060E00
031D80
01F700
000000
000000
000000
ENDCHAR

STARTCHAR jisx0208_2362
ENCODING 9058
SWIDTH 960 0
DWIDTH 20 0
BBX 20 20 0 -2
BITMAP
000000
000000
030000
0F0000
030000
030000
037800
03CE00
038600
030300
030300
030300
030300
030300
038600
03CE00
0F7800
000000
000000
000000
ENDCHAR

STARTCHAR jisx0208_2363
ENCODING 9059
SWIDTH 960 0
DWIDTH 20 0
BBX 20 20 0 -2
BITMAP
000000
000000
000000
000000
000000
000000
00F800
038E00
030700
060700
060000
060000
060000
060000
030300
038600
00FC00
000000
000000
000000
ENDCHAR

STARTCHAR jisx0208_2364
ENCODING 9060
SWIDTH 960 0
DWIDTH 20 0
BBX 20 20 0 -2
BITMAP
000000
000000
000600
001E00
000600
000600
00F600
039E00
030E00
060600
060600
060600
060600
060600
030E00
039E00
00F780
000000
000000
000000
ENDCHAR

STARTCHAR jisx0208_2365
ENCODING 9061
SWIDTH 960 0
DWIDTH 20 0
BBX 20 20 0 -2
BITMAP
000000
000000
000000
000000
000000
000000
00F800
038E00
030600
060300
060300
07FF00
060000
060000
030300
038600
00FC00
000000
000000
000000
ENDCHAR

STARTCHAR jisx0208_2366
ENCODING 9062
SWIDTH 960 0
DWIDTH 20 0
BBX 20 20 0 -2
BITMAP
000000
000000
003C00
006E00
006E00
006000
03FC00
006000
006000
006000
006000
006000
006000
006000
006000
006000
01F800
000000
000000
000000
ENDCHAR

STARTCHAR jisx0208_2367
ENCODING 9063
SWIDTH 960 0
DWIDTH 20 0
BBX 20 20 0 -2
BITMAP
000000
000000
000000
000000
000000
000000
00EF00
019B80
030B80
030C00
030C00
019800
02F000
030000
01FE00
030300
060300
030600
01FC00
000000
ENDCHAR

STARTCHAR jisx0208_2368
ENCODING 9064
SWIDTH 960 0
DWIDTH 20 0
BBX 20 20 0 -2
BITMAP
000000
000000
060000
1E0000
060000
060000
06F800
058C00
070600
060600
060600
060600
060600
060600
060600
060600
1F9F80
000000
000000
000000
ENDCHAR

STARTCHAR jisx0208_2369
ENCODING 9065
SWIDTH 960 0
DWIDTH 20 0
BBX 20 20 0 -2
BITMAP
000000
000000
00E000
00E000
000000
000000
006000
01E000
006000
006000
006000
006000
006000
006000
006000
006000
01F800
000000
000000
000000
ENDCHAR

STARTCHAR jisx0208_236A
ENCODING 9066
SWIDTH 960 0
DWIDTH 20 0
BBX 20 20 0 -2
BITMAP
000000
000000
003800
003800
000000
000000
001800
007800
001800
001800
001800
001800
001800
001800
001800
001800
039800
03B000
01E000
000000
ENDCHAR

STARTCHAR jisx0208_236B
ENCODING 9067
SWIDTH 960 0
DWIDTH 20 0
BBX 20 20 0 -2
BITMAP
000000
000000
030000
0F0000
030000
030000
033F00
030C00
031800
033000
036000
02B000
039800
031800
030C00
030600
0FDF80
000000
000000
000000
ENDCHAR

STARTCHAR jisx0208_236C
ENCODING 9068
SWIDTH 960 0
DWIDTH 20 0
BBX 20 20 0 -2
BITMAP
000000
000000
006000
01E000
006000
006000
006000
006000
006000
006000
006000
006000
006000
006000
006000
006000
01F800
000000
000000
000000
ENDCHAR

STARTCHAR jisx0208_236D
ENCODING 9069
SWIDTH 960 0
DWIDTH 20 0
BBX 20 20 0 -2
BITMAP
000000
000000
000000
000000
000000
000000
17DF00
7C7180
186180
186180
186180
186180
186180
186180
186180
186180
7DF7E0
000000
000000
000000
ENDCHAR

STARTCHAR jisx0208_236E
ENCODING 9070
SWIDTH 960 0
DWIDTH 20 0
BBX 20 20 0 -2
BITMAP
000000
000000
000000
000000
000000
000000
06F800
1D8C00
070600
060600
060600
060600
060600
060600
060600
060600
1F9F80
000000
000000
000000
ENDCHAR

STARTCHAR jisx0208_236F
ENCODING 9071
SWIDTH 960 0
DWIDTH 20 0
BBX 20 20 0 -2
BITMAP
000000
000000
000000
000000
000000
000000
00F800
038E00
030600
060300
060300
060300
060300
060300
030600
038E00
00F800
000000
000000
000000
ENDCHAR

STARTCHAR jisx0208_2370
ENCODING 9072
SWIDTH 960 0
DWIDTH 20 0
BBX 20 20 0 -2
BITMAP
000000
000000
000000
000000
000000
000000
037800
0FCE00
038600
030300
030300
030300
030300
038600
03CE00
037800
030000
030000
0FC000
000000
ENDCHAR

STARTCHAR jisx0208_2371
ENCODING 9073
SWIDTH 960 0
DWIDTH 20 0
BBX 20 20 0 -2
BITMAP
000000
000000
000000
000000
000000
000000
00F600
039E00
030E00
060600
060600
060600
060600
030E00
039E00
00F600
000600
000600
001F80
000000
ENDCHAR

STARTCHAR jisx0208_2372
ENCODING 9074
SWIDTH 960 0
DWIDTH 20 0
BBX 20 20 0 -2
BITMAP
000000
000000
000000
000000
000000
000000
00DE00
03AE00
00E000
00C000
00C000
00C000
00C000
00C000
00C000
00C000
03F000
000000
000000
000000
ENDCHAR

STARTCHAR jisx0208_2373
ENCODING 9075
SWIDTH 960 0
DWIDTH 20 0
BBX 20 20 0 -2
BITMAP
000000
000000
000000
000000
000000
000000
00F600
018E00
030600
030600
01C000
007800
000E00
030300
030300
038600
02FC00
000000
000000
000000
ENDCHAR

STARTCHAR jisx0208_2374
ENCODING 9076
SWIDTH 960 0
DWIDTH 20 0
BBX 20 20 0 -2
BITMAP
000000
000000
00C000
00C000
00C000
00C000
03F800
00C000
00C000
00C000
00C000
00C000
00C000
00C000
00CC00
00D800
007000
000000
000000
000000
ENDCHAR

STARTCHAR jisx0208_2375
ENCODING 9077
SWIDTH 960 0
DWIDTH 20 0
BBX 20 20 0 -2
BITMAP
000000
000000
000000
000000
000000
000000
060600
1E1E00
060600
060600
060600
060600
060600
060600
060E00
031600
01F780
000000
000000
000000
ENDCHAR

STARTCHAR jisx0208_2376
ENCODING 9078
SWIDTH 960 0
DWIDTH 20 0
BBX 20 20 0 -2
BITMAP
000000
000000
000000
000000
000000
000000
1F9F80
060600
060600
030C00
030C00
019800
019800
00B000
00B000
006000
006000
000000
000000
000000
ENDCHAR

STARTCHAR jisx0208_2377
ENCODING 9079
SWIDTH 960 0
DWIDTH 20 0
BBX 20 20 0 -2
BITMAP
000000
000000
000000
000000
000000
000000
7E67E0
186180
186180
0CB300
0CB300
0CB300
059600
059600
059600
030C00
030C00
000000
000000
000000
ENDCHAR

STARTCHAR jisx0208_2378
ENCODING 9080
SWIDTH 960 0
DWIDTH 20 0
BBX 20 20 0 -2
BITMAP
000000
000000
000000
000000
000000
000000
0FDF80
030600
018C00
00D800
007000
007000
007000
00D800
018C00
030600
0FDF80
000000
000000
000000
ENDCHAR

STARTCHAR jisx0208_2379
ENCODING 9081
SWIDTH 960 0
DWIDTH 20 0
BBX 20 20 0 -2
BITMAP
000000
000000
000000
000000
000000
000000
1F9F80
060600
030C00
030C00
019800
019800
00B000
00B000
006000
006000
0EC000
0EC000
078000
000000
ENDCHAR

STARTCHAR jisx0208_237A
ENCODING 9082
SWIDTH 960 0
DWIDTH 20 0
BBX 20 20 0 -2
BITMAP
000000
000000
000000
000000
000000
000000
03FF00
030600
030C00
001800
003000
006000
006000
00C000
018300
030300
07FF00
000000
000000
000000
ENDCHAR

STARTCHAR jisx0208_2421
ENCODING 9249
SWIDTH 960 0
DWIDTH 20 0
BBX 20 20 0 -2
BITMAP
000000
000000
000000
000000
01C000
00C000
00DC00
0FF000
018000
019800
01FC00
039700
05B300
0DB180
196180
18C180
196300
0F0700
003C00
000000
ENDCHAR

STARTCHAR jisx0208_2422
ENCODING 9250
SWIDTH 960 0
DWIDTH 20 0
BBX 20 20 0 -2
BITMAP
000000
01C000
00C000
0CCE00
07F800
018000
019800
01FE00
079B80
0D98C0
1998C0
19B060
31B060
316060
30C0C0
3360C0
1E0180
000700
003C00
000000
ENDCHAR

STARTCHAR jisx0208_2423
ENCODING 9251
SWIDTH 960 0
DWIDTH 20 0
BBX 20 20 0 -2
BITMAP
000000
000000
000000
000000
000000
000000
0C0000
060000
060600
0C0300
0C0180
0C0180
0C0180
0CCF80
0D8180
058000
070000
030000
000000
000000
ENDCHAR

STARTCHAR jisx0208_2424
ENCODING 9252
SWIDTH 960 0
DWIDTH 20 0
BBX 20 20 0 -2
BITMAP
000000
000000
000000
300000
180000
180600
180300
300180
3000C0
3000C0
300060
318060
3303E0
330060
160000
160000
0C0000
060000
000000
000000
ENDCHAR

STARTCHAR jisx0208_2425
ENCODING 9253
SWIDTH 960 0
DWIDTH 20 0
BBX 20 20 0 -2
BITMAP
000000
000000
000000
000000
000000
01C000
007C00
00C000
000000
067C00
07C600
030300
000300
000300
000600
000600
000C00
003800
00E000
000000
ENDCHAR

STARTCHAR jisx0208_2426
ENCODING 9254
SWIDTH 960 0
DWIDTH 20 0
BBX 20 20 0 -2
BITMAP
000000
030000
019800
00FC00
018000
000000
007E00
19C300
1F0180
0C0180
000180
000180
000180
000300
000300
000600
000C00
003800
01E000
000000
ENDCHAR

STARTCHAR jisx0208_2427
ENCODING 9255
SWIDTH 960 0
DWIDTH 20 0
BBX 20 20 0 -2
BITMAP
000000
000000
000000
000000
000000
00C000
007800
00C000
000000
037C00
03D800
003000
006000
00F000
01B000
033000
063300
061F00
000000
000000
ENDCHAR

STARTCHAR jisx0208_2428
ENCODING 9256
SWIDTH 960 0
DWIDTH 20 0
BBX 20 20 0 -2
BITMAP
000000
018000
00D800
007C00
00C000
000600
0C7F00
0FCC00
061800
003000
006000
00F000
019800
031800
061800
0C1800
1818C0
180FE0
000000
000000
ENDCHAR

STARTCHAR jisx0208_2429
ENCODING 9257
SWIDTH 960 0
DWIDTH 20 0
BBX 20 20 0 -2
BITMAP
000000
000000
000000
000000
000000
000000
070000
030000
02EF00
1F8180
030000
033E00
02E300
038180
170180
1B0180
1B6300
073E00
030000
000000
ENDCHAR

STARTCHAR jisx0208_242A
ENCODING 9258
SWIDTH 960 0
DWIDTH 20 0
BBX 20 20 0 -2
BITMAP
000000
070000
038000
030780
0370C0
33C3E0
1F0060
030000
033F00
02E1C0
0380C0
070060
2B0060
3B0060
3B60C0
0731C0
031F00
030000
000000
000000
ENDCHAR

STARTCHAR jisx0208_242B
ENCODING 9259
SWIDTH 960 0
DWIDTH 20 0
BBX 20 20 0 -2
BITMAP
000000
038000
01C000
018000
018000
018380
33F8C0
3F0C60
1B0C60
060C30
060C30
060CF0
0C19B0
0C1800
1C1800
19B000
38E000
30C000
000000
000000
ENDCHAR

STARTCHAR jisx0208_242C
ENCODING 9260
SWIDTH 960 0
DWIDTH 20 0
BBX 20 20 0 -2
BITMAP
000000
038060
01C1B0
0180C0
018000
018380
33F8C0
3F0C60
1B0C60
060C30
060C30
060CF0
0C19B0
0C1800
1C1800
19B000
38E000
30C000
000000
000000
ENDCHAR

STARTCHAR jisx0208_242D
ENCODING 9261
SWIDTH 960 0
DWIDTH 20 0
BBX 20 20 0 -2
BITMAP
000000
01E000
007000
003000
0C3780
07FC00
001800
0C0BC0
07FE00
000C00
000600
03FB00
060780
0C0180
0C0000
0C0000
070600
01FF00
000000
000000
ENDCHAR

STARTCHAR jisx0208_242E
ENCODING 9262
SWIDTH 960 0
DWIDTH 20 0
BBX 20 20 0 -2
BITMAP
000000
01E060
0071B0
0030C0
0C3780
07FC00
001800
0C0BC0
07FE00
000C00
000600
03FB00
060780
0C0180
0C0000
0C0000
070600
01FF00
000000
000000
ENDCHAR

STARTCHAR jisx0208_242F
ENCODING 9263
SWIDTH 960 0
DWIDTH 20 0
BBX 20 20 0 -2
BITMAP
000000
007000
003800
003000
006000
00C000
018000
030000
060000
060000
030000
018000
00C000
006000
003000
001800
001C00
000C00
000C00
000000
ENDCHAR

STARTCHAR jisx0208_2430
ENCODING 9264
SWIDTH 960 0
DWIDTH 20 0
BBX 20 20 0 -2
BITMAP
000000
007000
003800
003000
006000
00C180
0186C0
030300
060000
060000
030000
018000
00C000
006000
003000
001800
001C00
000C00
000C00
000000
ENDCHAR

STARTCHAR jisx0208_2431
ENCODING 9265
SWIDTH 960 0
DWIDTH 20 0
BBX 20 20 0 -2
BITMAP
000000
000000
380700
1C0380
180300
180300
30C370
307FC0
300300
300300
300300
360300
360300
2C0300
2C0300
180600
180600
0C0C00
003800
000000
ENDCHAR

STARTCHAR jisx0208_2432
ENCODING 9266
SWIDTH 960 0
DWIDTH 20 0
BBX 20 20 0 -2
BITMAP
000000
000060
380730
1C02C0
180360
180300
30C370
307FC0
300300
300300
300300
360300
360300
2C0300
2C0300
180600
180600
0C0C00
003800
000000
ENDCHAR

STARTCHAR jisx0208_2433
ENCODING 9267
SWIDTH 960 0
DWIDTH 20 0
BBX 20 20 0 -2
BITMAP
000000
000000
000000
060C00
03FE00
01C000
030000
000000
000000
000000
000000
000000
180000
180000
180000
0C0000
0E0380
03FE00
000000
000000
ENDCHAR

STARTCHAR jisx0208_2434
ENCODING 9268
SWIDTH 960 0
DWIDTH 20 0
BBX 20 20 0 -2
BITMAP
000000
000060
0001B0
060CC0
03FE00
01C000
030000
000000
000000
000000
000000
000000
180000
180000
180000
0C0000
0E0380
03FE00
000000
000000
ENDCHAR

STARTCHAR jisx0208_2435
ENCODING 9269
SWIDTH 960 0
DWIDTH 20 0
BBX 20 20 0 -2
BITMAP
000000
00F000
003800
001800
0019C0
1C0F00
07FC00
000C00
000600
000600
01FB00
070780
0C0180
0C0000
0C0000
0C0000
070600
01FF00
000000
000000
ENDCHAR

STARTCHAR jisx0208_2436
ENCODING 9270
SWIDTH 960 0
DWIDTH 20 0
BBX 20 20 0 -2
BITMAP
000000
00F060
003830
0018C0
001B60
1C0E00
07FC00
000C00
000600
000600
01FB00
070780
0C0180
0C0000
0C0000
0C0000
070600
01FF00
000000
000000
ENDCHAR

STARTCHAR jisx0208_2437
ENCODING 9271
SWIDTH 960 0
DWIDTH 20 0
BBX 20 20 0 -2
BITMAP
000000
0E0000
070000
060000
060000
060000
060000
060000
060000
0C0000
0C0000
0C00C0
0C00C0
0C0180
0C0180
060300
070E00
01F800
000000
000000
ENDCHAR

STARTCHAR jisx0208_2438
ENCODING 9272
SWIDTH 960 0
DWIDTH 20 0
BBX 20 20 0 -2
BITMAP
000000
0E0000
070000
060300
060D80
060600
060000
060000
060000
0C0000
0C0000
0C00C0
0C00C0
0C0180
0C0180
060300
070E00
01F800
000000
000000
ENDCHAR

STARTCHAR jisx0208_2439
ENCODING 9273
SWIDTH 960 0
DWIDTH 20 0
BBX 20 20 0 -2
BITMAP
000000
007000
003800
003000
0030C0
61FFE0
7F3060
303000
01F000
033800
033800
033800
033800
01D800
003000
003000
006000
01C000
070000
000000
ENDCHAR

STARTCHAR jisx0208_243A
ENCODING 9274
SWIDTH 960 0
DWIDTH 20 0
BBX 20 20 0 -2
BITMAP
000000
007060
0039B0
0030C0
003000
61FFE0
7F3060
303000
01F000
033800
033800
033800
033800
01D800
003000
003000
006000
01C000
070000
000000
ENDCHAR

STARTCHAR jisx0208_243B
ENCODING 9275
SWIDTH 960 0
DWIDTH 20 0
BBX 20 20 0 -2
BITMAP
000000
000000
000E00
0E0700
070600
060600
0606C0
063FE0
67E660
7E0600
360600
063600
061E00
060C00
060000
060000
060380
03FE00
000000
000000
ENDCHAR

STARTCHAR jisx0208_243C
ENCODING 9276
SWIDTH 960 0
DWIDTH 20 0
BBX 20 20 0 -2
BITMAP
000000
000060
000E30
0E06C0
070660
060600
0606C0
063FE0
67E660
7E0600
360600
063600
061E00
060C00
060000
060000
060380
03FE00
000000
000000
ENDCHAR

STARTCHAR jisx0208_243D
ENCODING 9277
SWIDTH 960 0
DWIDTH 20 0
BBX 20 20 0 -2
BITMAP
000000
000000
067E00
07CC00
031800
007000
00C000
0180C0
070FE0
0DF860
3F3000
006000
00C000
00C000
00C000
00C000
006600
003F00
000000
000000
ENDCHAR

STARTCHAR jisx0208_243E
ENCODING 9278
SWIDTH 960 0
DWIDTH 20 0
BBX 20 20 0 -2
BITMAP
000000
000000
067E60
07CDB0
0318C0
007000
00C000
0180C0
070FE0
0DF860
3F3000
006000
00C000
00C000
00C000
00C000
006600
003F00
000000
000000
ENDCHAR

STARTCHAR jisx0208_243F
ENCODING 9279
SWIDTH 960 0
DWIDTH 20 0
BBX 20 20 0 -2
BITMAP
000000
070000
038000
030000
030000
32E000
1F8000
063180
061FC0
060C00
0C1800
0C0000
0C0000
1C0000
186000
186000
3860C0
303FE0
000000
000000
ENDCHAR

STARTCHAR jisx0208_2440
ENCODING 9280
SWIDTH 960 0
DWIDTH 20 0
BBX 20 20 0 -2
BITMAP
000000
070000
038060
0301B0
0300C0
32E000
1F8000
063180
061FC0
060C00
0C1800
0C0000
0C0000
1C0000
186000
186000
3860C0
303FE0
000000
000000
ENDCHAR

STARTCHAR jisx0208_2441
ENCODING 9281
SWIDTH 960 0
DWIDTH 20 0
BBX 20 20 0 -2
BITMAP
000000
038000
01C000
018000
199E00
0FF000
030000
030000
067F00
05C180
0700C0
0E00C0
0C00C0
0000C0
000180
000380
000E00
00F800
000000
000000
ENDCHAR

STARTCHAR jisx0208_2442
ENCODING 9282
SWIDTH 960 0
DWIDTH 20 0
BBX 20 20 0 -2
BITMAP
000000
0380C0
01C360
018180
199E00
0FF000
030000
030000
067F00
05C180
0700C0
0E00C0
0C00C0
0000C0
000180
000380
000E00
00F800
000000
000000
ENDCHAR

STARTCHAR jisx0208_2443
ENCODING 9283
SWIDTH 960 0
DWIDTH 20 0
BBX 20 20 0 -2
BITMAP
000000
000000
000000
000000
000000
000000
000000
000000
003F00
19E180
1F00C0
0C00C0
0000C0
0000C0
0000C0
000180
000700
00FC00
000000
000000
ENDCHAR

STARTCHAR jisx0208_2444
ENCODING 9284
SWIDTH 960 0
DWIDTH 20 0
BBX 20 20 0 -2
BITMAP
000000
000000
000000
000000
000000
007F00
63C1C0
7E00C0
300060
000060
000060
000060
0000C0
0000C0
000180
000700
00FC00
000000
000000
000000
ENDCHAR

STARTCHAR jisx0208_2445
ENCODING 9285
SWIDTH 960 0
DWIDTH 20 0
BBX 20 20 0 -2
BITMAP
000000
000000
000060
0001B0
0000C0
007F00
63C1C0
7E00C0
300060
000060
000060
000060
0000C0
0000C0
000180
000700
00FC00
000000
000000
000000
ENDCHAR

STARTCHAR jisx0208_2446
ENCODING 9286
SWIDTH 960 0
DWIDTH 20 0
BBX 20 20 0 -2
BITMAP
000000
000000
000000
000FE0
31FC60
3F1800
183000
006000
00C000
00C000
018000
018000
018000
018000
00C000
00C000
007300
001F80
000000
000000
ENDCHAR

STARTCHAR jisx0208_2447
ENCODING 9287
SWIDTH 960 0
DWIDTH 20 0
BBX 20 20 0 -2
BITMAP
000000
000000
000000
000FE0
31FC60
3F1800
1830C0
006360
00C180
00C000
018000
018000
018000
018000
00C000
00C000
007300
001F80
000000
000000
ENDCHAR

STARTCHAR jisx0208_2448
ENCODING 9288
SWIDTH 960 0
DWIDTH 20 0
BBX 20 20 0 -2
BITMAP
000000
01C000
00E000
00C000
00C000
00C000
00C300
00CF80
007800
01C000
030000
060000
0C0000
0C0000
0C0000
0C0000
0601C0
03FF00
000000
000000
ENDCHAR

STARTCHAR jisx0208_2449
ENCODING 9289
SWIDTH 960 0
DWIDTH 20 0
BBX 20 20 0 -2
BITMAP
000000
01C000
00E060
00C1B0
00C0C0
00C000
00C300
00CF80
007800
01C000
030000
060000
0C0000
0C0000
0C0000
0C0000
0601C0
03FF00
000000
000000
ENDCHAR

STARTCHAR jisx0208_244A
ENCODING 9290
SWIDTH 960 0
DWIDTH 20 0
BBX 20 20 0 -2
BITMAP
000000
070000
038000
030000
337000
1FCF80
0600E0
060360
0C0600
0C0600
0C0600
180600
180600
38FE00
318780
3186E0
00C660
007C00
000000
000000
ENDCHAR

STARTCHAR jisx0208_244B
ENCODING 9291
SWIDTH 960 0
DWIDTH 20 0
BBX 20 20 0 -2
BITMAP
000000
000000
380000
1CE180
183FC0
180E00
181800
303000
300000
300000
300000
300000
36C000
2CC000
2CC000
3860C0
183FE0
180000
000000
000000
ENDCHAR

STARTCHAR jisx0208_244C
ENCODING 9292
SWIDTH 960 0
DWIDTH 20 0
BBX 20 20 0 -2
BITMAP
000000
007000
003800
003000
003000
387F00
0DE1C0
0B60C0
0E6060
0CC060
16C060
16C060
358060
339F60
3330E0
33B060
3598B0
1C0F80
000000
000000
ENDCHAR

STARTCHAR jisx0208_244D
ENCODING 9293
SWIDTH 960 0
DWIDTH 20 0
BBX 20 20 0 -2
BITMAP
000000
070000
038000
030000
030000
339F80
3F70C0
1AC060
038060
070060
070060
0B0060
1B1F60
3B3160
2B30E0
0730B0
031F80
030000
000000
000000
ENDCHAR

STARTCHAR jisx0208_244E
ENCODING 9294
SWIDTH 960 0
DWIDTH 20 0
BBX 20 20 0 -2
BITMAP
000000
000000
000000
01FC00
076700
0C7180
1860C0
1860C0
306060
306060
30C060
30C060
30C060
3180C0
1980C0
1B0180
0E0700
001C00
000000
000000
ENDCHAR

STARTCHAR jisx0208_244F
ENCODING 9295
SWIDTH 960 0
DWIDTH 20 0
BBX 20 20 0 -2
BITMAP
000000
000000
380700
1C0380
180300
18E2E0
183F80
300300
300300
300300
300300
300300
360300
2C7F00
2CC380
38C2C0
18C360
187E00
000000
000000
ENDCHAR

STARTCHAR jisx0208_2450
ENCODING 9296
SWIDTH 960 0
DWIDTH 20 0
BBX 20 20 0 -2
BITMAP
000000
000060
3807B0
1C02C0
180300
18E2E0
183F80
300300
300300
300300
300300
300300
360300
2C7F00
2CC380
38C2C0
18C360
187E00
000000
000000
ENDCHAR

STARTCHAR jisx0208_2451
ENCODING 9297
SWIDTH 960 0
DWIDTH 20 0
BBX 20 20 0 -2
BITMAP
000000
0000E0
3807B0
1C03B0
1802E0
18E2E0
183F80
300300
300300
300300
300300
300300
360300
2C7F00
2CC380
38C2C0
18C360
187E00
000000
000000
ENDCHAR

STARTCHAR jisx0208_2452
ENCODING 9298
SWIDTH 960 0
DWIDTH 20 0
BBX 20 20 0 -2
BITMAP
000000
000000
000000
18E600
0FC600
018300
030380
0602C0
0C0370
0C0330
180300
180300
180300
180600
180600
0C0C00
0E3800
03E000
000000
000000
ENDCHAR

STARTCHAR jisx0208_2453
ENCODING 9299
SWIDTH 960 0
DWIDTH 20 0
BBX 20 20 0 -2
BITMAP
000000
000060
000030
18E6C0
0FC660
018300
030380
0602C0
0C0370
0C0330
180300
180300
180300
180600
180600
0C0C00
0E3800
03E000
000000
000000
ENDCHAR

STARTCHAR jisx0208_2454
ENCODING 9300
SWIDTH 960 0
DWIDTH 20 0
BBX 20 20 0 -2
BITMAP
000000
0000E0
0001B0
18E5B0
0FC6E0
018300
030380
0602C0
0C0370
0C0330
180300
180300
180300
180600
180600
0C0C00
0E3800
03E000
000000
000000
ENDCHAR

STARTCHAR jisx0208_2455
ENCODING 9301
SWIDTH 960 0
DWIDTH 20 0
BBX 20 20 0 -2
BITMAP
000000
000000
018000
00C000
007800
006000
00C000
018000
018000
00C000
006000
003700
031980
6618C0
6C1860
7619E0
333360
01E000
000000
000000
ENDCHAR

STARTCHAR jisx0208_2456
ENCODING 9302
SWIDTH 960 0
DWIDTH 20 0
BBX 20 20 0 -2
BITMAP
000000
000000
018060
00C030
0078C0
006060
00C000
018000
018000
00C000
006000
003700
031980
6618C0
6C1860
7619E0
333360
01E000
000000
000000
ENDCHAR

STARTCHAR jisx0208_2457
ENCODING 9303
SWIDTH 960 0
DWIDTH 20 0
BBX 20 20 0 -2
BITMAP
000000
000000
0181C0
00C360
007B60
0061C0
00C000
018000
018000
00C000
006000
003700
031980
6618C0
6C1860
7619E0
333360
01E000
000000
000000
ENDCHAR

STARTCHAR jisx0208_2458
ENCODING 9304
SWIDTH 960 0
DWIDTH 20 0
BBX 20 20 0 -2
BITMAP
000000
000000
000000
000000
000000
01C000
036000
063000
6C1800
780C00
300700
000180
0000E0
000070
000000
000000
000000
000000
000000
000000
ENDCHAR

STARTCHAR jisx0208_2459
ENCODING 9305
SWIDTH 960 0
DWIDTH 20 0
BBX 20 20 0 -2
BITMAP
000000
000000
000000
000180
0006C0
01C300
036000
063000
6C1800
780C00
300700
000180
0000E0
000070
000000
000000
000000
000000
000000
000000
ENDCHAR

STARTCHAR jisx0208_245A
ENCODING 9306
SWIDTH 960 0
DWIDTH 20 0
BBX 20 20 0 -2
BITMAP
000000
000000
000000
000380
0006C0
01C6C0
036380
063000
6C1800
780C00
300700
000180
0000E0
000070
000000
000000
000000
000000
000000
000000
ENDCHAR

STARTCHAR jisx0208_245B
ENCODING 9307
SWIDTH 960 0
DWIDTH 20 0
BBX 20 20 0 -2
BITMAP
000000
000000
38C1C0
1C7F00
180300
180380
3002C0
30C2E0
307F80
300300
300300
300300
360300
2C7F00
2CC380
38C2C0
18C360
187E00
000000
000000
ENDCHAR

STARTCHAR jisx0208_245C
ENCODING 9308
SWIDTH 960 0
DWIDTH 20 0
BBX 20 20 0 -2
BITMAP
000000
000060
38C1B0
1C7EC0
180300
180380
3002C0
30C2E0
307F80
300300
300300
300300
360300
2C7F00
2CC380
38C2C0
18C360
187E00
000000
000000
ENDCHAR

STARTCHAR jisx0208_245D
ENCODING 9309
SWIDTH 960 0
DWIDTH 20 0
BBX 20 20 0 -2
BITMAP
000000
0000E0
38C1B0
1C7FB0
1802E0
180380
3002C0
30C2E0
307F80
300300
300300
300300
360300
2C7F00
2CC380
38C2C0
18C360
187E00
000000
000000
ENDCHAR

STARTCHAR jisx0208_245E
ENCODING 9310
SWIDTH 960 0
DWIDTH 20 0
BBX 20 20 0 -2
BITMAP
000000
007000
003800
003000
3833C0
0FFE00
003000
003000
1C33C0
07FE00
003000
003000
003000
0FF000
183E00
183380
0C30C0
07E000
000000
000000
ENDCHAR

STARTCHAR jisx0208_245F
ENCODING 9311
SWIDTH 960 0
DWIDTH 20 0
BBX 20 20 0 -2
BITMAP
000000
000000
003000
06F800
07B000
003000
006000
006380
00C1C0
00C180
07FD80
1D8780
1981C0
330160
330330
360300
1C0600
001C00
007000
000000
ENDCHAR

STARTCHAR jisx0208_2460
ENCODING 9312
SWIDTH 960 0
DWIDTH 20 0
BBX 20 20 0 -2
BITMAP
000000
038000
01C000
018000
317000
1FC380
0300C0
0F0060
1980F0
3181B0
330000
330000
1E0180
060180
0C0180
0C0180
0C01C0
07FF80
000000
000000
ENDCHAR

STARTCHAR jisx0208_2461
ENCODING 9313
SWIDTH 960 0
DWIDTH 20 0
BBX 20 20 0 -2
BITMAP
000000
003800
001C00
001800
381800
0CFE00
0BB380
0630C0
0E30C0
166060
166060
32C060
32C060
3180C0
3380C0
36C180
1C0700
001C00
000000
000000
ENDCHAR

STARTCHAR jisx0208_2462
ENCODING 9314
SWIDTH 960 0
DWIDTH 20 0
BBX 20 20 0 -2
BITMAP
000000
01C000
00E000
18C000
0CB000
07F800
0D8000
018000
198600
19B300
0FF980
030180
0300C0
0300C0
0300C0
0300C0
018180
00FF00
000000
000000
ENDCHAR

STARTCHAR jisx0208_2463
ENCODING 9315
SWIDTH 960 0
DWIDTH 20 0
BBX 20 20 0 -2
BITMAP
000000
000000
000000
000000
000000
000000
007800
038C00
033F00
02E180
1B8180
1D8180
0D9980
00CF00
00C000
00C000
006000
006000
006000
000000
ENDCHAR

STARTCHAR jisx0208_2464
ENCODING 9316
SWIDTH 960 0
DWIDTH 20 0
BBX 20 20 0 -2
BITMAP
000000
00F000
001800
077C00
0E0F80
0678C0
05C060
6F0060
7B0060
330060
01B8C0
018F80
018000
00C000
00C000
00C000
006000
006000
006000
000000
ENDCHAR

STARTCHAR jisx0208_2465
ENCODING 9317
SWIDTH 960 0
DWIDTH 20 0
BBX 20 20 0 -2
BITMAP
000000
000000
000000
000000
000000
007000
00D800
0E1800
067E00
06DB00
0D9980
0B1980
0B1980
0E1980
0D9980
06DB00
067E00
003000
01E000
000000
ENDCHAR

STARTCHAR jisx0208_2466
ENCODING 9318
SWIDTH 960 0
DWIDTH 20 0
BBX 20 20 0 -2
BITMAP
000000
007000
00D800
381800
1C7E00
19DB80
1B18C0
3618C0
361860
2C1860
2C1860
2B1860
3B18C0
1998C0
19DB80
187E00
003000
006000
01C000
000000
ENDCHAR

STARTCHAR jisx0208_2467
ENCODING 9319
SWIDTH 960 0
DWIDTH 20 0
BBX 20 20 0 -2
BITMAP
000000
000000
000000
000000
000000
007000
003800
003000
003300
003F80
003000
003000
003000
003000
07F000
0C3C00
0C3700
063180
03E000
000000
ENDCHAR

STARTCHAR jisx0208_2468
ENCODING 9320
SWIDTH 960 0
DWIDTH 20 0
BBX 20 20 0 -2
BITMAP
000000
00E000
007000
006000
006000
006380
007E00
006000
006000
006000
006000
006000
006000
1FF000
305E00
306380
1860C0
0FC000
000000
000000
ENDCHAR

STARTCHAR jisx0208_2469
ENCODING 9321
SWIDTH 960 0
DWIDTH 20 0
BBX 20 20 0 -2
BITMAP
000000
060000
031800
01FC00
070000
0C0000
0E0000
0C0000
0C7E00
0DC380
0B0180
1E00C0
1C00C0
1800C0
000180
000380
000E00
01F800
000000
000000
ENDCHAR

STARTCHAR jisx0208_246A
ENCODING 9322
SWIDTH 960 0
DWIDTH 20 0
BBX 20 20 0 -2
BITMAP
000000
0E0000
070000
067C00
06C600
0D8300
0D8300
0B0300
0B0300
0B0300
0E0300
0E0300
060300
060300
000600
000600
000C00
003800
00E000
000000
ENDCHAR

STARTCHAR jisx0208_246B
ENCODING 9323
SWIDTH 960 0
DWIDTH 20 0
BBX 20 20 0 -2
BITMAP
000000
000000
067E00
07CC00
031800
003000
006000
00C000
017F00
03C180
0700C0
0E00C0
1C00C0
1800C0
00F0C0
019980
018F00
00FC00
000000
000000
ENDCHAR

STARTCHAR jisx0208_246C
ENCODING 9324
SWIDTH 960 0
DWIDTH 20 0
BBX 20 20 0 -2
BITMAP
000000
070000
038000
030000
030000
339F80
3F70C0
1AC0C0
0380C0
0700C0
0700C0
0B00C0
0B0180
1B0180
2B01B0
3701B0
0301E0
030000
000000
000000
ENDCHAR

STARTCHAR jisx0208_246D
ENCODING 9325
SWIDTH 960 0
DWIDTH 20 0
BBX 20 20 0 -2
BITMAP
000000
000000
063E00
07EC00
031800
003000
006000
00C000
017F00
03C180
0700C0
0E00C0
1C00C0
1800C0
0000C0
000180
000700
01FC00
000000
000000
ENDCHAR

STARTCHAR jisx0208_246E
ENCODING 9326
SWIDTH 960 0
DWIDTH 20 0
BBX 20 20 0 -2
BITMAP
000000
000000
000000
000000
000000
000000
038000
018000
018000
0DDF00
0F7180
01C0C0
0380C0
0380C0
0580C0
0D8180
0B8380
019E00
018000
000000
ENDCHAR

STARTCHAR jisx0208_246F
ENCODING 9327
SWIDTH 960 0
DWIDTH 20 0
BBX 20 20 0 -2
BITMAP
000000
070000
038000
030000
030000
33BF00
3EE1C0
1B80C0
030060
070060
070060
0B0060
1B0060
3B00C0
2B00C0
070380
033E00
030000
000000
000000
ENDCHAR

STARTCHAR jisx0208_2470
ENCODING 9328
SWIDTH 960 0
DWIDTH 20 0
BBX 20 20 0 -2
BITMAP
000000
000000
067C00
07D800
031800
003000
003000
00FF00
0361C0
0660C0
0CC060
18C060
198060
318060
333C60
3666C0
1C6380
003E00
000000
000000
ENDCHAR

STARTCHAR jisx0208_2471
ENCODING 9329
SWIDTH 960 0
DWIDTH 20 0
BBX 20 20 0 -2
BITMAP
000000
000000
037C00
03D800
003000
006000
01FC00
030600
060300
0DE300
033600
01FC00
01C000
070F00
0F9980
18B0C0
3061E0
306360
000000
000000
ENDCHAR

STARTCHAR jisx0208_2472
ENCODING 9330
SWIDTH 960 0
DWIDTH 20 0
BBX 20 20 0 -2
BITMAP
000000
01C000
00C000
18DE00
0FF000
018000
030000
030180
05F0C0
0F1BE0
1C1E00
383800
30D800
019800
033800
030000
030300
01FF80
000000
000000
ENDCHAR

STARTCHAR jisx0208_2473
ENCODING 9331
SWIDTH 960 0
DWIDTH 20 0
BBX 20 20 0 -2
BITMAP
000000
00E000
007000
006000
00C000
00C000
018000
018000
030000
030000
05E000
073060
0E3060
0C3060
1830C0
1830C0
303180
301F00
000000
000000
ENDCHAR

STARTCHAR jisx0208_2521
ENCODING 9505
SWIDTH 960 0
DWIDTH 20 0
BBX 20 20 0 -2
BITMAP
000000
000000
000000
000000
000000
000000
0C0300
0FFF80
060300
000600
00EC00
007800
006000
006000
00C000
00C000
018000
030000
000000
000000
ENDCHAR

STARTCHAR jisx0208_2522
ENCODING 9506
SWIDTH 960 0
DWIDTH 20 0
BBX 20 20 0 -2
BITMAP
000000
000000
3000C0
3FFFE0
1800C0
000180
000300
00EE00
007800
006000
006000
006000
006000
00C000
00C000
018000
030000
060000
000000
000000
ENDCHAR

STARTCHAR jisx0208_2523
ENCODING 9507
SWIDTH 960 0
DWIDTH 20 0
BBX 20 20 0 -2
BITMAP
000000
000000
000000
000000
000000
001C00
000E00
000C00
001800
003000
007000
00B800
03B000
0E3000
003000
003000
003000
007000
003000
000000
ENDCHAR

STARTCHAR jisx0208_2524
ENCODING 9508
SWIDTH 960 0
DWIDTH 20 0
BBX 20 20 0 -2
BITMAP
000000
000E00
000700
000600
000C00
001800
003000
007000
00B800
01B000
073000
3C3000
003000
003000
003000
003000
003000
007000
003000
000000
ENDCHAR

STARTCHAR jisx0208_2525
ENCODING 9509
SWIDTH 960 0
DWIDTH 20 0
BBX 20 20 0 -2
BITMAP
000000
000000
000000
000000
000000
000000
00E000
007000
0E6300
07FF80
060300
060300
060300
060300
000600
000600
000C00
003800
00E000
000000
ENDCHAR

STARTCHAR jisx0208_2526
ENCODING 9510
SWIDTH 960 0
DWIDTH 20 0
BBX 20 20 0 -2
BITMAP
000000
00E000
007000
006000
386180
1FFFC0
180180
180180
180180
180180
180300
180300
000300
000600
000C00
001800
007000
03C000
000000
000000
ENDCHAR

STARTCHAR jisx0208_2527
ENCODING 9511
SWIDTH 960 0
DWIDTH 20 0
BBX 20 20 0 -2
BITMAP
000000
000000
000000
000000
000000
000000
000000
000000
060600
07FF00
036000
007000
006000
006000
006000
186180
1FFFC0
0C00C0
000000
000000
ENDCHAR

STARTCHAR jisx0208_2528
ENCODING 9512
SWIDTH 960 0
DWIDTH 20 0
BBX 20 20 0 -2
BITMAP
000000
000000
000000
000000
0C0300
0FFF80
066180
007000
006000
006000
006000
006000
006000
3060C0
3FFFE0
180060
000000
000000
000000
000000
ENDCHAR

STARTCHAR jisx0208_2529
ENCODING 9513
SWIDTH 960 0
DWIDTH 20 0
BBX 20 20 0 -2
BITMAP
000000
000000
000000
000000
000000
000000
003800
001C00
001800
061B00
07FF80
033800
005800
00D800
019800
031800
0ED800
007800
003000
000000
ENDCHAR

STARTCHAR jisx0208_252A
ENCODING 9514
SWIDTH 960 0
DWIDTH 20 0
BBX 20 20 0 -2
BITMAP
000000
003800
001C00
001800
001800
3018C0
3FFFE0
183860
005800
00D800
019800
031800
061800
1C1800
701800
01D800
007800
003000
000000
000000
ENDCHAR

STARTCHAR jisx0208_252B
ENCODING 9515
SWIDTH 960 0
DWIDTH 20 0
BBX 20 20 0 -2
BITMAP
000000
01C000
00E000
00C000
00C000
30C180
3FFFC0
198180
018180
018180
030180
030300
060300
060300
0C0600
186600
303C00
001800
000000
000000
ENDCHAR

STARTCHAR jisx0208_252C
ENCODING 9516
SWIDTH 960 0
DWIDTH 20 0
BBX 20 20 0 -2
BITMAP
000000
01C060
00E1B0
00C0C0
00C000
30C180
3FFFC0
198180
018180
018180
030180
030300
060300
060300
0C0600
186600
303C00
001800
000000
000000
ENDCHAR

STARTCHAR jisx0208_252D
ENCODING 9517
SWIDTH 960 0
DWIDTH 20 0
BBX 20 20 0 -2
BITMAP
000000
00E000
007000
006000
006300
187F80
1FE180
0C6000
006000
0060C0
307FE0
3FF060
183000
003000
003000
003000
003000
003800
003000
000000
ENDCHAR

STARTCHAR jisx0208_252E
ENCODING 9518
SWIDTH 960 0
DWIDTH 20 0
BBX 20 20 0 -2
BITMAP
000000
00E060
0071B0
0060C0
006300
187F80
1FE180
0C6000
006000
0060C0
307FE0
3FF060
183000
003000
003000
003000
003000
003800
003000
000000
ENDCHAR

STARTCHAR jisx0208_252F
ENCODING 9519
SWIDTH 960 0
DWIDTH 20 0
BBX 20 20 0 -2
BITMAP
000000
01C000
00E000
00C000
018180
01FFC0
030180
060180
0C0300
180300
000600
000600
000C00
001800
003000
006000
01C000
0F0000
000000
000000
ENDCHAR

STARTCHAR jisx0208_2530
ENCODING 9520
SWIDTH 960 0
DWIDTH 20 0
BBX 20 20 0 -2
BITMAP
000000
01C060
00E1B0
00C0C0
018180
01FFC0
030180
060180
0C0300
180300
000600
000600
000C00
001800
003000
006000
01C000
0F0000
000000
000000
ENDCHAR

STARTCHAR jisx0208_2531
ENCODING 9521
SWIDTH 960 0
DWIDTH 20 0
BBX 20 20 0 -2
BITMAP
000000
000000
070000
038000
030000
0300C0
07FFE0
060C00
0C0E00
180C00
300C00
000C00
001800
001800
003000
006000
01C000
0F0000
000000
000000
ENDCHAR

STARTCHAR jisx0208_2532
ENCODING 9522
SWIDTH 960 0
DWIDTH 20 0
BBX 20 20 0 -2
BITMAP
000000
000060
0701B0
0380C0
030000
0300C0
07FFE0
060C00
0C0E00
180C00
300C00
000C00
001800
001800
003000
006000
01C000
0F0000
000000
000000
ENDCHAR

STARTCHAR jisx0208_2533
ENCODING 9523
SWIDTH 960 0
DWIDTH 20 0
BBX 20 20 0 -2
BITMAP
000000
000000
000000
000000
180180
1FFFC0
0C0180
000180
000180
000180
000300
000300
000300
180300
1FFF80
0C0000
000000
000000
000000
000000
ENDCHAR

STARTCHAR jisx0208_2534
ENCODING 9524
SWIDTH 960 0
DWIDTH 20 0
BBX 20 20 0 -2
BITMAP
000000
000060
0001B0
0000C0
180180
1FFFC0
0C0180
000180
000180
000180
000300
000300
000300
180300
1FFF80
0C0000
000000
000000
000000
000000
ENDCHAR

STARTCHAR jisx0208_2535
ENCODING 9525
SWIDTH 960 0
DWIDTH 20 0
BBX 20 20 0 -2
BITMAP
000000
000E00
070700
038600
030600
630660
7FFFF0
330630
030600
030600
030600
030600
030600
000C00
000C00
001800
007000
01C000
000000
000000
ENDCHAR

STARTCHAR jisx0208_2536
ENCODING 9526
SWIDTH 960 0
DWIDTH 20 0
BBX 20 20 0 -2
BITMAP
000000
000E60
0705B0
0386C0
030600
630660
7FFFF0
330630
030600
030600
030600
030600
030600
000C00
000C00
001800
007000
01C000
000000
000000
ENDCHAR

STARTCHAR jisx0208_2537
ENCODING 9527
SWIDTH 960 0
DWIDTH 20 0
BBX 20 20 0 -2
BITMAP
000000
000000
000000
0E0000
038000
018060
000060
3800C0
0E00C0
060180
000300
000600
000C00
001800
003000
0CE000
0F8000
060000
000000
000000
ENDCHAR

STARTCHAR jisx0208_2538
ENCODING 9528
SWIDTH 960 0
DWIDTH 20 0
BBX 20 20 0 -2
BITMAP
000000
0000C0
000360
0E0180
038180
018060
000060
3800C0
0E00C0
060180
000300
000600
000C00
001800
003000
0CE000
0F8000
060000
000000
000000
ENDCHAR

STARTCHAR jisx0208_2539
ENCODING 9529
SWIDTH 960 0
DWIDTH 20 0
BBX 20 20 0 -2
BITMAP
000000
000000
000000
0C0300
0FFF80
060300
000300
000600
000600
000C00
000C00
001C00
003600
006300
01C180
0701C0
3C00C0
000000
000000
000000
ENDCHAR

STARTCHAR jisx0208_253A
ENCODING 9530
SWIDTH 960 0
DWIDTH 20 0
BBX 20 20 0 -2
BITMAP
000000
000060
000030
0C02C0
0FFF60
060300
000300
000600
000600
000C00
000C00
001C00
003600
006300
01C180
0701C0
3C00C0
000000
000000
000000
ENDCHAR

STARTCHAR jisx0208_253B
ENCODING 9531
SWIDTH 960 0
DWIDTH 20 0
BBX 20 20 0 -2
BITMAP
000000
000000
070000
038000
030000
0300C0
031FE0
63F0C0
7F0180
330300
030600
030C00
030000
030000
030000
0301C0
01FF00
000000
000000
000000
ENDCHAR

STARTCHAR jisx0208_253C
ENCODING 9532
SWIDTH 960 0
DWIDTH 20 0
BBX 20 20 0 -2
BITMAP
000000
000060
0701B0
0380C0
030000
0300C0
031FE0
63F0C0
7F0180
330300
030600
030C00
030000
030000
030000
0301C0
01FF00
000000
000000
000000
ENDCHAR

STARTCHAR jisx0208_253D
ENCODING 9533
SWIDTH 960 0
DWIDTH 20 0
BBX 20 20 0 -2
BITMAP
000000
000000
000000
1801C0
0C00E0
0600C0
0700C0
030180
000180
000180
000300
000300
000600
000C00
001800
003000
00E000
038000
000000
000000
ENDCHAR

STARTCHAR jisx0208_253E
ENCODING 9534
SWIDTH 960 0
DWIDTH 20 0
BBX 20 20 0 -2
BITMAP
000000
000160
0000B0
180000
0C01C0
0600E0
0700C0
0300C0
000180
000180
000300
000300
000600
000C00
001800
003000
00E000
038000
000000
000000
ENDCHAR

STARTCHAR jisx0208_253F
ENCODING 9535
SWIDTH 960 0
DWIDTH 20 0
BBX 20 20 0 -2
BITMAP
000000
01C000
00E000
00C000
018180
01FFC0
030180
060180
0C0300
19C300
007600
001C00
000E00
001700
003300
006000
01C000
0F0000
000000
000000
ENDCHAR

STARTCHAR jisx0208_2540
ENCODING 9536
SWIDTH 960 0
DWIDTH 20 0
BBX 20 20 0 -2
BITMAP
000000
01C060
00E1B0
00C0C0
018180
01FFC0
030180
060180
0C0300
19C300
007600
001C00
000E00
001700
003300
006000
01C000
0F0000
000000
000000
ENDCHAR

STARTCHAR jisx0208_2541
ENCODING 9537
SWIDTH 960 0
DWIDTH 20 0
BBX 20 20 0 -2
BITMAP
000000
000600
001F00
00F000
0FB800
003000
003000
3030C0
3FFFE0
183060
003000
003000
003000
006000
006000
00C000
018000
070000
000000
000000
ENDCHAR

STARTCHAR jisx0208_2542
ENCODING 9538
SWIDTH 960 0
DWIDTH 20 0
BBX 20 20 0 -2
BITMAP
000000
000600
001F60
00F030
0FB8C0
003060
003000
3030C0
3FFFE0
183060
003000
003000
003000
006000
006000
00C000
018000
070000
000000
000000
ENDCHAR

STARTCHAR jisx0208_2543
ENCODING 9539
SWIDTH 960 0
DWIDTH 20 0
BBX 20 20 0 -2
BITMAP
000000
000000
000000
000000
000000
000000
000000
00C700
066380
036300
030300
000300
000600
000600
000C00
001800
007000
01C000
000000
000000
ENDCHAR

STARTCHAR jisx0208_2544
ENCODING 9540
SWIDTH 960 0
DWIDTH 20 0
BBX 20 20 0 -2
BITMAP
000000
000000
000000
018000
30C380
18E1C0
1C6180
0C0180
000300
000300
000600
000600
000C00
001800
003000
006000
01C000
070000
000000
000000
ENDCHAR

STARTCHAR jisx0208_2545
ENCODING 9541
SWIDTH 960 0
DWIDTH 20 0
BBX 20 20 0 -2
BITMAP
000000
000160
0000B0
018000
30C380
18E1C0
1C6180
0C0180
000300
000300
000600
000600
000C00
001800
003000
006000
01C000
070000
000000
000000
ENDCHAR

STARTCHAR jisx0208_2546
ENCODING 9542
SWIDTH 960 0
DWIDTH 20 0
BBX 20 20 0 -2
BITMAP
000000
000000
0C0300
0FFF80
060000
000000
000000
3000C0
3FFFE0
183060
003000
003000
003000
006000
006000
00C000
018000
070000
000000
000000
ENDCHAR

STARTCHAR jisx0208_2547
ENCODING 9543
SWIDTH 960 0
DWIDTH 20 0
BBX 20 20 0 -2
BITMAP
000000
000060
0C05B0
0FFEC0
060000
000000
000000
3000C0
3FFFE0
183060
003000
003000
003000
006000
006000
00C000
018000
070000
000000
000000
ENDCHAR

STARTCHAR jisx0208_2548
ENCODING 9544
SWIDTH 960 0
DWIDTH 20 0
BBX 20 20 0 -2
BITMAP
000000
01C000
00E000
00C000
00C000
00C000
00C000
00E000
00B800
00CE00
00C700
00C300
00C000
00C000
00C000
00C000
00C000
01C000
00C000
000000
ENDCHAR

STARTCHAR jisx0208_2549
ENCODING 9545
SWIDTH 960 0
DWIDTH 20 0
BBX 20 20 0 -2
BITMAP
000000
01C000
00E180
00C6C0
00C300
00C000
00C000
00E000
00B800
00CE00
00C700
00C300
00C000
00C000
00C000
00C000
00C000
01C000
00C000
000000
ENDCHAR

STARTCHAR jisx0208_254A
ENCODING 9546
SWIDTH 960 0
DWIDTH 20 0
BBX 20 20 0 -2
BITMAP
000000
007000
003800
003000
003000
003000
3030C0
3FFFE0
183060
003000
003000
003000
003000
006000
006000
00C000
018000
070000
000000
000000
ENDCHAR

STARTCHAR jisx0208_254B
ENCODING 9547
SWIDTH 960 0
DWIDTH 20 0
BBX 20 20 0 -2
BITMAP
000000
000000
000000
000000
060700
03FE00
000000
000000
000000
000000
000000
000000
000000
3000C0
3FFFE0
180060
000000
000000
000000
000000
ENDCHAR

STARTCHAR jisx0208_254C
ENCODING 9548
SWIDTH 960 0
DWIDTH 20 0
BBX 20 20 0 -2
BITMAP
000000
000000
000000
0C0300
0FFF80
060300
000300
000600
078600
00EC00
003800
001C00
002E00
006700
01C300
070000
3C0000
000000
000000
000000
ENDCHAR

STARTCHAR jisx0208_254D
ENCODING 9549
SWIDTH 960 0
DWIDTH 20 0
BBX 20 20 0 -2
BITMAP
000000
01C000
007000
003000
0C0600
0FFF00
060600
000C00
001800
003000
006E00
01F380
0761C0
3C60C0
006000
006000
006000
00E000
006000
000000
ENDCHAR

STARTCHAR jisx0208_254E
ENCODING 9550
SWIDTH 960 0
DWIDTH 20 0
BBX 20 20 0 -2
BITMAP
000000
000000
000000
000700
000380
000300
000600
000600
000C00
001800
001800
003000
006000
00C000
018000
070000
1C0000
000000
000000
000000
ENDCHAR

STARTCHAR jisx0208_254F
ENCODING 9551
SWIDTH 960 0
DWIDTH 20 0
BBX 20 20 0 -2
BITMAP
000000
000000
000000
000000
000000
070C00
038600
030300
030180
060180
0600C0
0C00C0
0C00E0
180060
300060
600060
000000
000000
000000
000000
ENDCHAR

STARTCHAR jisx0208_2550
ENCODING 9552
SWIDTH 960 0
DWIDTH 20 0
BBX 20 20 0 -2
BITMAP
000000
000000
000000
000060
0001B0
070CC0
038600
030300
030180
060180
0600C0
0C00C0
0C00E0
180060
300060
600060
000000
000000
000000
000000
ENDCHAR

STARTCHAR jisx0208_2551
ENCODING 9553
SWIDTH 960 0
DWIDTH 20 0
BBX 20 20 0 -2
BITMAP
000000
000000
0001C0
000360
000360
070DC0
038600
030300
030180
060180
0600C0
0C00C0
0C00E0
180060
300060
600060
000000
000000
000000
000000
ENDCHAR

STARTCHAR jisx0208_2552
ENCODING 9554
SWIDTH 960 0
DWIDTH 20 0
BBX 20 20 0 -2
BITMAP
000000
000000
1C0000
0E0000
0C0700
0C0380
0C0E00
0C7800
0FC000
0C0000
0C0000
0C0000
0C0000
0C0000
0C0000
0C01C0
07FF00
000000
000000
000000
ENDCHAR

STARTCHAR jisx0208_2553
ENCODING 9555
SWIDTH 960 0
DWIDTH 20 0
BBX 20 20 0 -2
BITMAP
000000
000060
1C01B0
0E00C0
0C0700
0C0380
0C0E00
0C7800
0FC000
0C0000
0C0000
0C0000
0C0000
0C0000
0C0000
0C01C0
07FF00
000000
000000
000000
ENDCHAR

STARTCHAR jisx0208_2554
ENCODING 9556
SWIDTH 960 0
DWIDTH 20 0
BBX 20 20 0 -2
BITMAP
000000
0000E0
1C01B0
0E01B0
0C06E0
0C0380
0C0E00
0C7800
0FC000
0C0000
0C0000
0C0000
0C0000
0C0000
0C0000
0C01C0
07FF00
000000
000000
000000
ENDCHAR

STARTCHAR jisx0208_2555
ENCODING 9557
SWIDTH 960 0
DWIDTH 20 0
BBX 20 20 0 -2
BITMAP
000000
000000
000000
300180
3FFFC0
180180
000180
000180
000300
000300
000600
000600
000C00
001800
003000
00E000
078000
000000
000000
000000
ENDCHAR

STARTCHAR jisx0208_2556
ENCODING 9558
SWIDTH 960 0
DWIDTH 20 0
BBX 20 20 0 -2
BITMAP
000000
000160
0000B0
300180
3FFFC0
180180
000180
000180
000300
000300
000600
000600
000C00
001800
003000
00E000
078000
000000
000000
000000
ENDCHAR

STARTCHAR jisx0208_2557
ENCODING 9559
SWIDTH 960 0
DWIDTH 20 0
BBX 20 20 0 -2
BITMAP
000000
0000E0
0001B0
3001B0
3FFFE0
180180
000180
000180
000300
000300
000600
000600
000C00
001800
003000
00E000
078000
000000
000000
000000
ENDCHAR

STARTCHAR jisx0208_2558
ENCODING 9560
SWIDTH 960 0
DWIDTH 20 0
BBX 20 20 0 -2
BITMAP
000000
000000
000000
000000
000000
01C000
036000
063000
6C1800
780C00
300600
000300
000180
0000E0
000070
000030
000000
000000
000000
000000
ENDCHAR

STARTCHAR jisx0208_2559
ENCODING 9561
SWIDTH 960 0
DWIDTH 20 0
BBX 20 20 0 -2
BITMAP
000000
000000
000000
0000C0
000360
01C180
036000
063000
6C1800
780C00
300600
000300
000180
0000E0
000070
000030
000000
000000
000000
000000
ENDCHAR

STARTCHAR jisx0208_255A
ENCODING 9562
SWIDTH 960 0
DWIDTH 20 0
BBX 20 20 0 -2
BITMAP
000000
000000
000000
000380
0006C0
01C6C0
036380
063000
6C1800
780C00
300600
000300
000180
0000E0
000070
000030
000000
000000
000000
000000
ENDCHAR

STARTCHAR jisx0208_255B
ENCODING 9563
SWIDTH 960 0
DWIDTH 20 0
BBX 20 20 0 -2
BITMAP
000000
00E000
007000
006000
006000
306180
3FFFC0
1860C0
006000
066600
066300
0C6180
1C61C0
3860C0
3060C0
006000
036000
00E000
00C000
000000
ENDCHAR

STARTCHAR jisx0208_255C
ENCODING 9564
SWIDTH 960 0
DWIDTH 20 0
BBX 20 20 0 -2
BITMAP
000000
00E060
0071B0
0060C0
006000
306180
3FFFC0
1860C0
006000
066600
066300
0C6180
1C61C0
3860C0
3060C0
006000
036000
00E000
00C000
000000
ENDCHAR

STARTCHAR jisx0208_255D
ENCODING 9565
SWIDTH 960 0
DWIDTH 20 0
BBX 20 20 0 -2
BITMAP
000000
00E1C0
007360
006360
0061C0
306180
3FFFC0
1860C0
006000
066600
066300
0C6180
1C61C0
3860C0
3060C0
006000
036000
00E000
00C000
000000
ENDCHAR

STARTCHAR jisx0208_255E
ENCODING 9566
SWIDTH 960 0
DWIDTH 20 0
BBX 20 20 0 -2
BITMAP
000000
000000
000000
3000C0
3FFFE0
1800C0
000180
000180
000300
000600
030C00
019800
00B000
006000
007000
003000
003000
000000
000000
000000
ENDCHAR

STARTCHAR jisx0208_255F
ENCODING 9567
SWIDTH 960 0
DWIDTH 20 0
BBX 20 20 0 -2
BITMAP
000000
000000
000000
03E000
003E00
000700
000000
000000
03E000
003C00
000E00
000000
000000
000000
0FC000
007C00
000F00
000380
000000
000000
ENDCHAR

STARTCHAR jisx0208_2560
ENCODING 9568
SWIDTH 960 0
DWIDTH 20 0
BBX 20 20 0 -2
BITMAP
000000
000000
00E000
007000
006000
00E000
00C000
00C000
018000
018000
030C00
030600
060300
060180
2C3FC0
3FE0C0
1800C0
000000
000000
000000
ENDCHAR

STARTCHAR jisx0208_2561
ENCODING 9569
SWIDTH 960 0
DWIDTH 20 0
BBX 20 20 0 -2
BITMAP
000000
000000
000700
000380
000300
000300
000600
038600
00EC00
002C00
001800
002E00
006700
00C300
018000
070000
1C0000
000000
000000
000000
ENDCHAR

STARTCHAR jisx0208_2562
ENCODING 9570
SWIDTH 960 0
DWIDTH 20 0
BBX 20 20 0 -2
BITMAP
000000
000000
180300
1FFF80
0CC180
00E000
00C000
30C0C0
3FFFE0
18C060
00C000
00C000
00C000
00C000
00C000
00C180
007FC0
000000
000000
000000
ENDCHAR

STARTCHAR jisx0208_2563
ENCODING 9571
SWIDTH 960 0
DWIDTH 20 0
BBX 20 20 0 -2
BITMAP
000000
000000
000000
000000
000000
01C000
00E000
00C180
18FFC0
1FC180
0CC300
00C600
00CC00
006000
006000
006000
006000
006000
006000
000000
ENDCHAR

STARTCHAR jisx0208_2564
ENCODING 9572
SWIDTH 960 0
DWIDTH 20 0
BBX 20 20 0 -2
BITMAP
000000
038000
01C000
018000
018000
0180C0
61FFE0
7F80C0
318180
018300
018600
00CC00
00C000
00C000
00C000
00C000
00C000
00E000
00C000
000000
ENDCHAR

STARTCHAR jisx0208_2565
ENCODING 9573
SWIDTH 960 0
DWIDTH 20 0
BBX 20 20 0 -2
BITMAP
000000
000000
000000
000000
000000
000000
000000
060C00
07FE00
030C00
000C00
000C00
001800
001800
181B00
1FFF80
0C0180
000000
000000
000000
ENDCHAR

STARTCHAR jisx0208_2566
ENCODING 9574
SWIDTH 960 0
DWIDTH 20 0
BBX 20 20 0 -2
BITMAP
000000
000000
000000
000000
0C0300
0FFF80
060300
000300
000300
000300
000600
000600
000600
3006C0
3FFFE0
180060
000000
000000
000000
000000
ENDCHAR

STARTCHAR jisx0208_2567
ENCODING 9575
SWIDTH 960 0
DWIDTH 20 0
BBX 20 20 0 -2
BITMAP
000000
000000
000000
000000
000000
000000
060300
07FF80
030300
000300
060300
07FF00
030600
000600
000600
060600
07FF00
030000
000000
000000
ENDCHAR

STARTCHAR jisx0208_2568
ENCODING 9576
SWIDTH 960 0
DWIDTH 20 0
BBX 20 20 0 -2
BITMAP
000000
000000
000000
180180
1FFFC0
0C0180
000180
000180
0C0180
0FFF00
060300
000300
000300
000300
180300
1FFF80
0C0000
000000
000000
000000
ENDCHAR

STARTCHAR jisx0208_2569
ENCODING 9577
SWIDTH 960 0
DWIDTH 20 0
BBX 20 20 0 -2
BITMAP
000000
000000
060C00
03FE00
000000
000000
300180
3FFFC0
180180
000180
000180
000300
000300
000600
000C00
001800
007000
03C000
000000
000000
ENDCHAR

STARTCHAR jisx0208_256A
ENCODING 9578
SWIDTH 960 0
DWIDTH 20 0
BBX 20 20 0 -2
BITMAP
000000
000000
000E00
0E0700
070600
060600
060600
060600
060600
060600
060600
060600
060600
000C00
000C00
001800
003000
01E000
000000
000000
ENDCHAR

STARTCHAR jisx0208_256B
ENCODING 9579
SWIDTH 960 0
DWIDTH 20 0
BBX 20 20 0 -2
BITMAP
000000
000000
007000
003800
0E3000
073000
063000
063000
063000
063060
063060
0630C0
063180
0C3300
0C2E00
187800
303000
600000
000000
000000
ENDCHAR

STARTCHAR jisx0208_256C
ENCODING 9580
SWIDTH 960 0
DWIDTH 20 0
BBX 20 20 0 -2
BITMAP
000000
000000
0E0000
070000
060000
060000
060000
060000
060000
060000
0600C0
060180
060300
060600
061C00
067000
0FC000
060000
000000
000000
ENDCHAR

STARTCHAR jisx0208_256D
ENCODING 9581
SWIDTH 960 0
DWIDTH 20 0
BBX 20 20 0 -2
BITMAP
000000
000000
000000
000000
1C0180
0FFFC0
0C0180
0C0180
0C0180
0C0180
0C0300
0C0300
0C0300
0C0300
0FFF80
0C0000
000000
000000
000000
000000
ENDCHAR

STARTCHAR jisx0208_256E
ENCODING 9582
SWIDTH 960 0
DWIDTH 20 0
BBX 20 20 0 -2
BITMAP
000000
000000
000000
000000
000000
000000
0C0300
07FF80
060300
060300
060300
060300
060600
000600
000C00
001800
003000
00E000
000000
000000
ENDCHAR

STARTCHAR jisx0208_256F
ENCODING 9583
SWIDTH 960 0
DWIDTH 20 0
BBX 20 20 0 -2
BITMAP
000000
000000
000000
380180
1FFFC0
180180
180180
180180
180300
180300
180300
000600
000600
000C00
001800
003000
00E000
038000
000000
000000
ENDCHAR

STARTCHAR jisx0208_2570
ENCODING 9584
SWIDTH 960 0
DWIDTH 20 0
BBX 20 20 0 -2
BITMAP
000000
007000
003800
003000
303180
3FFFC0
1630C0
073000
063000
063000
6630C0
7FFFE0
303060
003000
003000
003000
003000
003000
003000
000000
ENDCHAR

STARTCHAR jisx0208_2571
ENCODING 9585
SWIDTH 960 0
DWIDTH 20 0
BBX 20 20 0 -2
BITMAP
000000
000000
000000
000000
180180
1FFFC0
0C0180
000300
00EE00
007800
006000
006000
006000
3060C0
3FFFE0
180060
000000
000000
000000
000000
ENDCHAR

STARTCHAR jisx0208_2572
ENCODING 9586
SWIDTH 960 0
DWIDTH 20 0
BBX 20 20 0 -2
BITMAP
000000
000000
180180
1FFFC0
0C0180
000180
000180
180180
1FFF80
0C0300
000300
000600
000600
000C00
001800
003000
00E000
078000
000000
000000
ENDCHAR

STARTCHAR jisx0208_2573
ENCODING 9587
SWIDTH 960 0
DWIDTH 20 0
BBX 20 20 0 -2
BITMAP
000000
000000
000000
180000
0E0000
070060
030060
0000C0
0000C0
000180
000300
000600
000C00
001800
003000
0CE000
0F8000
060000
000000
000000
ENDCHAR

STARTCHAR jisx0208_2574
ENCODING 9588
SWIDTH 960 0
DWIDTH 20 0
BBX 20 20 0 -2
BITMAP
000000
00E160
0070B0
006000
386180
1FFFC0
180180
180180
180180
180180
180300
180300
000300
000600
000C00
001800
007000
03C000
000000
000000
ENDCHAR

STARTCHAR jisx0208_2575
ENCODING 9589
SWIDTH 960 0
DWIDTH 20 0
BBX 20 20 0 -2
BITMAP
000000
000000
000000
000000
000000
000000
00E000
007000
006000
0C6300
0FFF80
06C300
00C300
018300
018300
030600
063600
0C1C00
001800
000000
ENDCHAR

STARTCHAR jisx0208_2576
ENCODING 9590
SWIDTH 960 0
DWIDTH 20 0
BBX 20 20 0 -2
BITMAP
000000
000000
000000
000000
000000
000000
038000
01C000
018000
030300
03FF80
061800
0C1C00
001800
001800
003000
003000
00E000
038000
000000
ENDCHAR

STARTCHAR jisx0208_2621
ENCODING 9761
SWIDTH 960 0
DWIDTH 20 0
BBX 20 20 0 -2
BITMAP
000000
000000
006000
006000
00B000
00B000
019800
019800
019800
030C00
030C00
060600
060600
07FE00
0C0300
0C0300
3F0FC0
000000
000000
000000
ENDCHAR

STARTCHAR jisx0208_2622
ENCODING 9762
SWIDTH 960 0
DWIDTH 20 0
BBX 20 20 0 -2
BITMAP
000000
000000
1FFC00
060600
060300
060300
060300
060300
060600
07FE00
060300
060180
060180
060180
060180
060300
1FFE00
000000
000000
000000
ENDCHAR

STARTCHAR jisx0208_2623
ENCODING 9763
SWIDTH 960 0
DWIDTH 20 0
BBX 20 20 0 -2
BITMAP
000000
000000
0FFF00
030300
030180
030180
030000
030000
030000
030000
030000
030000
030000
030000
030000
030000
0FE000
000000
000000
000000
ENDCHAR

STARTCHAR jisx0208_2624
ENCODING 9764
SWIDTH 960 0
DWIDTH 20 0
BBX 20 20 0 -2
BITMAP
000000
000000
006000
006000
00B000
00B000
019800
019800
019800
030C00
030C00
060600
060600
060600
0C0300
0C0300
1FFF80
000000
000000
000000
ENDCHAR

STARTCHAR jisx0208_2625
ENCODING 9765
SWIDTH 960 0
DWIDTH 20 0
BBX 20 20 0 -2
BITMAP
000000
000000
1FFE00
060600
060300
060300
060000
060C00
060C00
07FC00
060C00
060C00
060000
060180
060180
060300
1FFF00
000000
000000
000000
ENDCHAR

STARTCHAR jisx0208_2626
ENCODING 9766
SWIDTH 960 0
DWIDTH 20 0
BBX 20 20 0 -2
BITMAP
000000
000000
03FF80
030300
060600
060600
000C00
001800
003000
003000
006000
00C000
018000
018180
030180
060300
0FFF00
000000
000000
000000
ENDCHAR

STARTCHAR jisx0208_2627
ENCODING 9767
SWIDTH 960 0
DWIDTH 20 0
BBX 20 20 0 -2
BITMAP
000000
000000
3F0FC0
0C0300
0C0300
0C0300
0C0300
0C0300
0C0300
0FFF00
0C0300
0C0300
0C0300
0C0300
0C0300
0C0300
3F0FC0
000000
000000
000000
ENDCHAR

STARTCHAR jisx0208_2628
ENCODING 9768
SWIDTH 960 0
DWIDTH 20 0
BBX 20 20 0 -2
BITMAP
000000
000000
01F800
070E00
0C0300
0C0300
180180
1B0D80
1B0D80
1BFD80
1B0D80
1B0D80
180180
0C0300
0C0300
070E00
01F800
000000
000000
000000
ENDCHAR

STARTCHAR jisx0208_2629
ENCODING 9769
SWIDTH 960 0
DWIDTH 20 0
BBX 20 20 0 -2
BITMAP
000000
000000
01F800
006000
006000
006000
006000
006000
006000
006000
006000
006000
006000
006000
006000
006000
01F800
000000
000000
000000
ENDCHAR

STARTCHAR jisx0208_262A
ENCODING 9770
SWIDTH 960 0
DWIDTH 20 0
BBX 20 20 0 -2
BITMAP
000000
000000
3F1F80
0C0600
0C0C00
0C1800
0C3000
0C6000
0CE000
0DB000
0B3000
0E1800
0C0C00
0C0C00
0C0600
0C0300
3F0FC0
000000
000000
000000
ENDCHAR

STARTCHAR jisx0208_262B
ENCODING 9771
SWIDTH 960 0
DWIDTH 20 0
BBX 20 20 0 -2
BITMAP
000000
000000
006000
006000
00B000
00B000
019800
019800
019800
030C00
030C00
060600
060600
060600
0C0300
0C0300
3F0FC0
000000
000000
000000
ENDCHAR

STARTCHAR jisx0208_262C
ENCODING 9772
SWIDTH 960 0
DWIDTH 20 0
BBX 20 20 0 -2
BITMAP
000000
000000
7C03E0
1C0380
160580
160580
160580
1B0D80
1B0D80
199980
199980
199980
18B180
18B180
186180
186180
7E67E0
000000
000000
000000
ENDCHAR

STARTCHAR jisx0208_262D
ENCODING 9773
SWIDTH 960 0
DWIDTH 20 0
BBX 20 20 0 -2
BITMAP
000000
000000
3E0FC0
0E0300
0B0300
0D8300
0D8300
0CC300
0C6300
0C6300
0C3300
0C1B00
0C1B00
0C0B00
0C0700
0C0700
3F0300
000000
000000
000000
ENDCHAR

STARTCHAR jisx0208_262E
ENCODING 9774
SWIDTH 960 0
DWIDTH 20 0
BBX 20 20 0 -2
BITMAP
000000
000000
0FFF00
0C0300
180180
180180
000000
060600
060600
07FE00
060600
060600
000000
180180
180180
0C0300
0FFF00
000000
000000
000000
ENDCHAR

STARTCHAR jisx0208_262F
ENCODING 9775
SWIDTH 960 0
DWIDTH 20 0
BBX 20 20 0 -2
BITMAP
000000
000000
01F800
070E00
0C0300
0C0300
180180
180180
180180
180180
180180
180180
180180
0C0300
0C0300
070E00
01F800
000000
000000
000000
ENDCHAR

STARTCHAR jisx0208_2630
ENCODING 9776
SWIDTH 960 0
DWIDTH 20 0
BBX 20 20 0 -2
BITMAP
000000
000000
3FFFC0
0C0300
0C0300
0C0300
0C0300
0C0300
0C0300
0C0300
0C0300
0C0300
0C0300
0C0300
0C0300
0C0300
3F0FC0
000000
000000
000000
ENDCHAR

STARTCHAR jisx0208_2631
ENCODING 9777
SWIDTH 960 0
DWIDTH 20 0
BBX 20 20 0 -2
BITMAP
000000
000000
0FFE00
030300
030180
030180
030180
030180
030180
030300
03FE00
030000
030000
030000
030000
030000
0FE000
000000
000000
000000
ENDCHAR

STARTCHAR jisx0208_2632
ENCODING 9778
SWIDTH 960 0
DWIDTH 20 0
BBX 20 20 0 -2
BITMAP
000000
000000
1FFE00
0C0600
060300
030300
018000
00C000
006000
003000
006000
00C000
018000
030180
060180
0C0300
1FFF00
000000
000000
000000
ENDCHAR

STARTCHAR jisx0208_2633
ENCODING 9779
SWIDTH 960 0
DWIDTH 20 0
BBX 20 20 0 -2
BITMAP
000000
000000
0FFF00
0C6300
186180
186180
006000
006000
006000
006000
006000
006000
006000
006000
006000
006000
01F800
000000
000000
000000
ENDCHAR

STARTCHAR jisx0208_2634
ENCODING 9780
SWIDTH 960 0
DWIDTH 20 0
BBX 20 20 0 -2
BITMAP
000000
000000
079E00
0CB300
186180
186180
006000
006000
006000
006000
006000
006000
006000
006000
006000
006000
01F800
000000
000000
000000
ENDCHAR

STARTCHAR jisx0208_2635
ENCODING 9781
SWIDTH 960 0
DWIDTH 20 0
BBX 20 20 0 -2
BITMAP
000000
000000
01F800
006000
03FC00
0E6700
0C6300
186180
186180
186180
186180
186180
0C6300
0E6700
03FC00
006000
01F800
000000
000000
000000
ENDCHAR

STARTCHAR jisx0208_2636
ENCODING 9782
SWIDTH 960 0
DWIDTH 20 0
BBX 20 20 0 -2
BITMAP
000000
000000
1F8FC0
060300
030600
018C00
018C00
00D800
007000
007000
007000
00D800
018C00
018C00
030600
060300
1F8FC0
000000
000000
000000
ENDCHAR

STARTCHAR jisx0208_2637
ENCODING 9783
SWIDTH 960 0
DWIDTH 20 0
BBX 20 20 0 -2
BITMAP
000000
000000
3DFBC0
0C6300
0C6300
0C6300
0C6300
0C6300
0C6300
0C6300
0C6300
066600
076E00
01F800
006000
006000
01F800
000000
000000
000000
ENDCHAR

STARTCHAR jisx0208_2638
ENCODING 9784
SWIDTH 960 0
DWIDTH 20 0
BBX 20 20 0 -2
BITMAP
000000
000000
00F800
038E00
060300
060300
0C0180
0C0180
0C0180
0C0180
060300
060300
030600
018C00
0CD980
0CD980
0FDF80
000000
000000
000000
ENDCHAR

STARTCHAR jisx0208_2641
ENCODING 9793
SWIDTH 960 0
DWIDTH 20 0
BBX 20 20 0 -2
BITMAP
000000
000000
000000
000000
000000
000000
00F180
019980
030D80
060B00
060B00
0C0E00
0C0E00
0C0C00
0C1D80
062D80
03E700
000000
000000
000000
ENDCHAR

STARTCHAR jisx0208_2642
ENCODING 9794
SWIDTH 960 0
DWIDTH 20 0
BBX 20 20 0 -2
BITMAP
000000
000000
003E00
00E300
00C180
018180
018180
018300
037E00
030600
030300
060300
060300
060300
070300
0D8600
0CFC00
0C0000
3F0000
000000
ENDCHAR

STARTCHAR jisx0208_2643
ENCODING 9795
SWIDTH 960 0
DWIDTH 20 0
BBX 20 20 0 -2
BITMAP
000000
000000
000000
000000
000000
000000
07C3C0
0C6E00
005800
007000
006000
006000
00C000
00C000
00C000
018000
018000
018000
07E000
000000
ENDCHAR

STARTCHAR jisx0208_2644
ENCODING 9796
SWIDTH 960 0
DWIDTH 20 0
BBX 20 20 0 -2
BITMAP
000000
000000
007F00
00C380
00C380
006000
00FC00
018600
030300
060300
060300
0C0300
0C0600
0C0600
0C0C00
061800
03F000
000000
000000
000000
ENDCHAR

STARTCHAR jisx0208_2645
ENCODING 9797
SWIDTH 960 0
DWIDTH 20 0
BBX 20 20 0 -2
BITMAP
000000
000000
000000
000000
000000
000000
00FE00
018700
030700
030000
01F800
030000
060000
0C0300
0C0300
060600
03FC00
000000
000000
000000
ENDCHAR

STARTCHAR jisx0208_2646
ENCODING 9798
SWIDTH 960 0
DWIDTH 20 0
BBX 20 20 0 -2
BITMAP
000000
000000
01C300
01CE00
00F800
003000
006000
00C000
018000
030000
030000
060000
060000
060000
030000
01FC00
000600
030600
01FC00
000000
ENDCHAR

STARTCHAR jisx0208_2647
ENCODING 9799
SWIDTH 960 0
DWIDTH 20 0
BBX 20 20 0 -2
BITMAP
000000
000000
000000
000000
000000
000000
07BF00
0CE180
00C180
018180
018300
030300
030300
030600
060600
060600
1F8C00
000C00
003F00
000000
ENDCHAR

STARTCHAR jisx0208_2648
ENCODING 9800
SWIDTH 960 0
DWIDTH 20 0
BBX 20 20 0 -2
BITMAP
000000
000000
00FC00
018600
030300
030300
060300
060300
060300
0FFF00
0C0600
0C0600
0C0600
0C0C00
0C0C00
061800
03F000
000000
000000
000000
ENDCHAR

STARTCHAR jisx0208_2649
ENCODING 9801
SWIDTH 960 0
DWIDTH 20 0
BBX 20 20 0 -2
BITMAP
000000
000000
000000
000000
000000
000000
01E000
006000
006000
006000
00C000
00C000
00C000
018000
018C00
019800
00F000
000000
000000
000000
ENDCHAR

STARTCHAR jisx0208_264A
ENCODING 9802
SWIDTH 960 0
DWIDTH 20 0
BBX 20 20 0 -2
BITMAP
000000
000000
000000
000000
000000
000000
03C780
00CB80
019800
01B000
01E000
033000
031800
031800
061980
061B00
1F8E00
000000
000000
000000
ENDCHAR

STARTCHAR jisx0208_264B
ENCODING 9803
SWIDTH 960 0
DWIDTH 20 0
BBX 20 20 0 -2
BITMAP
000000
000000
00F000
01D800
01D800
001800
001800
001800
003800
006C00
00CC00
00CC00
018C00
030C00
030C00
060D80
1F8700
000000
000000
000000
ENDCHAR

STARTCHAR jisx0208_264C
ENCODING 9804
SWIDTH 960 0
DWIDTH 20 0
BBX 20 20 0 -2
BITMAP
000000
000000
000000
000000
000000
000000
018300
018300
018300
030600
030600
030600
060C00
060C00
060C00
071D80
0DF700
0C0000
3C0000
000000
ENDCHAR

STARTCHAR jisx0208_264D
ENCODING 9805
SWIDTH 960 0
DWIDTH 20 0
BBX 20 20 0 -2
BITMAP
000000
000000
000000
000000
000000
000000
060700
030700
030300
018600
018600
018C00
019800
01B000
016000
01C000
018000
000000
000000
000000
ENDCHAR

STARTCHAR jisx0208_264E
ENCODING 9806
SWIDTH 960 0
DWIDTH 20 0
BBX 20 20 0 -2
BITMAP
000000
000000
00E000
00E000
007E00
00C000
018000
018000
018000
00FC00
018000
030000
060000
060000
060000
03FC00
000600
018600
00FC00
000000
ENDCHAR

STARTCHAR jisx0208_264F
ENCODING 9807
SWIDTH 960 0
DWIDTH 20 0
BBX 20 20 0 -2
BITMAP
000000
000000
000000
000000
000000
000000
00FC00
018600
030300
060300
060300
0C0300
0C0600
0C0600
0C0C00
061800
03F000
000000
000000
000000
ENDCHAR

STARTCHAR jisx0208_2650
ENCODING 9808
SWIDTH 960 0
DWIDTH 20 0
BBX 20 20 0 -2
BITMAP
000000
000000
000000
000000
000000
0000C0
07FF80
0CCC00
00CC00
00CC00
019800
019800
019800
033000
033180
363300
3C1E00
000000
000000
000000
ENDCHAR

STARTCHAR jisx0208_2651
ENCODING 9809
SWIDTH 960 0
DWIDTH 20 0
BBX 20 20 0 -2
BITMAP
000000
000000
000000
000000
000000
000000
007E00
00C300
018180
030180
030180
060180
060300
060300
0E0600
0B0C00
0DF800
0C0000
3F0000
000000
ENDCHAR

STARTCHAR jisx0208_2652
ENCODING 9810
SWIDTH 960 0
DWIDTH 20 0
BBX 20 20 0 -2
BITMAP
000000
000000
000000
000000
000000
0000C0
00FF80
018600
030300
060300
060300
0C0300
0C0600
0C0600
0C0C00
061800
03F000
000000
000000
000000
ENDCHAR

STARTCHAR jisx0208_2653
ENCODING 9811
SWIDTH 960 0
DWIDTH 20 0
BBX 20 20 0 -2
BITMAP
000000
000000
000000
000000
000000
000300
03FE00
066000
006000
006000
00C000
00C000
00C000
018000
018C00
019800
00F000
000000
000000
000000
ENDCHAR

STARTCHAR jisx0208_2654
ENCODING 9812
SWIDTH 960 0
DWIDTH 20 0
BBX 20 20 0 -2
BITMAP
000000
000000
000000
000000
000000
000000
060C00
030600
030300
030300
030300
060300
060600
060600
060C00
061800
03F000
000000
000000
000000
ENDCHAR

STARTCHAR jisx0208_2655
ENCODING 9813
SWIDTH 960 0
DWIDTH 20 0
BBX 20 20 0 -2
BITMAP
000000
000000
000000
007800
001800
001800
00FC00
03B600
063300
063300
0C6300
0C6300
0C6600
0CC600
06DC00
03F000
018000
018000
07E000
000000
ENDCHAR

STARTCHAR jisx0208_2656
ENCODING 9814
SWIDTH 960 0
DWIDTH 20 0
BBX 20 20 0 -2
BITMAP
000000
000000
000000
000000
000000
000000
078FC0
0EC300
0EC600
006C00
005800
007000
006000
00B000
01B000
033000
061980
0C1B00
3F0E00
000000
ENDCHAR

STARTCHAR jisx0208_2657
ENCODING 9815
SWIDTH 960 0
DWIDTH 20 0
BBX 20 20 0 -2
BITMAP
000000
000000
000000
000000
000000
000000
073B00
0D9980
019980
019980
033180
033300
063300
066600
066C00
03F800
00C000
00C000
03F000
000000
ENDCHAR

STARTCHAR jisx0208_2658
ENCODING 9816
SWIDTH 960 0
DWIDTH 20 0
BBX 20 20 0 -2
BITMAP
000000
000000
000000
000000
000000
000000
018600
030300
060300
0C3180
0C3180
183180
186180
186180
186300
0CE600
07BC00
000000
000000
000000
ENDCHAR

STARTCHAR jisx0208_2721
ENCODING 10017
SWIDTH 960 0
DWIDTH 20 0
BBX 20 20 0 -2
BITMAP
000000
000000
006000
006000
00B000
00B000
019800
019800
019800
030C00
030C00
060600
07FE00
060600
0C0300
0C0300
3F0FC0
000000
000000
000000
ENDCHAR

STARTCHAR jisx0208_2722
ENCODING 10018
SWIDTH 960 0
DWIDTH 20 0
BBX 20 20 0 -2
BITMAP
000000
000000
1FFE00
060600
060300
060300
060000
060000
060000
07FE00
060300
060180
060180
060180
060180
060300
1FFE00
000000
000000
000000
ENDCHAR

STARTCHAR jisx0208_2723
ENCODING 10019
SWIDTH 960 0
DWIDTH 20 0
BBX 20 20 0 -2
BITMAP
000000
000000
1FFC00
060600
060300
060300
060300
060300
060600
07FE00
060300
060180
060180
060180
060180
060300
1FFE00
000000
000000
000000
ENDCHAR

STARTCHAR jisx0208_2724
ENCODING 10020
SWIDTH 960 0
DWIDTH 20 0
BBX 20 20 0 -2
BITMAP
000000
000000
0FFF00
030300
030180
030180
030000
030000
030000
030000
030000
030000
030000
030000
030000
030000
0FC000
000000
000000
000000
ENDCHAR

STARTCHAR jisx0208_2725
ENCODING 10021
SWIDTH 960 0
DWIDTH 20 0
BBX 20 20 0 -2
BITMAP
000000
000000
0FFF80
030600
030600
030600
030600
030600
030600
030600
030600
030600
030600
030600
060600
060600
1FFF80
180180
3000C0
000000
ENDCHAR

STARTCHAR jisx0208_2726
ENCODING 10022
SWIDTH 960 0
DWIDTH 20 0
BBX 20 20 0 -2
BITMAP
000000
000000
1FFE00
060600
060300
060300
060000
060C00
060C00
07FC00
060C00
060C00
060000
060180
060180
060300
1FFF00
000000
000000
000000
ENDCHAR

STARTCHAR jisx0208_2727
ENCODING 10023
SWIDTH 960 0
DWIDTH 20 0
BBX 20 20 0 -2
BITMAP
000000
039C00
039C00
000000
1FFE00
060600
060300
060300
061800
061800
07F800
061800
061800
060180
060180
060300
1FFF00
000000
000000
000000
ENDCHAR

STARTCHAR jisx0208_2728
ENCODING 10024
SWIDTH 960 0
DWIDTH 20 0
BBX 20 20 0 -2
BITMAP
000000
000000
7DFBE0
186180
0C6300
0C6300
066600
066600
03FC00
036C00
066600
066600
0C6300
0C6300
186180
186180
7DFBE0
000000
000000
000000
ENDCHAR

STARTCHAR jisx0208_2729
ENCODING 10025
SWIDTH 960 0
DWIDTH 20 0
BBX 20 20 0 -2
BITMAP
000000
000000
05FC00
070600
060300
0C0300
0C0300
000600
00FC00
000700
000300
000180
000180
180180
0C0300
070700
01FC00
000000
000000
000000
ENDCHAR

STARTCHAR jisx0208_272A
ENCODING 10026
SWIDTH 960 0
DWIDTH 20 0
BBX 20 20 0 -2
BITMAP
000000
000000
3F07C0
0C0700
0C0B00
0C1B00
0C1B00
0C3300
0C6300
0C6300
0CC300
0D8300
0D8300
0B0300
0E0300
0E0300
3C0FC0
000000
000000
000000
ENDCHAR

STARTCHAR jisx0208_272B
ENCODING 10027
SWIDTH 960 0
DWIDTH 20 0
BBX 20 20 0 -2
BITMAP
000000
01DC00
01DC00
3EF7C0
0C0700
0C0B00
0C1B00
0C1B00
0C3300
0C6300
0C6300
0CC300
0D8300
0D8300
0B0300
0E0300
3E0FC0
000000
000000
000000
ENDCHAR

STARTCHAR jisx0208_272C
ENCODING 10028
SWIDTH 960 0
DWIDTH 20 0
BBX 20 20 0 -2
BITMAP
000000
000000
1F9F80
060600
060C00
060C00
061800
063000
07F000
063000
061800
061800
060C00
060600
060600
060300
1F8FC0
000000
000000
000000
ENDCHAR

STARTCHAR jisx0208_272D
ENCODING 10029
SWIDTH 960 0
DWIDTH 20 0
BBX 20 20 0 -2
BITMAP
000000
000000
03FF80
00C600
00C600
00C600
00C600
00C600
00C600
00C600
00C600
00C600
00C600
0EC600
0EC600
0CC600
079F80
000000
000000
000000
ENDCHAR

STARTCHAR jisx0208_272E
ENCODING 10030
SWIDTH 960 0
DWIDTH 20 0
BBX 20 20 0 -2
BITMAP
000000
000000
7C03E0
1C0380
160580
160580
160580
1B0D80
1B0D80
199980
199980
199980
18B180
18B180
186180
186180
7E67E0
000000
000000
000000
ENDCHAR

STARTCHAR jisx0208_272F
ENCODING 10031
SWIDTH 960 0
DWIDTH 20 0
BBX 20 20 0 -2
BITMAP
000000
000000
3F0FC0
0C0300
0C0300
0C0300
0C0300
0C0300
0C0300
0FFF00
0C0300
0C0300
0C0300
0C0300
0C0300
0C0300
3F0FC0
000000
000000
000000
ENDCHAR

STARTCHAR jisx0208_2730
ENCODING 10032
SWIDTH 960 0
DWIDTH 20 0
BBX 20 20 0 -2
BITMAP
000000
000000
01F800
070E00
0C0300
0C0300
180180
180180
180180
180180
180180
180180
180180
0C0300
0C0300
070E00
01F800
000000
000000
000000
ENDCHAR

STARTCHAR jisx0208_2731
ENCODING 10033
SWIDTH 960 0
DWIDTH 20 0
BBX 20 20 0 -2
BITMAP
000000
000000
3FFFC0
0C0300
0C0300
0C0300
0C0300
0C0300
0C0300
0C0300
0C0300
0C0300
0C0300
0C0300
0C0300
0C0300
3F0FC0
000000
000000
000000
ENDCHAR

STARTCHAR jisx0208_2732
ENCODING 10034
SWIDTH 960 0
DWIDTH 20 0
BBX 20 20 0 -2
BITMAP
000000
000000
0FFE00
030300
030180
030180
030180
030180
030180
030300
03FE00
030000
030000
030000
030000
030000
0FE000
000000
000000
000000
ENDCHAR

STARTCHAR jisx0208_2733
ENCODING 10035
SWIDTH 960 0
DWIDTH 20 0
BBX 20 20 0 -2
BITMAP
000000
000000
01FB00
070F00
0C0300
0C0180
180180
180000
180000
180000
180000
180000
180180
0C0180
0C0300
070700
01FC00
000000
000000
000000
ENDCHAR

STARTCHAR jisx0208_2734
ENCODING 10036
SWIDTH 960 0
DWIDTH 20 0
BBX 20 20 0 -2
BITMAP
000000
000000
0FFF00
0C6300
186180
186180
006000
006000
006000
006000
006000
006000
006000
006000
006000
006000
01F800
000000
000000
000000
ENDCHAR

STARTCHAR jisx0208_2735
ENCODING 10037
SWIDTH 960 0
DWIDTH 20 0
BBX 20 20 0 -2
BITMAP
000000
000000
1F9F80
060600
060600
030C00
030C00
030C00
019800
019800
00B000
00B000
006000
006000
0EC000
0EC000
078000
000000
000000
000000
ENDCHAR

STARTCHAR jisx0208_2736
ENCODING 10038
SWIDTH 960 0
DWIDTH 20 0
BBX 20 20 0 -2
BITMAP
000000
000000
01F800
006000
03FC00
0E6700
0C6300
186180
186180
186180
186180
186180
0C6300
0E6700
03FC00
006000
01F800
000000
000000
000000
ENDCHAR

STARTCHAR jisx0208_2737
ENCODING 10039
SWIDTH 960 0
DWIDTH 20 0
BBX 20 20 0 -2
BITMAP
000000
000000
1F8FC0
060300
030600
018C00
018C00
00D800
007000
007000
007000
00D800
018C00
018C00
030600
060300
1F8FC0
000000
000000
000000
ENDCHAR

STARTCHAR jisx0208_2738
ENCODING 10040
SWIDTH 960 0
DWIDTH 20 0
BBX 20 20 0 -2
BITMAP
000000
000000
1F8FC0
060300
060300
060300
060300
060300
060300
060300
060300
060300
060300
060300
060300
060300
1FFFC0
0000C0
000060
000000
ENDCHAR

STARTCHAR jisx0208_2739
ENCODING 10041
SWIDTH 960 0
DWIDTH 20 0
BBX 20 20 0 -2
BITMAP
000000
000000
1F9F80
060600
060600
060600
060600
060600
060600
060600
060E00
031600
01F600
000600
000600
000600
001F80
000000
000000
000000
ENDCHAR

STARTCHAR jisx0208_273A
ENCODING 10042
SWIDTH 960 0
DWIDTH 20 0
BBX 20 20 0 -2
BITMAP
000000
000000
7DF7E0
186180
186180
186180
186180
186180
186180
186180
186180
186180
186180
186180
186180
186180
7FFFE0
000000
000000
000000
ENDCHAR

STARTCHAR jisx0208_273B
ENCODING 10043
SWIDTH 960 0
DWIDTH 20 0
BBX 20 20 0 -2
BITMAP
000000
000000
7DF7E0
186180
186180
186180
186180
186180
186180
186180
186180
186180
186180
186180
186180
186180
7FFFE0
000060
000030
000000
ENDCHAR

STARTCHAR jisx0208_273C
ENCODING 10044
SWIDTH 960 0
DWIDTH 20 0
BBX 20 20 0 -2
BITMAP
000000
000000
0FE000
0D8000
198000
198000
018000
01FE00
018380
018180
0180C0
0180C0
0180C0
0180C0
018180
018380
07FE00
000000
000000
000000
ENDCHAR

STARTCHAR jisx0208_273D
ENCODING 10045
SWIDTH 960 0
DWIDTH 20 0
BBX 20 20 0 -2
BITMAP
000000
000000
3F07E0
0C0180
0C0180
0C0180
0C0180
0FE180
0C3980
0C1980
0C0D80
0C0D80
0C0D80
0C0D80
0C1980
0C3980
3FE7E0
000000
000000
000000
ENDCHAR

STARTCHAR jisx0208_273E
ENCODING 10046
SWIDTH 960 0
DWIDTH 20 0
BBX 20 20 0 -2
BITMAP
000000
000000
0FC000
030000
030000
030000
030000
03FC00
030700
030300
030180
030180
030180
030180
030300
030700
0FFC00
000000
000000
000000
ENDCHAR

STARTCHAR jisx0208_273F
ENCODING 10047
SWIDTH 960 0
DWIDTH 20 0
BBX 20 20 0 -2
BITMAP
000000
000000
0DF800
0F0E00
0C0300
180300
180180
000180
000180
03FF80
000180
000180
000180
180300
0C0300
0E0E00
03F800
000000
000000
000000
ENDCHAR

STARTCHAR jisx0208_2740
ENCODING 10048
SWIDTH 960 0
DWIDTH 20 0
BBX 20 20 0 -2
BITMAP
000000
000000
3F1F00
0C71C0
0C60C0
0CC060
0CC060
0CC060
0CC060
0FC060
0CC060
0CC060
0CC060
0CC060
0C60C0
0C71C0
3F1F00
000000
000000
000000
ENDCHAR

STARTCHAR jisx0208_2741
ENCODING 10049
SWIDTH 960 0
DWIDTH 20 0
BBX 20 20 0 -2
BITMAP
000000
000000
01FFC0
030300
060300
060300
060300
060300
030300
01FF00
018300
030300
030300
030300
030300
1B0300
0E0FC0
000000
000000
000000
ENDCHAR

STARTCHAR jisx0208_2751
ENCODING 10065
SWIDTH 960 0
DWIDTH 20 0
BBX 20 20 0 -2
BITMAP
000000
000000
000000
000000
000000
000000
01FC00
038600
038600
001E00
00F600
038600
060600
060600
060E00
031D80
01F700
000000
000000
000000
ENDCHAR

STARTCHAR jisx0208_2752
ENCODING 10066
SWIDTH 960 0
DWIDTH 20 0
BBX 20 20 0 -2
BITMAP
000000
000000
00F300
039E00
030000
060000
06F800
078E00
070600
060300
060300
060300
060300
060300
030600
038E00
00F800
000000
000000
000000
ENDCHAR

STARTCHAR jisx0208_2753
ENCODING 10067
SWIDTH 960 0
DWIDTH 20 0
BBX 20 20 0 -2
BITMAP
000000
000000
000000
000000
000000
000000
0FFC00
030600
030600
030600
030600
03FE00
030300
030300
030300
030300
0FFE00
000000
000000
000000
ENDCHAR

STARTCHAR jisx0208_2754
ENCODING 10068
SWIDTH 960 0
DWIDTH 20 0
BBX 20 20 0 -2
BITMAP
000000
000000
000000
000000
000000
000000
07FE00
018600
018300
018000
018000
018000
018000
018000
018000
018000
07E000
000000
000000
000000
ENDCHAR

STARTCHAR jisx0208_2755
ENCODING 10069
SWIDTH 960 0
DWIDTH 20 0
BBX 20 20 0 -2
BITMAP
000000
000000
000000
000000
000000
000000
07FF00
018C00
018C00
018C00
018C00
018C00
018C00
018C00
030C00
030C00
0FFF00
0C0300
180180
000000
ENDCHAR

STARTCHAR jisx0208_2756
ENCODING 10070
SWIDTH 960 0
DWIDTH 20 0
BBX 20 20 0 -2
BITMAP
000000
000000
000000
000000
000000
000000
00F800
038E00
030600
060300
060300
07FF00
060000
060000
030300
038600
00FC00
000000
000000
000000
ENDCHAR

STARTCHAR jisx0208_2757
ENCODING 10071
SWIDTH 960 0
DWIDTH 20 0
BBX 20 20 0 -2
BITMAP
000000
000000
000000
01DC00
01DC00
000000
00F800
038E00
030600
060300
060300
07FF00
060000
060000
030300
038600
00FC00
000000
000000
000000
ENDCHAR

STARTCHAR jisx0208_2758
ENCODING 10072
SWIDTH 960 0
DWIDTH 20 0
BBX 20 20 0 -2
BITMAP
000000
000000
000000
000000
000000
000000
1EEF80
066600
036C00
036C00
015800
01F800
036C00
036C00
066600
066600
1EEF80
000000
000000
000000
ENDCHAR

STARTCHAR jisx0208_2759
ENCODING 10073
SWIDTH 960 0
DWIDTH 20 0
BBX 20 20 0 -2
BITMAP
000000
000000
000000
000000
000000
000000
05F800
070C00
060600
060600
000C00
01FC00
000600
000600
060600
030C00
01F800
000000
000000
000000
ENDCHAR

STARTCHAR jisx0208_275A
ENCODING 10074
SWIDTH 960 0
DWIDTH 20 0
BBX 20 20 0 -2
BITMAP
000000
000000
000000
000000
000000
000000
1F8780
060E00
061600
063600
063600
066600
06C600
058600
058600
070600
1E1F80
000000
000000
000000
ENDCHAR

STARTCHAR jisx0208_275B
ENCODING 10075
SWIDTH 960 0
DWIDTH 20 0
BBX 20 20 0 -2
BITMAP
000000
000000
000000
01DC00
01DC00
00F800
1F8780
060E00
061600
063600
063600
066600
06C600
058600
058600
070600
1E1F80
000000
000000
000000
ENDCHAR

STARTCHAR jisx0208_275C
ENCODING 10076
SWIDTH 960 0
DWIDTH 20 0
BBX 20 20 0 -2
BITMAP
000000
000000
000000
000000
000000
000000
0FDF00
030C00
030C00
031800
031800
03F000
031800
030C00
030C00
030600
0FDF80
000000
000000
000000
ENDCHAR

STARTCHAR jisx0208_275D
ENCODING 10077
SWIDTH 960 0
DWIDTH 20 0
BBX 20 20 0 -2
BITMAP
000000
000000
000000
000000
000000
000000
03FF00
00CC00
00CC00
00CC00
00CC00
00CC00
00CC00
00CC00
0ECC00
0ECC00
07BF00
000000
000000
000000
ENDCHAR

STARTCHAR jisx0208_275E
ENCODING 10078
SWIDTH 960 0
DWIDTH 20 0
BBX 20 20 0 -2
BITMAP
000000
000000
000000
000000
000000
000000
1F07C0
070700
058B00
058B00
058B00
06DB00
06DB00
06DB00
067300
067300
1F77C0
000000
000000
000000
ENDCHAR

STARTCHAR jisx0208_275F
ENCODING 10079
SWIDTH 960 0
DWIDTH 20 0
BBX 20 20 0 -2
BITMAP
000000
000000
000000
000000
000000
000000
1F9F80
060600
060600
060600
060600
07FE00
060600
060600
060600
060600
1F9F80
000000
000000
000000
ENDCHAR

STARTCHAR jisx0208_2760
ENCODING 10080
SWIDTH 960 0
DWIDTH 20 0
BBX 20 20 0 -2
BITMAP
000000
000000
000000
000000
000000
000000
00F800
038E00
030600
060300
060300
060300
060300
060300
030600
038E00
00F800
000000
000000
000000
ENDCHAR

STARTCHAR jisx0208_2761
ENCODING 10081
SWIDTH 960 0
DWIDTH 20 0
BBX 20 20 0 -2
BITMAP
000000
000000
000000
000000
000000
000000
1FFF00
060C00
060C00
060C00
060C00
060C00
060C00
060C00
060C00
060C00
1FBF00
000000
000000
000000
ENDCHAR

STARTCHAR jisx0208_2762
ENCODING 10082
SWIDTH 960 0
DWIDTH 20 0
BBX 20 20 0 -2
BITMAP
000000
000000
000000
000000
000000
000000
0F7800
03CE00
038600
030300
030300
030300
030300
038600
03CE00
037800
030000
030000
0FC000
000000
ENDCHAR

STARTCHAR jisx0208_2763
ENCODING 10083
SWIDTH 960 0
DWIDTH 20 0
BBX 20 20 0 -2
BITMAP
000000
000000
000000
000000
000000
000000
00F800
038E00
030700
060700
060000
060000
060000
060000
030300
038600
00FC00
000000
000000
000000
ENDCHAR

STARTCHAR jisx0208_2764
ENCODING 10084
SWIDTH 960 0
DWIDTH 20 0
BBX 20 20 0 -2
BITMAP
000000
000000
000000
000000
000000
000000
07FE00
066600
0C6300
006000
006000
006000
006000
006000
006000
006000
01F800
000000
000000
000000
ENDCHAR

STARTCHAR jisx0208_2765
ENCODING 10085
SWIDTH 960 0
DWIDTH 20 0
BBX 20 20 0 -2
BITMAP
000000
000000
000000
000000
000000
000000
1F9F80
060600
030C00
030C00
019800
019800
00B000
00B000
006000
006000
0EC000
0EC000
078000
000000
ENDCHAR

STARTCHAR jisx0208_2766
ENCODING 10086
SWIDTH 960 0
DWIDTH 20 0
BBX 20 20 0 -2
BITMAP
000000
000000
01E000
006000
006000
006000
075E00
0CF300
186180
186180
186180
186180
186180
186180
0CF300
075E00
006000
006000
01F800
000000
ENDCHAR

STARTCHAR jisx0208_2767
ENCODING 10087
SWIDTH 960 0
DWIDTH 20 0
BBX 20 20 0 -2
BITMAP
000000
000000
000000
000000
000000
000000
0FDF80
030600
018C00
00D800
007000
007000
007000
00D800
018C00
030600
0FDF80
000000
000000
000000
ENDCHAR

STARTCHAR jisx0208_2768
ENCODING 10088
SWIDTH 960 0
DWIDTH 20 0
BBX 20 20 0 -2
BITMAP
000000
000000
000000
000000
000000
000000
0FDF80
030600
030600
030600
030600
030600
030600
030600
030600
030600
0FFF80
000180
0000C0
000000
ENDCHAR

STARTCHAR jisx0208_2769
ENCODING 10089
SWIDTH 960 0
DWIDTH 20 0
BBX 20 20 0 -2
BITMAP
000000
000000
000000
000000
000000
000000
1FBF00
060C00
060C00
060C00
060C00
060C00
031C00
01EC00
000C00
000C00
003F00
000000
000000
000000
ENDCHAR

STARTCHAR jisx0208_276A
ENCODING 10090
SWIDTH 960 0
DWIDTH 20 0
BBX 20 20 0 -2
BITMAP
000000
000000
000000
000000
000000
000000
3EF7C0
0C6300
0C6300
0C6300
0C6300
0C6300
0C6300
0C6300
0C6300
0C6300
3FFFC0
000000
000000
000000
ENDCHAR

STARTCHAR jisx0208_276B
ENCODING 10091
SWIDTH 960 0
DWIDTH 20 0
BBX 20 20 0 -2
BITMAP
000000
000000
000000
000000
000000
000000
3EF7C0
0C6300
0C6300
0C6300
0C6300
0C6300
0C6300
0C6300
0C6300
0C6300
3FFFC0
0000C0
000060
000000
ENDCHAR

STARTCHAR jisx0208_276C
ENCODING 10092
SWIDTH 960 0
DWIDTH 20 0
BBX 20 20 0 -2
BITMAP
000000
000000
000000
000000
000000
000000
07E000
058000
0D8000
018000
01FC00
018600
018300
018300
018300
018600
07FC00
000000
000000
000000
ENDCHAR

STARTCHAR jisx0208_276D
ENCODING 10093
SWIDTH 960 0
DWIDTH 20 0
BBX 20 20 0 -2
BITMAP
000000
000000
000000
000000
000000
000000
1F8FC0
060300
060300
060300
07E300
063300
061B00
061B00
061B00
063300
1FEFC0
000000
000000
000000
ENDCHAR

STARTCHAR jisx0208_276E
ENCODING 10094
SWIDTH 960 0
DWIDTH 20 0
BBX 20 20 0 -2
BITMAP
000000
000000
000000
000000
000000
000000
07E000
018000
018000
018000
01FC00
018600
018300
018300
018300
018600
07FC00
000000
000000
000000
ENDCHAR

STARTCHAR jisx0208_276F
ENCODING 10095
SWIDTH 960 0
DWIDTH 20 0
BBX 20 20 0 -2
BITMAP
000000
000000
000000
000000
000000
000000
00F800
038E00
070600
070300
000300
00FF00
000300
000300
060600
030E00
01F800
000000
000000
000000
ENDCHAR

STARTCHAR jisx0208_2770
ENCODING 10096
SWIDTH 960 0
DWIDTH 20 0
BBX 20 20 0 -2
BITMAP
000000
000000
000000
000000
000000
000000
1F9E00
063300
066180
066180
066180
07E180
066180
066180
066180
063300
1F9E00
000000
000000
000000
ENDCHAR

STARTCHAR jisx0208_2771
ENCODING 10097
SWIDTH 960 0
DWIDTH 20 0
BBX 20 20 0 -2
BITMAP
000000
000000
000000
000000
000000
000000
01FF80
030600
030600
030600
030600
01FE00
018600
030600
030600
0B0600
071F80
000000
000000
000000
ENDCHAR

STARTCHAR jisx0208_2821
ENCODING 10273
SWIDTH 960 0
DWIDTH 20 0
BBX 20 20 0 -2
BITMAP
000000
000000
000000
000000
000000
000000
000000
000000
000000
FFFFF0
000000
000000
000000
000000
000000
000000
000000
000000
000000
000000
ENDCHAR

STARTCHAR jisx0208_2822
ENCODING 10274
SWIDTH 960 0
DWIDTH 20 0
BBX 20 20 0 -2
BITMAP
006000
006000
006000
006000
006000
006000
006000
006000
006000
006000
006000
006000
006000
006000
006000
006000
006000
006000
006000
006000
ENDCHAR

STARTCHAR jisx0208_2823
ENCODING 10275
SWIDTH 960 0
DWIDTH 20 0
BBX 20 20 0 -2
BITMAP
000000
000000
000000
000000
000000
000000
000000
000000
000000
007FF0
006000
006000
006000
006000
006000
006000
006000
006000
006000
006000
ENDCHAR

STARTCHAR jisx0208_2824
ENCODING 10276
SWIDTH 960 0
DWIDTH 20 0
BBX 20 20 0 -2
BITMAP
000000
000000
000000
000000
000000
000000
000000
000000
000000
FFE000
006000
006000
006000
006000
006000
006000
006000
006000
006000
006000
ENDCHAR

STARTCHAR jisx0208_2825
ENCODING 10277
SWIDTH 960 0
DWIDTH 20 0
BBX 20 20 0 -2
BITMAP
006000
006000
006000
006000
006000
006000
006000
006000
006000
FFE000
000000
000000
000000
000000
000000
000000
000000
000000
000000
000000
ENDCHAR

STARTCHAR jisx0208_2826
ENCODING 10278
SWIDTH 960 0
DWIDTH 20 0
BBX 20 20 0 -2
BITMAP
006000
006000
006000
006000
006000
006000
006000
006000
006000
007FF0
000000
000000
000000
000000
000000
000000
000000
000000
000000
000000
ENDCHAR

STARTCHAR jisx0208_2827
ENCODING 10279
SWIDTH 960 0
DWIDTH 20 0
BBX 20 20 0 -2
BITMAP
006000
006000
006000
006000
006000
006000
006000
006000
006000
007FF0
006000
006000
006000
006000
006000
006000
006000
006000
006000
006000
ENDCHAR

STARTCHAR jisx0208_2828
ENCODING 10280
SWIDTH 960 0
DWIDTH 20 0
BBX 20 20 0 -2
BITMAP
000000
000000
000000
000000
000000
000000
000000
000000
000000
FFFFF0
006000
006000
006000
006000
006000
006000
006000
006000
006000
006000
ENDCHAR

STARTCHAR jisx0208_2829
ENCODING 10281
SWIDTH 960 0
DWIDTH 20 0
BBX 20 20 0 -2
BITMAP
006000
006000
006000
006000
006000
006000
006000
006000
006000
FFE000
006000
006000
006000
006000
006000
006000
006000
006000
006000
006000
ENDCHAR

STARTCHAR jisx0208_282A
ENCODING 10282
SWIDTH 960 0
DWIDTH 20 0
BBX 20 20 0 -2
BITMAP
006000
006000
006000
006000
006000
006000
006000
006000
006000
FFFFF0
000000
000000
000000
000000
000000
000000
000000
000000
000000
000000
ENDCHAR

STARTCHAR jisx0208_282B
ENCODING 10283
SWIDTH 960 0
DWIDTH 20 0
BBX 20 20 0 -2
BITMAP
006000
006000
006000
006000
006000
006000
006000
006000
006000
FFFFF0
006000
006000
006000
006000
006000
006000
006000
006000
006000
006000
ENDCHAR

STARTCHAR jisx0208_282C
ENCODING 10284
SWIDTH 960 0
DWIDTH 20 0
BBX 20 20 0 -2
BITMAP
000000
000000
000000
000000
000000
000000
000000
000000
000000
FFFFF0
FFFFF0
000000
000000
000000
000000
000000
000000
000000
000000
000000
ENDCHAR

STARTCHAR jisx0208_282D
ENCODING 10285
SWIDTH 960 0
DWIDTH 20 0
BBX 20 20 0 -2
BITMAP
007000
007000
007000
007000
007000
007000
007000
007000
007000
007000
007000
007000
007000
007000
007000
007000
007000
007000
007000
007000
ENDCHAR

STARTCHAR jisx0208_282E
ENCODING 10286
SWIDTH 960 0
DWIDTH 20 0
BBX 20 20 0 -2
BITMAP
000000
000000
000000
000000
000000
000000
000000
000000
000000
007FF0
007FF0
007000
007000
007000
007000
007000
007000
007000
007000
007000
ENDCHAR

STARTCHAR jisx0208_282F
ENCODING 10287
SWIDTH 960 0
DWIDTH 20 0
BBX 20 20 0 -2
BITMAP
000000
000000
000000
000000
000000
000000
000000
000000
000000
FFF000
FFF000
007000
007000
007000
007000
007000
007000
007000
007000
007000
ENDCHAR

STARTCHAR jisx0208_2830
ENCODING 10288
SWIDTH 960 0
DWIDTH 20 0
BBX 20 20 0 -2
BITMAP
007000
007000
007000
007000
007000
007000
007000
007000
007000
FFF000
FFF000
000000
000000
000000
000000
000000
000000
000000
000000
000000
ENDCHAR

STARTCHAR jisx0208_2831
ENCODING 10289
SWIDTH 960 0
DWIDTH 20 0
BBX 20 20 0 -2
BITMAP
007000
007000
007000
007000
007000
007000
007000
007000
007000
007FF0
007FF0
000000
000000
000000
000000
000000
000000
000000
000000
000000
ENDCHAR

STARTCHAR jisx0208_2832
ENCODING 10290
SWIDTH 960 0
DWIDTH 20 0
BBX 20 20 0 -2
BITMAP
007000
007000
007000
007000
007000
007000
007000
007000
007000
007FF0
007FF0
007000
007000
007000
007000
007000
007000
007000
007000
007000
ENDCHAR

STARTCHAR jisx0208_2833
ENCODING 10291
SWIDTH 960 0
DWIDTH 20 0
BBX 20 20 0 -2
BITMAP
000000
000000
000000
000000
000000
000000
000000
000000
000000
FFFFF0
FFFFF0
007000
007000
007000
007000
007000
007000
007000
007000
007000
ENDCHAR

STARTCHAR jisx0208_2834
ENCODING 10292
SWIDTH 960 0
DWIDTH 20 0
BBX 20 20 0 -2
BITMAP
007000
007000
007000
007000
007000
007000
007000
007000
007000
FFF000
FFF000
007000
007000
007000
007000
007000
007000
007000
007000
007000
ENDCHAR

STARTCHAR jisx0208_2835
ENCODING 10293
SWIDTH 960 0
DWIDTH 20 0
BBX 20 20 0 -2
BITMAP
007000
007000
007000
007000
007000
007000
007000
007000
007000
FFFFF0
FFFFF0
000000
000000
000000
000000
000000
000000
000000
000000
000000
ENDCHAR

STARTCHAR jisx0208_2836
ENCODING 10294
SWIDTH 960 0
DWIDTH 20 0
BBX 20 20 0 -2
BITMAP
007000
007000
007000
007000
007000
007000
007000
007000
007000
FFFFF0
FFFFF0
007000
007000
007000
007000
007000
007000
007000
007000
007000
ENDCHAR

STARTCHAR jisx0208_2837
ENCODING 10295
SWIDTH 960 0
DWIDTH 20 0
BBX 20 20 0 -2
BITMAP
007000
007000
007000
007000
007000
007000
007000
007000
007000
007FF0
007000
007000
007000
007000
007000
007000
007000
007000
007000
007000
ENDCHAR

STARTCHAR jisx0208_2838
ENCODING 10296
SWIDTH 960 0
DWIDTH 20 0
BBX 20 20 0 -2
BITMAP
000000
000000
000000
000000
000000
000000
000000
000000
000000
FFFFF0
FFFFF0
006000
006000
006000
006000
006000
006000
006000
006000
006000
ENDCHAR

STARTCHAR jisx0208_2839
ENCODING 10297
SWIDTH 960 0
DWIDTH 20 0
BBX 20 20 0 -2
BITMAP
007000
007000
007000
007000
007000
007000
007000
007000
007000
FFF000
007000
007000
007000
007000
007000
007000
007000
007000
007000
007000
ENDCHAR

STARTCHAR jisx0208_283A
ENCODING 10298
SWIDTH 960 0
DWIDTH 20 0
BBX 20 20 0 -2
BITMAP
006000
006000
006000
006000
006000
006000
006000
006000
006000
FFFFF0
FFFFF0
000000
000000
000000
000000
000000
000000
000000
000000
000000
ENDCHAR

STARTCHAR jisx0208_283B
ENCODING 10299
SWIDTH 960 0
DWIDTH 20 0
BBX 20 20 0 -2
BITMAP
006000
006000
006000
006000
006000
006000
006000
006000
006000
FFFFF0
FFFFF0
006000
006000
006000
006000
006000
006000
006000
006000
006000
ENDCHAR

STARTCHAR jisx0208_283C
ENCODING 10300
SWIDTH 960 0
DWIDTH 20 0
BBX 20 20 0 -2
BITMAP
006000
006000
006000
006000
006000
006000
006000
006000
006000
007FF0
007FF0
006000
006000
006000
006000
006000
006000
006000
006000
006000
ENDCHAR

STARTCHAR jisx0208_283D
ENCODING 10301
SWIDTH 960 0
DWIDTH 20 0
BBX 20 20 0 -2
BITMAP
000000
000000
000000
000000
000000
000000
000000
000000
000000
FFFFF0
007000
007000
007000
007000
007000
007000
007000
007000
007000
007000
ENDCHAR

STARTCHAR jisx0208_283E
ENCODING 10302
SWIDTH 960 0
DWIDTH 20 0
BBX 20 20 0 -2
BITMAP
006000
006000
006000
006000
006000
006000
006000
006000
006000
FFE000
FFE000
006000
006000
006000
006000
006000
006000
006000
006000
006000
ENDCHAR

STARTCHAR jisx0208_283F
ENCODING 10303
SWIDTH 960 0
DWIDTH 20 0
BBX 20 20 0 -2
BITMAP
007000
007000
007000
007000
007000
007000
007000
007000
007000
FFFFF0
000000
000000
000000
000000
000000
000000
000000
000000
000000
000000
ENDCHAR

STARTCHAR jisx0208_2840
ENCODING 10304
SWIDTH 960 0
DWIDTH 20 0
BBX 20 20 0 -2
BITMAP
007000
007000
007000
007000
007000
007000
007000
007000
007000
FFFFF0
007000
007000
007000
007000
007000
007000
007000
007000
007000
007000
ENDCHAR

STARTCHAR jisx0208_2D21
ENCODING 11553
SWIDTH 960 0
DWIDTH 20 0
BBX 20 20 0 -2
BITMAP
000000
03F800
0E0E00
180300
306180
61E0C0
6060C0
C06060
C06060
C06060
C06060
C06060
C06060
6060C0
6060C0
31F980
180300
0E0E00
03F800
000000
ENDCHAR

STARTCHAR jisx0208_2D22
ENCODING 11554
SWIDTH 960 0
DWIDTH 20 0
BBX 20 20 0 -2
BITMAP
000000
03F800
0E0E00
180300
31F180
6318C0
660CC0
C70C60
C00C60
C01860
C07060
C1C060
C30060
660CC0
660CC0
37FD80
180300
0E0E00
03F800
000000
ENDCHAR

STARTCHAR jisx0208_2D23
ENCODING 11555
SWIDTH 960 0
DWIDTH 20 0
BBX 20 20 0 -2
BITMAP
000000
03F800
0E0E00
180300
31F180
6318C0
660CC0
C70C60
C01860
C1F060
C01860
C00C60
C70C60
660CC0
6318C0
31F180
180300
0E0E00
03F800
000000
ENDCHAR

STARTCHAR jisx0208_2D24
ENCODING 11556
SWIDTH 960 0
DWIDTH 20 0
BBX 20 20 0 -2
BITMAP
000000
03F800
0E0E00
180300
303180
6070C0
60B0C0
C0B060
C1B060
C33060
C63060
C63060
CC2C60
5FFCC0
6030C0
307980
180300
0E0E00
03F800
000000
ENDCHAR

STARTCHAR jisx0208_2D25
ENCODING 11557
SWIDTH 960 0
DWIDTH 20 0
BBX 20 20 0 -2
BITMAP
000000
03F800
0E0E00
180300
37F980
6600C0
6600C0
C60060
C5F060
C71860
C60C60
C00C60
C70C60
660CC0
6318C0
31F180
180300
0E0E00
03F800
000000
ENDCHAR

STARTCHAR jisx0208_2D26
ENCODING 11558
SWIDTH 960 0
DWIDTH 20 0
BBX 20 20 0 -2
BITMAP
000000
03F800
0E0E00
180300
31F180
6318C0
661CC0
C60060
C5F060
C71860
C60C60
C60C60
C60C60
660CC0
6318C0
31F180
180300
0E0E00
03F800
000000
ENDCHAR

STARTCHAR jisx0208_2D27
ENCODING 11559
SWIDTH 960 0
DWIDTH 20 0
BBX 20 20 0 -2
BITMAP
000000
03F800
0E0E00
180300
37FD80
660CC0
6618C0
C03060
C03060
C06060
C06060
C06060
C0C060
60C0C0
60C0C0
30C180
180300
0E0E00
03F800
000000
ENDCHAR

STARTCHAR jisx0208_2D28
ENCODING 11560
SWIDTH 960 0
DWIDTH 20 0
BBX 20 20 0 -2
BITMAP
000000
03F800
0E0E00
180300
31F180
6318C0
660CC0
C60C60
C31860
C1F060
C31860
C60C60
C60C60
660CC0
6318C0
31F180
180300
0E0E00
03F800
000000
ENDCHAR

STARTCHAR jisx0208_2D29
ENCODING 11561
SWIDTH 960 0
DWIDTH 20 0
BBX 20 20 0 -2
BITMAP
000000
03F800
0E0E00
180300
31F180
6318C0
660CC0
C60C60
C60C60
C60C60
C31C60
C1EC60
C00C60
670CC0
6318C0
31F180
180300
0E0E00
03F800
000000
ENDCHAR

STARTCHAR jisx0208_2D2A
ENCODING 11562
SWIDTH 960 0
DWIDTH 20 0
BBX 20 20 0 -2
BITMAP
000000
03F800
0E0E00
180300
363D80
6E66C0
66C2C0
C6C360
C6C360
C6C360
C6C360
C6C360
C6C360
66C2C0
6666C0
2F3D80
180300
0E0E00
03F800
000000
ENDCHAR

STARTCHAR jisx0208_2D2B
ENCODING 11563
SWIDTH 960 0
DWIDTH 20 0
BBX 20 20 0 -2
BITMAP
000000
03F800
0E0E00
180300
360D80
6E1CC0
660CC0
C60C60
C60C60
C60C60
C60C60
C60C60
C60C60
660CC0
660CC0
2F1D80
180300
0E0E00
03F800
000000
ENDCHAR

STARTCHAR jisx0208_2D2C
ENCODING 11564
SWIDTH 960 0
DWIDTH 20 0
BBX 20 20 0 -2
BITMAP
000000
03F800
0E0E00
180300
363980
6E6CC0
66C6C0
C6C660
C6E660
C60C60
C61860
C63060
C66060
66C6C0
66C6C0
2EFD80
180300
0E0E00
03F800
000000
ENDCHAR

STARTCHAR jisx0208_2D2D
ENCODING 11565
SWIDTH 960 0
DWIDTH 20 0
BBX 20 20 0 -2
BITMAP
000000
03F800
0E0E00
180300
363D80
6E66C0
66C2C0
C6E360
C60660
C63C60
C60660
C60360
C6E360
66C2C0
6666C0
2F3D80
180300
0E0E00
03F800
000000
ENDCHAR

STARTCHAR jisx0208_2D2E
ENCODING 11566
SWIDTH 960 0
DWIDTH 20 0
BBX 20 20 0 -2
BITMAP
000000
03F800
0E0E00
180300
360D80
6E1CC0
661CC0
C62C60
C62C60
C66C60
C66C60
C6CB60
C6CB60
65FEC0
660CC0
2F1D80
180300
0E0E00
03F800
000000
ENDCHAR

STARTCHAR jisx0208_2D2F
ENCODING 11567
SWIDTH 960 0
DWIDTH 20 0
BBX 20 20 0 -2
BITMAP
000000
03F800
0E0E00
180300
36FD80
6EC0C0
66C0C0
C6C060
C6BC60
C6E660
C6C360
C60360
C6E360
66C2C0
6666C0
2F3D80
180300
0E0E00
03F800
000000
ENDCHAR

STARTCHAR jisx0208_2D30
ENCODING 11568
SWIDTH 960 0
DWIDTH 20 0
BBX 20 20 0 -2
BITMAP
000000
03F800
0E0E00
180300
363D80
6E66C0
66C6C0
C6C060
C6BC60
C6E660
C6C360
C6C360
C6C360
66C2C0
6666C0
2F3D80
180300
0E0E00
03F800
000000
ENDCHAR

STARTCHAR jisx0208_2D31
ENCODING 11569
SWIDTH 960 0
DWIDTH 20 0
BBX 20 20 0 -2
BITMAP
000000
03F800
0E0E00
180300
36FF80
6EC2C0
66C6C0
C60660
C60C60
C60C60
C60C60
C61860
C61860
6618C0
6618C0
2F1980
180300
0E0E00
03F800
000000
ENDCHAR

STARTCHAR jisx0208_2D32
ENCODING 11570
SWIDTH 960 0
DWIDTH 20 0
BBX 20 20 0 -2
BITMAP
000000
03F800
0E0E00
180300
363D80
6E66C0
66C2C0
C6C360
C66660
C63C60
C66660
C6C360
C6C360
66C2C0
6666C0
2F3D80
180300
0E0E00
03F800
000000
ENDCHAR

STARTCHAR jisx0208_2D33
ENCODING 11571
SWIDTH 960 0
DWIDTH 20 0
BBX 20 20 0 -2
BITMAP
000000
03F800
0E0E00
180300
363D80
6E66C0
66C2C0
C6C360
C6C360
C6C360
C66760
C63B60
C60360
66E2C0
6666C0
2F3D80
180300
0E0E00
03F800
000000
ENDCHAR

STARTCHAR jisx0208_2D34
ENCODING 11572
SWIDTH 960 0
DWIDTH 20 0
BBX 20 20 0 -2
BITMAP
000000
03F800
0E0E00
180300
379D80
6CB2C0
6CB2C0
CCB360
CEB360
C0B360
C1B360
C33360
C63360
6CB2C0
6CB2C0
2FDD80
180300
0E0E00
03F800
000000
ENDCHAR

STARTCHAR jisx0208_2D35
ENCODING 11573
SWIDTH 960 0
DWIDTH 20 0
BBX 20 20 0 -2
BITMAP
000000
000000
03F000
00C000
00C000
00C000
00C000
00C000
00C000
00C000
00C000
00C000
00C000
00C000
00C000
00C000
03F000
000000
000000
000000
ENDCHAR

STARTCHAR jisx0208_2D36
ENCODING 11574
SWIDTH 960 0
DWIDTH 20 0
BBX 20 20 0 -2
BITMAP
000000
000000
1FFE00
061800
061800
061800
061800
061800
061800
061800
061800
061800
061800
061800
061800
061800
1FFE00
000000
000000
000000
ENDCHAR

STARTCHAR jisx0208_2D37
ENCODING 11575
SWIDTH 960 0
DWIDTH 20 0
BBX 20 20 0 -2
BITMAP
000000
000000
7FFF80
18C600
18C600
18C600
18C600
18C600
18C600
18C600
18C600
18C600
18C600
18C600
18C600
18C600
7FFF80
000000
000000
000000
ENDCHAR

STARTCHAR jisx0208_2D38
ENCODING 11576
SWIDTH 960 0
DWIDTH 20 0
BBX 20 20 0 -2
BITMAP
000000
000000
7FE7E0
198180
198180
198180
18C300
18C300
18C300
186600
186600
186600
182C00
182C00
182C00
181800
7E1800
000000
000000
000000
ENDCHAR

STARTCHAR jisx0208_2D39
ENCODING 11577
SWIDTH 960 0
DWIDTH 20 0
BBX 20 20 0 -2
BITMAP
000000
000000
7E1F80
180600
180600
0C0C00
0C0C00
0C0C00
061800
061800
033000
033000
033000
016000
016000
00C000
00C000
000000
000000
000000
ENDCHAR

STARTCHAR jisx0208_2D3A
ENCODING 11578
SWIDTH 960 0
DWIDTH 20 0
BBX 20 20 0 -2
BITMAP
000000
000000
FCFFC0
303300
303300
303300
186300
186300
186300
0CC300
0CC300
0CC300
058300
058300
058300
030300
030FC0
000000
000000
000000
ENDCHAR

STARTCHAR jisx0208_2D3B
ENCODING 11579
SWIDTH 960 0
DWIDTH 20 0
BBX 20 20 0 -2
BITMAP
000000
000000
FDFFE0
30D980
30D980
30D980
30D980
30D980
199980
199980
199980
199980
0B1980
0B1980
0B1980
061980
067FE0
000000
000000
000000
ENDCHAR

STARTCHAR jisx0208_2D3C
ENCODING 11580
SWIDTH 960 0
DWIDTH 20 0
BBX 20 20 0 -2
BITMAP
000000
000000
FBFFE0
61B6C0
61B6C0
61B6C0
61B6C0
3336C0
3336C0
3336C0
3336C0
1636C0
1636C0
1636C0
1636C0
0C36C0
0C7FE0
000000
000000
000000
ENDCHAR

STARTCHAR jisx0208_2D3D
ENCODING 11581
SWIDTH 960 0
DWIDTH 20 0
BBX 20 20 0 -2
BITMAP
000000
000000
7FEFC0
198300
198300
18C600
186C00
186C00
183800
183800
183800
186C00
186C00
18C600
198300
198300
7FEFC0
000000
000000
000000
ENDCHAR

STARTCHAR jisx0208_2D3E
ENCODING 11582
SWIDTH 960 0
DWIDTH 20 0
BBX 20 20 0 -2
BITMAP
000000
000000
3F1F80
0C0600
060C00
031800
031800
01B000
00E000
00E000
00E000
01B000
031800
031800
060C00
0C0600
3F1F80
000000
000000
000000
ENDCHAR

STARTCHAR jisx0208_2D40
ENCODING 11584
SWIDTH 960 0
DWIDTH 20 0
BBX 20 20 0 -2
BITMAP
000000
3C0000
070000
000000
3C0000
070000
000000
780000
0E0000
038000
0001C0
0038C0
0018C0
0018C0
0018C0
0018C0
0000C0
000180
000700
000000
ENDCHAR

STARTCHAR jisx0208_2D41
ENCODING 11585
SWIDTH 960 0
DWIDTH 20 0
BBX 20 20 0 -2
BITMAP
000000
1C0000
0C0000
FF8000
0C0000
0C0000
FFC000
060000
060000
060000
060000
0030C0
003FE0
0030C0
0030C0
0030C0
0030C0
003FE0
003000
000000
ENDCHAR

STARTCHAR jisx0208_2D42
ENCODING 11586
SWIDTH 960 0
DWIDTH 20 0
BBX 20 20 0 -2
BITMAP
000000
701800
318C00
3FC000
F18060
3300C0
360180
301700
1F9C00
000000
038000
7E0000
0C0000
0D8000
FFC000
0C0000
0C0000
180000
300000
000000
ENDCHAR

STARTCHAR jisx0208_2D43
ENCODING 11587
SWIDTH 960 0
DWIDTH 20 0
BBX 20 20 0 -2
BITMAP
000000
038000
018000
3B0000
0E3000
0E1FC0
1B0000
300000
E00000
000000
380700
183B00
181B00
1E1B00
1B9B60
181AC0
183380
186300
180000
000000
ENDCHAR

STARTCHAR jisx0208_2D44
ENCODING 11588
SWIDTH 960 0
DWIDTH 20 0
BBX 20 20 0 -2
BITMAP
000000
3ADF80
1AC000
3F00C0
633FE0
C300C0
0600C0
0C0180
180300
700E00
180000
0C0000
0C0000
180000
1B0000
318000
37C000
FCC000
00C000
000000
ENDCHAR

STARTCHAR jisx0208_2D45
ENCODING 11589
SWIDTH 960 0
DWIDTH 20 0
BBX 20 20 0 -2
BITMAP
000000
380000
180000
180000
1E0000
1B8000
180000
180000
180000
180000
007000
001800
0000C0
000180
000300
000600
006C00
007800
000000
000000
ENDCHAR

STARTCHAR jisx0208_2D46
ENCODING 11590
SWIDTH 960 0
DWIDTH 20 0
BBX 20 20 0 -2
BITMAP
000000
018000
FFC000
018000
3B3000
1E1FC0
180000
180000
300000
600000
0E0000
760000
360000
360000
36C000
358000
670000
C60000
000000
000000
ENDCHAR

STARTCHAR jisx0208_2D47
ENCODING 11591
SWIDTH 960 0
DWIDTH 20 0
BBX 20 20 0 -2
BITMAP
000000
000E00
0006C0
180FE0
AC18C0
E630C0
030180
018300
00C600
001C00
380700
1B1B00
3F8B00
630B00
C30B60
16EB60
0C0AC0
161B80
703300
000000
ENDCHAR

STARTCHAR jisx0208_2D48
ENCODING 11592
SWIDTH 960 0
DWIDTH 20 0
BBX 20 20 0 -2
BITMAP
000000
770000
330000
332C00
332B80
332D80
030300
060600
1C1C00
000000
380700
183B00
181B00
1E1B00
1B9B60
181AC0
183380
186300
180000
000000
ENDCHAR

STARTCHAR jisx0208_2D49
ENCODING 11593
SWIDTH 960 0
DWIDTH 20 0
BBX 20 20 0 -2
BITMAP
000000
E30000
7F8000
632C00
632B80
632D80
060300
0C0600
381C00
000000
380000
180000
180000
1E0000
1B8000
180000
180000
180000
180000
000000
ENDCHAR

STARTCHAR jisx0208_2D4A
ENCODING 11594
SWIDTH 960 0
DWIDTH 20 0
BBX 20 20 0 -2
BITMAP
000000
700000
333180
FFBFC0
333180
333180
333180
6F3FC0
C63000
000000
000000
770000
330000
333000
331FC0
330000
030000
060000
1C0000
000000
ENDCHAR

STARTCHAR jisx0208_2D4B
ENCODING 11595
SWIDTH 960 0
DWIDTH 20 0
BBX 20 20 0 -2
BITMAP
000000
758000
358000
300000
3C0000
370000
300000
300000
300000
300000
000700
003B00
001B00
001B00
001B60
001AC0
003380
006300
000000
000000
ENDCHAR

STARTCHAR jisx0208_2D4C
ENCODING 11596
SWIDTH 960 0
DWIDTH 20 0
BBX 20 20 0 -2
BITMAP
000000
701800
318C00
3FC000
F18060
3300C0
360180
301700
1F9C00
000000
380000
180000
180000
1E0000
1B8000
180000
180000
180000
180000
000000
ENDCHAR

STARTCHAR jisx0208_2D4D
ENCODING 11597
SWIDTH 960 0
DWIDTH 20 0
BBX 20 20 0 -2
BITMAP
000000
00C000
756000
32C000
333000
319FC0
618000
618000
C18000
000000
718700
30C300
361B00
3F1BC0
F61B60
2C3300
303300
316300
3DC300
000000
ENDCHAR

STARTCHAR jisx0208_2D4E
ENCODING 11598
SWIDTH 960 0
DWIDTH 20 0
BBX 20 20 0 -2
BITMAP
000000
3C3B80
061980
001980
3C1980
061980
000180
7C0300
070600
000000
058700
6D9B00
2C0B00
360B00
35EB60
660AC0
661B80
C63300
000000
000000
ENDCHAR

STARTCHAR jisx0208_2D4F
ENCODING 11599
SWIDTH 960 0
DWIDTH 20 0
BBX 20 20 0 -2
BITMAP
000000
030000
058000
1B0000
AC3000
E61FC0
030000
018000
00C000
000000
02C000
72C000
180000
E0C000
318000
030000
060000
6C0000
780000
000000
ENDCHAR

STARTCHAR jisx0208_2D50
ENCODING 11600
SWIDTH 960 0
DWIDTH 20 0
BBX 20 20 0 -2
BITMAP
000000
000000
000000
000000
000000
000000
773B80
ED76C0
6DB6C0
6DB6C0
6DB6C0
6DB6C0
6DB6C0
6DB6C0
6DB6C0
6DB6C0
EBF5E0
000000
000000
000000
ENDCHAR

STARTCHAR jisx0208_2D51
ENCODING 11601
SWIDTH 960 0
DWIDTH 20 0
BBX 20 20 0 -2
BITMAP
000000
000000
000000
000000
000000
000000
1E3B80
3376C0
63B6C0
63B6C0
6036C0
6036C0
6036C0
6036C0
61B6C0
3336C0
1E75E0
000000
000000
000000
ENDCHAR

STARTCHAR jisx0208_2D52
ENCODING 11602
SWIDTH 960 0
DWIDTH 20 0
BBX 20 20 0 -2
BITMAP
000000
000000
600000
E00000
600000
600000
6F3B80
6676C0
6C36C0
5836C0
7836C0
6C36C0
6C36C0
6636C0
6636C0
6336C0
F775E0
000000
000000
000000
ENDCHAR

STARTCHAR jisx0208_2D53
ENCODING 11603
SWIDTH 960 0
DWIDTH 20 0
BBX 20 20 0 -2
BITMAP
000000
000000
000000
000000
000000
000000
770EE0
ED9960
6D9980
6D9980
6D9980
6D8F00
6D9800
6D9800
6D9F80
6DB0C0
EBB0C0
0030C0
001F80
000000
ENDCHAR

STARTCHAR jisx0208_2D54
ENCODING 11604
SWIDTH 960 0
DWIDTH 20 0
BBX 20 20 0 -2
BITMAP
000000
000000
300000
700000
300000
300000
378EE0
331960
361980
2C1980
3C1980
360F00
361800
331800
331F80
31B0C0
7BB0C0
0030C0
001F80
000000
ENDCHAR

STARTCHAR jisx0208_2D55
ENCODING 11605
SWIDTH 960 0
DWIDTH 20 0
BBX 20 20 0 -2
BITMAP
000000
000000
000000
000000
000000
000000
1E0F00
331980
63B1C0
63B1C0
603000
603000
603000
603000
61B0C0
331980
1E0F00
000000
000000
000000
ENDCHAR

STARTCHAR jisx0208_2D56
ENCODING 11606
SWIDTH 960 0
DWIDTH 20 0
BBX 20 20 0 -2
BITMAP
000000
0001C0
000360
0000C0
000180
0003E0
2FBE00
F8E300
30C300
30C300
30C300
30C300
30C300
30C300
30C300
30C300
FBEFC0
000000
000000
000000
ENDCHAR

STARTCHAR jisx0208_2D5F
ENCODING 11615
SWIDTH 960 0
DWIDTH 20 0
BBX 20 20 0 -2
BITMAP
000000
0302C0
FF8360
186300
DB7FE0
DB6300
5B6300
5B6300
566AE0
567AC0
196AC0
FF6AC0
186AC0
186D80
186D60
187B60
18D6C0
18CCC0
199860
000000
ENDCHAR

STARTCHAR jisx0208_2D60
ENCODING 11616
SWIDTH 960 0
DWIDTH 20 0
BBX 20 20 0 -2
BITMAP
000000
0006C0
0006C0
000D80
000D80
001B00
000000
000000
000000
000000
000000
000000
000000
000000
000000
000000
000000
000000
000000
000000
ENDCHAR

STARTCHAR jisx0208_2D61
ENCODING 11617
SWIDTH 960 0
DWIDTH 20 0
BBX 20 20 0 -2
BITMAP
000000
000000
000000
000000
000000
000000
000000
000000
000000
000000
000000
000000
000000
000000
1B0000
1B0000
360000
360000
6C0000
000000
ENDCHAR

STARTCHAR jisx0208_2D62
ENCODING 11618
SWIDTH 960 0
DWIDTH 20 0
BBX 20 20 0 -2
BITMAP
000000
000000
E3C000
618000
718000
718000
599E00
59B300
6D6180
6D6180
6D6180
656180
656180
636180
636180
61B2E0
F19EE0
000000
000000
000000
ENDCHAR

STARTCHAR jisx0208_2D63
ENCODING 11619
SWIDTH 960 0
DWIDTH 20 0
BBX 20 20 0 -2
BITMAP
000000
000000
773B80
361B00
361B00
2C1600
2C1600
2C1600
381C00
381C00
2C1600
2C1600
2C1600
361B00
361B00
36DB60
76BB60
000000
000000
000000
ENDCHAR

STARTCHAR jisx0208_2D64
ENCODING 11620
SWIDTH 960 0
DWIDTH 20 0
BBX 20 20 0 -2
BITMAP
000000
000000
7DF780
56DB00
56DB00
56DB00
18C300
18B300
18B300
18F300
18B300
18B300
18C300
18DB60
18DB60
18DB60
3DF7E0
000000
000000
000000
ENDCHAR

STARTCHAR jisx0208_2D65
ENCODING 11621
SWIDTH 960 0
DWIDTH 20 0
BBX 20 20 0 -2
BITMAP
000000
03F800
0E0E00
180300
30E180
60C0C0
60C0C0
C0CC60
C0FE60
C0C060
C0C060
C0C060
C0C060
60C6C0
5FFEC0
300180
180300
0E0E00
03F800
000000
ENDCHAR

STARTCHAR jisx0208_2D66
ENCODING 11622
SWIDTH 960 0
DWIDTH 20 0
BBX 20 20 0 -2
BITMAP
000000
03F800
0E0E00
180300
30E180
60C0C0
58C6C0
DFFF60
D8C660
D8C660
D8C660
DFFE60
D8C660
60C0C0
60C0C0
30C180
180300
0E0E00
03F800
000000
ENDCHAR

STARTCHAR jisx0208_2D67
ENCODING 11623
SWIDTH 960 0
DWIDTH 20 0
BBX 20 20 0 -2
BITMAP
000000
03F800
0E0E00
180300
300580
5FFEC0
60C0C0
C0C060
C0F060
C0D860
C0CC60
C0C060
C0C060
60C0C0
60C0C0
30C180
180300
0E0E00
03F800
000000
ENDCHAR

STARTCHAR jisx0208_2D68
ENCODING 11624
SWIDTH 960 0
DWIDTH 20 0
BBX 20 20 0 -2
BITMAP
000000
03F800
0E0E00
180300
31C180
6186C0
5FFEC0
C30060
C30C60
C7FE60
C66060
CC6060
D86060
6066C0
67FEC0
300180
180300
0E0E00
03F800
000000
ENDCHAR

STARTCHAR jisx0208_2D69
ENCODING 11625
SWIDTH 960 0
DWIDTH 20 0
BBX 20 20 0 -2
BITMAP
000000
03F800
0E0E00
180300
338180
6306C0
5FFEC0
C60060
C60C60
CFFE60
CE0C60
D60C60
B60C60
660CC0
67FCC0
360D80
180300
0E0E00
03F800
000000
ENDCHAR

STARTCHAR jisx0208_2D6A
ENCODING 11626
SWIDTH 960 0
DWIDTH 20 0
BBX 20 20 0 -2
BITMAP
000000
300180
6E1CC0
6CD8C0
CCDB60
CAFF60
BED860
CD9860
DC1960
DDFF60
DB3C60
AB5660
AC5660
ECD760
CD9B60
CB1B60
6C18C0
6C18C0
300180
000000
ENDCHAR

STARTCHAR jisx0208_2D6B
ENCODING 11627
SWIDTH 960 0
DWIDTH 20 0
BBX 20 20 0 -2
BITMAP
000000
300180
6380C0
6306C0
BFFF60
C30060
C60C60
C7FE60
CE0C60
CE0C60
D7FC60
B60C60
C60C60
C7FC60
C60C60
C60C60
667CC0
6618C0
300180
000000
ENDCHAR

STARTCHAR jisx0208_2D6C
ENCODING 11628
SWIDTH 960 0
DWIDTH 20 0
BBX 20 20 0 -2
BITMAP
000000
300180
672CC0
6636C0
C63660
C63060
CC3360
CC3F60
DBF060
DC3060
AC3060
EC3060
CC1860
CC1B60
CC0B60
CC0B60
6C06C0
6C02C0
300180
000000
ENDCHAR

STARTCHAR jisx0208_2D6D
ENCODING 11629
SWIDTH 960 0
DWIDTH 20 0
BBX 20 20 0 -2
BITMAP
000000
0D6380
AFB300
EDB300
AD82C0
ADC6C0
AF5660
ED55E0
AD9F60
AD9860
ADB6C0
AFB7E0
EDE6C0
ADB6C0
CDB6C0
0DB6C0
19B6C0
17B7C0
3336C0
000000
ENDCHAR

STARTCHAR jisx0208_2D6E
ENCODING 11630
SWIDTH 960 0
DWIDTH 20 0
BBX 20 20 0 -2
BITMAP
000000
0E0000
0C00C0
0C7FC0
0C0600
0D8600
FFC600
0C0600
0C36C0
0C37C0
163600
163600
163600
333600
333600
333600
63B6C0
61FFE0
C18000
000000
ENDCHAR

STARTCHAR jisx0208_2D6F
ENCODING 11631
SWIDTH 960 0
DWIDTH 20 0
BBX 20 20 0 -2
BITMAP
000000
018C00
BFDE00
EDBB60
AD5BE0
AD9B60
AD9B60
B77F60
FB1B60
B01B60
AD9B60
AFB760
ADB760
AD5B60
ED5B60
AD9B60
0D9BE0
0F9B60
0D9800
000000
ENDCHAR

STARTCHAR jisx0208_2D70
ENCODING 11632
SWIDTH 960 0
DWIDTH 20 0
BBX 20 20 0 -2
BITMAP
000000
000000
000000
0E0000
0E0000
000000
000000
3FFF80
000000
000000
000000
3FFF80
000000
000000
000E00
000E00
000000
000000
000000
000000
ENDCHAR

STARTCHAR jisx0208_2D71
ENCODING 11633
SWIDTH 960 0
DWIDTH 20 0
BBX 20 20 0 -2
BITMAP
000000
000000
000000
000000
000000
3FFF80
000000
000000
000000
3FFF80
000000
000000
000000
3FFF80
000000
000000
000000
000000
000000
000000
ENDCHAR

STARTCHAR jisx0208_2D72
ENCODING 11634
SWIDTH 960 0
DWIDTH 20 0
BBX 20 20 0 -2
BITMAP
000000
00F000
019800
01B800
01B800
018000
018000
00C000
00C000
00C000
00C000
00C000
00C000
006000
006000
076000
076000
066000
03C000
000000
ENDCHAR

STARTCHAR jisx0208_2D73
ENCODING 11635
SWIDTH 960 0
DWIDTH 20 0
BBX 20 20 0 -2
BITMAP
000000
00F000
019800
01B800
01B800
018000
01E000
02B000
06D800
06D800
06D800
02B000
01E000
006000
006000
076000
076000
066000
03C000
000000
ENDCHAR

STARTCHAR jisx0208_2D74
ENCODING 11636
SWIDTH 960 0
DWIDTH 20 0
BBX 20 20 0 -2
BITMAP
000000
000000
3FFC00
180C00
0C0600
060600
030000
018000
00C000
006000
00C000
018000
030000
060300
0C0300
180600
3FFE00
000000
000000
000000
ENDCHAR

STARTCHAR jisx0208_2D75
ENCODING 11637
SWIDTH 960 0
DWIDTH 20 0
BBX 20 20 0 -2
BITMAP
000000
007FE0
006000
00C000
00C000
00C000
018000
018000
018000
030000
030000
330000
760000
D60000
160000
0C0000
0C0000
0C0000
000000
000000
ENDCHAR

STARTCHAR jisx0208_2D76
ENCODING 11638
SWIDTH 960 0
DWIDTH 20 0
BBX 20 20 0 -2
BITMAP
000000
000000
000000
00C000
00C000
00C000
00C000
00C000
00C000
00C000
00C000
00C000
00C000
00C000
00C000
3FFF00
000000
000000
000000
000000
ENDCHAR

STARTCHAR jisx0208_2D77
ENCODING 11639
SWIDTH 960 0
DWIDTH 20 0
BBX 20 20 0 -2
BITMAP
000000
000000
000000
000300
000600
000C00
001800
003000
006000
00C000
018000
030000
060000
0C0000
180000
3FFF00
000000
000000
000000
000000
ENDCHAR

STARTCHAR jisx0208_2D78
ENCODING 11640
SWIDTH 960 0
DWIDTH 20 0
BBX 20 20 0 -2
BITMAP
000000
000000
000000
180000
180000
180000
180000
180000
180000
180000
180000
180000
180000
180000
180000
1FFF80
000000
000000
000000
000000
ENDCHAR

STARTCHAR jisx0208_2D79
ENCODING 11641
SWIDTH 960 0
DWIDTH 20 0
BBX 20 20 0 -2
BITMAP
000000
000000
000000
000300
000700
000B00
001B00
003300
006300
00C300
018300
030300
060300
0C0300
180300
3FFF00
000000
000000
000000
000000
ENDCHAR

STARTCHAR jisx0208_2D7A
ENCODING 11642
SWIDTH 960 0
DWIDTH 20 0
BBX 20 20 0 -2
BITMAP
000000
000000
000000
000000
1C0700
1C0700
000000
000000
000000
000000
000000
000000
000000
00E000
00E000
000000
000000
000000
000000
000000
ENDCHAR

STARTCHAR jisx0208_2D7B
ENCODING 11643
SWIDTH 960 0
DWIDTH 20 0
BBX 20 20 0 -2
BITMAP
000000
000000
000000
03F000
0E1C00
0C0C00
180600
180600
180600
180600
180600
180600
180600
180600
180600
180600
180600
000000
000000
000000
ENDCHAR

STARTCHAR jisx0208_2D7C
ENCODING 11644
SWIDTH 960 0
DWIDTH 20 0
BBX 20 20 0 -2
BITMAP
000000
000000
000000
180600
180600
180600
180600
180600
180600
180600
180600
180600
180600
180600
0C0C00
0E1C00
03F000
000000
000000
000000
ENDCHAR

STARTCHAR jisx0208_3021
ENCODING 12321
SWIDTH 960 0
DWIDTH 20 0
BBX 20 20 0 -2
BITMAP
000000
000060
7FFFF0
019800
019800
019800
3198C0
3FFFE0
3198C0
3198C0
3198C0
3198C0
3FFFC0
3198C0
019800
019800
019800
019860
7FFFF0
000000
ENDCHAR

STARTCHAR jisx0208_3022
ENCODING 12322
SWIDTH 960 0
DWIDTH 20 0
BBX 20 20 0 -2
BITMAP
000000
000060
66FFF0
7F1B00
661B00
661B00
66DB60
66FFF0
66DB60
66DB60
66DB60
66DB60
7EFFE0
66DB60
601B00
001B00
001B00
001B60
03FFF0
000000
ENDCHAR

STARTCHAR jisx0208_3023
ENCODING 12323
SWIDTH 960 0
DWIDTH 20 0
BBX 20 20 0 -2
BITMAP
000000
1C0700
180600
1806C0
1B7FE0
7F8600
1B0600
1B0660
32FFF0
330000
330700
330600
3606C0
767FE0
6E0600
0B0600
1B0600
300660
60FFF0
000000
ENDCHAR

STARTCHAR jisx0208_3024
ENCODING 12324
SWIDTH 960 0
DWIDTH 20 0
BBX 20 20 0 -2
BITMAP
000000
660060
7EFFF0
6600C0
6C00C0
6CCCC0
58FEC0
58CCC0
6CCCC0
6CCCC0
66CCC0
66CCC0
66FCC0
5ECCC0
6CC0C0
6000C0
6000C0
6007C0
600180
000000
ENDCHAR

STARTCHAR jisx0208_3025
ENCODING 12325
SWIDTH 960 0
DWIDTH 20 0
BBX 20 20 0 -2
BITMAP
000000
007000
0060C0
7FFFE0
000000
0C0300
0FFF80
0C0300
0C0300
0C0300
0FFF00
0CB2C0
0199C0
071B00
1B0E00
730600
037B80
1FC1E0
0C00C0
000000
ENDCHAR

STARTCHAR jisx0208_3026
ENCODING 12326
SWIDTH 960 0
DWIDTH 20 0
BBX 20 20 0 -2
BITMAP
000000
000180
001FC0
3FF300
066300
333660
3FFFF0
706060
6B32C0
0B0580
19FEC0
00C000
018600
03FF00
0D8600
38CC00
007800
03CF00
7E01E0
000000
ENDCHAR

STARTCHAR jisx0208_3027
ENCODING 12327
SWIDTH 960 0
DWIDTH 20 0
BBX 20 20 0 -2
BITMAP
000000
0E0E00
0C0CC0
0C1860
0B19F0
7EFF30
0C5830
0C18C0
0C3FE0
0B3600
0E6600
7C0660
6CFFF0
0C0600
0C0B00
0C0D80
0C19C0
3C30F0
18E060
000000
ENDCHAR

STARTCHAR jisx0208_3028
ENCODING 12328
SWIDTH 960 0
DWIDTH 20 0
BBX 20 20 0 -2
BITMAP
000000
1C0E00
180B00
181B00
1B1980
7FB180
1B30C0
1B62E0
32BF70
330060
330000
3360C0
367FE0
7660C0
6E60C0
0B60C0
1B60C0
307FC0
6060C0
000000
ENDCHAR

STARTCHAR jisx0208_3029
ENCODING 12329
SWIDTH 960 0
DWIDTH 20 0
BBX 20 20 0 -2
BITMAP
000000
003800
303300
187F80
18E300
03B600
001C00
003700
0CEDF0
7F8C60
0CFFC0
0C0C00
0C7F80
0C0C00
0DFFE0
0C0C00
160C00
738000
30FFF0
000000
ENDCHAR

STARTCHAR jisx0208_302A
ENCODING 12330
SWIDTH 960 0
DWIDTH 20 0
BBX 20 20 0 -2
BITMAP
000000
030CC0
7FFFE0
030C00
00C000
3FDB00
00D600
0D8CC0
070580
060300
1BFD80
7060E0
006300
1FFF80
00B000
00D800
018E00
0703E0
3C00C0
000000
ENDCHAR

STARTCHAR jisx0208_302B
ENCODING 12331
SWIDTH 960 0
DWIDTH 20 0
BBX 20 20 0 -2
BITMAP
000000
01CE00
018C60
7FFFF0
018C00
018C00
000060
7FFFF0
019800
1998C0
1FFFE0
1998C0
1998C0
1B1AC0
161EC0
1800C0
1800C0
1FFFC0
1800C0
000000
ENDCHAR

STARTCHAR jisx0208_302C
ENCODING 12332
SWIDTH 960 0
DWIDTH 20 0
BBX 20 20 0 -2
BITMAP
000000
066600
0F7F00
7CC6C0
0DFFE0
0ACCC0
7EFFC0
0CCCC0
1CFFC0
1CCCC0
1D8C60
2BFFF0
2D8C60
6DFFE0
0D8C60
0DFFE0
0D8C60
0C0C70
0C07E0
000000
ENDCHAR

STARTCHAR jisx0208_302D
ENCODING 12333
SWIDTH 960 0
DWIDTH 20 0
BBX 20 20 0 -2
BITMAP
000000
000060
7FFFF0
019800
1998C0
1FFFE0
1998C0
1998C0
1FFFC0
1998C0
019830
7FFFF0
000000
003000
1B98C0
1B1860
330330
3303B0
61FF00
000000
ENDCHAR

STARTCHAR jisx0208_302E
ENCODING 12334
SWIDTH 960 0
DWIDTH 20 0
BBX 20 20 0 -2
BITMAP
000000
1D8060
19FFF0
198060
158060
7DFFE0
198000
197FE0
198C00
1D8D80
7998C0
597F60
198600
1986C0
197FE0
1B0600
1B0600
760660
30FFF0
000000
ENDCHAR

STARTCHAR jisx0208_302F
ENCODING 12335
SWIDTH 960 0
DWIDTH 20 0
BBX 20 20 0 -2
BITMAP
000000
318060
19FFF0
198060
018060
61FFE0
318000
2DFFF0
0D8C00
0D8D80
1998C0
197F60
198600
7306C0
337FE0
330600
360600
360660
2CFFF0
000000
ENDCHAR

STARTCHAR jisx0208_3030
ENCODING 12336
SWIDTH 960 0
DWIDTH 20 0
BBX 20 20 0 -2
BITMAP
000000
0E0000
0C18C0
0C1FE0
0D98C0
7FD8C0
0D98C0
0D98C0
0D9FC0
0D98C0
0D98C0
0D98C0
1998C0
199FC0
1998C0
199860
318060
318070
60FFE0
000000
ENDCHAR

STARTCHAR jisx0208_3031
ENCODING 12337
SWIDTH 960 0
DWIDTH 20 0
BBX 20 20 0 -2
BITMAP
000000
030C60
7FFFF0
030C00
00C300
1FFF80
018360
7FFFF0
000000
0FFF80
0C0180
0FFF80
183000
1FFFC0
183000
183060
7FFFF0
003000
003000
000000
ENDCHAR

STARTCHAR jisx0208_3032
ENCODING 12338
SWIDTH 960 0
DWIDTH 20 0
BBX 20 20 0 -2
BITMAP
000000
01CE00
018C60
7FFFF0
018C00
0000C0
3FFFE0
000000
0C0180
0FFFC0
0C0180
0C0180
0C0180
0FFF80
0C0180
180000
180000
300000
600000
000000
ENDCHAR

STARTCHAR jisx0208_3033
ENCODING 12339
SWIDTH 960 0
DWIDTH 20 0
BBX 20 20 0 -2
BITMAP
000000
1C0E00
160D80
1F18C0
367F60
2B3660
7F8600
2B0C60
2B7FF0
3F1980
2B32C0
2B6670
3EDD80
333300
000E60
55B8C0
558380
560E00
607800
000000
ENDCHAR

STARTCHAR jisx0208_3034
ENCODING 12340
SWIDTH 960 0
DWIDTH 20 0
BBX 20 20 0 -2
BITMAP
000000
0E0700
0C0600
0C06C0
0B7FE0
7FB180
0C1980
1C1980
1E1B30
1AFFF0
2C0600
2C0600
6C06C0
0C7FE0
0C0600
0C0600
0C0600
0C0600
0C0600
000000
ENDCHAR

STARTCHAR jisx0208_3035
ENCODING 12341
SWIDTH 960 0
DWIDTH 20 0
BBX 20 20 0 -2
BITMAP
000000
180060
1FFFF0
180000
181C00
181800
181800
181800
1818C0
17FFE0
181800
181800
181800
181800
301800
301800
301800
601860
6FFFF0
000000
ENDCHAR

STARTCHAR jisx0208_3036
ENCODING 12342
SWIDTH 960 0
DWIDTH 20 0
BBX 20 20 0 -2
BITMAP
000000
0E0700
0D8580
7F8D80
0C0CC0
6D98C0
7FB060
6159B0
618D80
7F8D80
61B180
619980
7F99B0
0C01F0
0D8F80
7F7980
0C0180
0C0180
0C0180
000000
ENDCHAR

STARTCHAR jisx0208_3037
ENCODING 12343
SWIDTH 960 0
DWIDTH 20 0
BBX 20 20 0 -2
BITMAP
000000
0E0180
0CFFC0
0C3180
0B3180
7F3180
0C3180
0C3360
0C33F0
0B3B60
0E5860
7C6C60
6C6CC0
0C66C0
0CC580
0CC300
0CC5C0
3D8CF0
1B3860
000000
ENDCHAR

STARTCHAR jisx0208_3038
ENCODING 12344
SWIDTH 960 0
DWIDTH 20 0
BBX 20 20 0 -2
BITMAP
000000
007000
3060C0
3FFFE0
7000C0
6E0180
0C3180
0DBFC0
1FB180
19B180
19B180
2DB180
673180
033780
063300
0630C0
0C30C0
1830E0
701FC0
000000
ENDCHAR

STARTCHAR jisx0208_3039
ENCODING 12345
SWIDTH 960 0
DWIDTH 20 0
BBX 20 20 0 -2
BITMAP
000000
1C30C0
183FE0
1830C0
1B30C0
7FB0C0
1B30C0
1B3FC0
3330C0
3330C0
3330C0
3330C0
363FC0
7630C0
6E30C0
0B30C0
1B30C0
3030B0
60FFF0
000000
ENDCHAR

STARTCHAR jisx0208_303A
ENCODING 12346
SWIDTH 960 0
DWIDTH 20 0
BBX 20 20 0 -2
BITMAP
000000
0E0700
0C0600
0C0600
6DB660
7FBFF0
6DB000
6DB000
6DB000
6DB000
6DB000
7FB000
6DB000
0C3000
0DB000
0DB000
0BB000
7EB000
30DFF0
000000
ENDCHAR

STARTCHAR jisx0208_303B
ENCODING 12347
SWIDTH 960 0
DWIDTH 20 0
BBX 20 20 0 -2
BITMAP
000000
0E0700
0B0600
198600
16CC00
358CC0
7FD860
319BB0
317E30
3F8000
31B060
31BFF0
3FB060
303060
333060
31B060
36B060
7CBFE0
303060
000000
ENDCHAR

STARTCHAR jisx0208_303C
ENCODING 12348
SWIDTH 960 0
DWIDTH 20 0
BBX 20 20 0 -2
BITMAP
000000
0C3800
0C3000
1B3060
737FF0
366060
1CC060
0B3360
1B3F60
7DB360
0DB360
0C3F60
2B3360
2DB360
2DBF60
2DB360
6C00C0
0C07C0
0C0180
000000
ENDCHAR

STARTCHAR jisx0208_303D
ENCODING 12349
SWIDTH 960 0
DWIDTH 20 0
BBX 20 20 0 -2
BITMAP
000000
0C0700
0C06C0
1B3FC0
730600
360660
1CFFF0
0B1B00
1B1B60
7DB370
0D6BE0
0C0C00
2B1FC0
2B1980
2B3980
2B6B00
6C0600
0C1B80
0CF0F0
000000
ENDCHAR

STARTCHAR jisx0208_303E
ENCODING 12350
SWIDTH 960 0
DWIDTH 20 0
BBX 20 20 0 -2
BITMAP
000000
0E0380
0B0300
1F8300
330360
76C3F0
3FE300
36C300
36C300
3FDB60
36DFF0
36D860
3FD860
30D860
001860
2AD860
2B5860
2B5FE0
601860
000000
ENDCHAR

STARTCHAR jisx0208_303F
ENCODING 12351
SWIDTH 960 0
DWIDTH 20 0
BBX 20 20 0 -2
BITMAP
000000
000EC0
000C60
000C60
7FFFF0
000C00
000C00
18CC00
1FECE0
18CCC0
18C6C0
18C580
1FC580
180300
00E730
078DB0
7E1960
3070E0
01C070
000000
ENDCHAR

STARTCHAR jisx0208_3040
ENCODING 12352
SWIDTH 960 0
DWIDTH 20 0
BBX 20 20 0 -2
BITMAP
000000
0000C0
7FFFE0
019800
199980
1FFFC0
199980
199980
1FFF80
186180
066600
036CC0
7FFFE0
00F000
015C00
076700
1C63E0
7060C0
006000
000000
ENDCHAR

STARTCHAR jisx0208_3041
ENCODING 12353
SWIDTH 960 0
DWIDTH 20 0
BBX 20 20 0 -2
BITMAP
000000
1C0E00
180B00
1B1B00
7F9980
0330C0
0630E0
066370
0CBF60
1B0000
360000
5C60C0
167FE0
1B60C0
1860C0
1860C0
1860C0
187FC0
1860C0
000000
ENDCHAR

STARTCHAR jisx0208_3042
ENCODING 12354
SWIDTH 960 0
DWIDTH 20 0
BBX 20 20 0 -2
BITMAP
000000
007000
3060C0
3FFFE0
7000C0
60E180
00C000
018000
0180C0
7FFFE0
030600
060600
060C00
0F8C00
0CD800
003800
00EE00
078380
3C0180
000000
ENDCHAR

STARTCHAR jisx0208_3043
ENCODING 12355
SWIDTH 960 0
DWIDTH 20 0
BBX 20 20 0 -2
BITMAP
000000
003800
183060
1FFFF0
181800
1830C0
17FFE0
186600
18DB00
1999C0
1BFFF0
1D9960
19FF80
199980
19FF80
199960
301860
301870
600FE0
000000
ENDCHAR

STARTCHAR jisx0208_3044
ENCODING 12356
SWIDTH 960 0
DWIDTH 20 0
BBX 20 20 0 -2
BITMAP
000000
1C0E00
18CC60
18FFF0
15C060
7D8EC0
180C00
180C00
181860
1DFFF0
781980
583180
183180
187B00
186B00
180700
180D80
7838C0
31E060
000000
ENDCHAR

STARTCHAR jisx0208_3045
ENCODING 12357
SWIDTH 960 0
DWIDTH 20 0
BBX 20 20 0 -2
BITMAP
000000
000E00
660CC0
7EFFE0
666180
663180
663180
663360
7DFFF0
660000
6660C0
667FE0
6660C0
6660C0
7E7FC0
6660C0
6060C0
007FC0
0060C0
000000
ENDCHAR

STARTCHAR jisx0208_3046
ENCODING 12358
SWIDTH 960 0
DWIDTH 20 0
BBX 20 20 0 -2
BITMAP
000000
007000
3060C0
3FFFE0
70C0C0
618180
1FFFC0
030C00
07D800
007E00
3FC380
0060C0
7FFFE0
00F000
015800
076F00
1C63E0
7060C0
006000
000000
ENDCHAR

STARTCHAR jisx0208_3047
ENCODING 12359
SWIDTH 960 0
DWIDTH 20 0
BBX 20 20 0 -2
BITMAP
000000
619860
7FDFF0
619860
7F9FE0
619860
7F9FE0
606060
67FE60
630C60
619B60
6FFF60
600060
63FC60
630C60
63FC60
630C60
63FDE0
630CC0
000000
ENDCHAR

STARTCHAR jisx0208_3048
ENCODING 12360
SWIDTH 960 0
DWIDTH 20 0
BBX 20 20 0 -2
BITMAP
000000
3B8700
333660
7FBFF0
337060
3360C0
3F0700
0C0600
6D8660
7FBFF0
6D8CC0
6D8CC0
7F98C0
0C1D80
0D9580
7FC380
0C02C0
0C0E60
0C3860
000000
ENDCHAR

STARTCHAR jisx0208_3049
ENCODING 12361
SWIDTH 960 0
DWIDTH 20 0
BBX 20 20 0 -2
BITMAP
000000
007000
0060C0
7FFFE0
00F000
015800
036C00
066700
1C61E0
7060C0
006000
0C0300
0FFF80
0C0300
0C0300
0C0300
0C0300
0FFF00
0C0300
000000
ENDCHAR

STARTCHAR jisx0208_304A
ENCODING 12362
SWIDTH 960 0
DWIDTH 20 0
BBX 20 20 0 -2
BITMAP
000000
1C01C0
18C180
186180
183180
183180
180180
180180
180180
180180
180180
183300
18E300
1B8380
1E06C0
780C60
301860
007030
01C030
000000
ENDCHAR

STARTCHAR jisx0208_304B
ENCODING 12363
SWIDTH 960 0
DWIDTH 20 0
BBX 20 20 0 -2
BITMAP
000000
0E00C0
0BFFE0
0C18C0
1818C0
1818B0
17FFF0
3818C0
3818C0
5818C0
1818C0
1BFFC0
1818C0
181800
183000
183000
186000
18C000
1B8000
000000
ENDCHAR

STARTCHAR jisx0208_304C
ENCODING 12364
SWIDTH 960 0
DWIDTH 20 0
BBX 20 20 0 -2
BITMAP
000000
0E1C00
0C1800
0C1800
1818C0
1BFFE0
180000
38C1C0
38C180
58C180
186180
186300
186300
186300
186300
186600
186600
180660
17FFF0
000000
ENDCHAR

STARTCHAR jisx0208_304D
ENCODING 12365
SWIDTH 960 0
DWIDTH 20 0
BBX 20 20 0 -2
BITMAP
000000
0E0E00
0C0C00
0C0C60
1BFFF0
180C00
181C00
381C00
3836E0
5836C0
186580
18E300
196300
1B6180
166180
1860C0
186EE0
19F870
18C060
000000
ENDCHAR

STARTCHAR jisx0208_304E
ENCODING 12366
SWIDTH 960 0
DWIDTH 20 0
BBX 20 20 0 -2
BITMAP
000000
0E1C00
0C1980
0DFFC0
183180
183160
1BFFF0
380000
38FFC0
58C0C0
18C0C0
18FFC0
198600
19FFE0
198600
198660
17FFF0
180600
180600
000000
ENDCHAR

STARTCHAR jisx0208_304F
ENCODING 12367
SWIDTH 960 0
DWIDTH 20 0
BBX 20 20 0 -2
BITMAP
000000
300060
3FFFF0
300060
31DC60
319860
319660
37FF60
319860
319860
319B60
2FFF60
319860
319860
331860
361860
300060
3FFFE0
300060
000000
ENDCHAR

STARTCHAR jisx0208_3050
ENCODING 12368
SWIDTH 960 0
DWIDTH 20 0
BBX 20 20 0 -2
BITMAP
000000
007000
0060C0
7FFFE0
006000
3FFF80
006180
186180
1FFF80
186180
1860C0
3FFFE0
3060C0
30B0C0
019B80
030C00
060700
1C03E0
7000C0
000000
ENDCHAR

STARTCHAR jisx0208_3051
ENCODING 12369
SWIDTH 960 0
DWIDTH 20 0
BBX 20 20 0 -2
BITMAP
000000
000300
003F80
1FE000
0060C0
7FFFE0
00F000
035E00
0E67E0
7860C0
00C000
0180C0
7FFFE0
030600
060C00
0FD800
003C00
01E700
3F0180
000000
ENDCHAR

STARTCHAR jisx0208_3052
ENCODING 12370
SWIDTH 960 0
DWIDTH 20 0
BBX 20 20 0 -2
BITMAP
000000
000EC0
000C60
300C60
3FFFF0
300C00
30CC00
3FEC00
330CE0
336CC0
3FECC0
3666C0
366580
366580
2EC300
2DC730
316DB0
6318E0
6E7070
000000
ENDCHAR

STARTCHAR jisx0208_3053
ENCODING 12371
SWIDTH 960 0
DWIDTH 20 0
BBX 20 20 0 -2
BITMAP
000000
3060E0
3FF0C0
3060C0
3060C0
3FE0B0
301FF0
3180C0
2FC0C0
300CC0
30C6C0
3FE6C0
3300C0
2AC0C0
2B60C0
3B60C0
6300C0
6F03C0
060180
000000
ENDCHAR

STARTCHAR jisx0208_3054
ENCODING 12372
SWIDTH 960 0
DWIDTH 20 0
BBX 20 20 0 -2
BITMAP
000000
0E39C0
0C3180
0C3300
2E6360
2B7FF0
2AE600
2D6600
6B66C0
6C7FE0
0C6600
0C6600
0C66C0
0C7FE0
0C6600
0C6600
0C6660
0C7FF0
0C6000
000000
ENDCHAR

STARTCHAR jisx0208_3055
ENCODING 12373
SWIDTH 960 0
DWIDTH 20 0
BBX 20 20 0 -2
BITMAP
000000
007000
006300
1FFF80
060600
030CC0
7FFFE0
000000
0FFF00
0C0300
0FFF00
0C0300
0FFF00
0C0300
036000
1B30C0
1B3660
330760
61FE00
000000
ENDCHAR

STARTCHAR jisx0208_3056
ENCODING 12374
SWIDTH 960 0
DWIDTH 20 0
BBX 20 20 0 -2
BITMAP
000000
1830E0
1FF8C0
1830C0
1FF0B0
181FF0
17E0C0
180CC0
1FF6C0
1986C0
3560C0
2DB0C0
6383C0
000180
03B000
1B1860
331B30
3303B0
61FF00
000000
ENDCHAR

STARTCHAR jisx0208_3057
ENCODING 12375
SWIDTH 960 0
DWIDTH 20 0
BBX 20 20 0 -2
BITMAP
000000
0C0180
0FFFC0
0C0180
0C0180
0FFF80
0C0180
0C0180
0FFF80
030000
060060
1FFFF0
70CC60
018C60
071860
3C3060
00E0C0
0387C0
1E0180
000000
ENDCHAR

STARTCHAR jisx0208_3058
ENCODING 12376
SWIDTH 960 0
DWIDTH 20 0
BBX 20 20 0 -2
BITMAP
000000
0E0E00
0C0CC0
0DFFE0
0B0C00
7F1700
0C3180
1CE0C0
1E0030
1BFFF0
2C00C0
2C6CC0
6C7EC0
0C6CC0
0C6CC0
0C7CC0
0C6CC0
0C03C0
0C0180
000000
ENDCHAR

STARTCHAR jisx0208_3059
ENCODING 12377
SWIDTH 960 0
DWIDTH 20 0
BBX 20 20 0 -2
BITMAP
000000
0C7000
066600
3FFF00
00C600
00C600
018D80
01FFC0
030180
030180
060360
0FFFF0
180060
300660
6DB360
0CDB60
0CD8C0
1807C0
000180
000000
ENDCHAR

STARTCHAR jisx0208_305A
ENCODING 12378
SWIDTH 960 0
DWIDTH 20 0
BBX 20 20 0 -2
BITMAP
000000
180180
1FFFC0
186180
1FFF80
186180
186180
1FFF80
180180
0000C0
7FFFE0
0C6000
0C30C0
0C31C0
0C1700
0C0C00
0CF700
7F83E0
3000C0
000000
ENDCHAR

STARTCHAR jisx0208_305B
ENCODING 12379
SWIDTH 960 0
DWIDTH 20 0
BBX 20 20 0 -2
BITMAP
000000
180180
1FFFC0
186180
186180
1FFF80
186180
186180
1FFF80
030C00
030D80
3FFFC0
030C00
030CC0
7FFFE0
000000
030700
0E01C0
780060
000000
ENDCHAR

STARTCHAR jisx0208_305C
ENCODING 12380
SWIDTH 960 0
DWIDTH 20 0
BBX 20 20 0 -2
BITMAP
000000
030E00
0F8CC0
7C1FE0
0C30C0
0AD980
7F8B00
0C0600
1C1C00
1EF700
1B0660
2D8FF0
2C3860
6CD8C0
0C0D80
0C0700
0C0600
0C1C00
0CF000
000000
ENDCHAR

STARTCHAR jisx0208_305D
ENCODING 12381
SWIDTH 960 0
DWIDTH 20 0
BBX 20 20 0 -2
BITMAP
000000
0C1DC0
0C1980
1B3300
733360
367FF0
1CB300
0B3300
1B3360
7DBFE0
0DB300
0C3300
2B3360
2DBFE0
2DB300
2DB300
6C3360
0C3FF0
0C3000
000000
ENDCHAR

STARTCHAR jisx0208_305E
ENCODING 12382
SWIDTH 960 0
DWIDTH 20 0
BBX 20 20 0 -2
BITMAP
000000
0C0E00
0C0D80
1B7FC0
731980
361960
1CFFF0
0B0000
1B3FC0
7DB0C0
0DB0C0
0C3FC0
2B6300
2D7FE0
2D6300
2C6360
6CFFF0
0C0300
0C0300
000000
ENDCHAR

STARTCHAR jisx0208_305F
ENCODING 12383
SWIDTH 960 0
DWIDTH 20 0
BBX 20 20 0 -2
BITMAP
000000
3000C0
3FFFE0
3060C0
3FFFC0
3060C0
3060C0
3FFFC0
000000
1FFF80
180180
180180
1FFF80
180180
1FFF80
180180
180180
180F80
180300
000000
ENDCHAR

STARTCHAR jisx0208_3060
ENCODING 12384
SWIDTH 960 0
DWIDTH 20 0
BBX 20 20 0 -2
BITMAP
000000
0198C0
7FFFE0
019980
0007C0
1FFC00
0060C0
7FFFE0
00F000
075E00
7C63E0
00C000
0180C0
7FFFE0
030600
07CC00
007C00
01E700
3F01C0
000000
ENDCHAR

STARTCHAR jisx0208_3061
ENCODING 12385
SWIDTH 960 0
DWIDTH 20 0
BBX 20 20 0 -2
BITMAP
000000
007000
006000
0060C0
7FFFE0
006000
00B000
01B1C0
01B180
031B00
071600
0B0C00
3B0C00
630600
030700
031B80
02F1E0
3F80C0
180000
000000
ENDCHAR

STARTCHAR jisx0208_3062
ENCODING 12386
SWIDTH 960 0
DWIDTH 20 0
BBX 20 20 0 -2
BITMAP
000000
036060
3F7FF0
006660
017FE0
7F6660
006660
037FE0
3F0000
003FC0
3F30C0
003FC0
3330C0
3FB0C0
333FC0
3330C0
3330C0
3F37C0
333180
000000
ENDCHAR

STARTCHAR jisx0208_3063
ENCODING 12387
SWIDTH 960 0
DWIDTH 20 0
BBX 20 20 0 -2
BITMAP
000000
001C00
301980
19FFC0
181980
003160
03FFF0
000000
0C7FC0
7E60C0
0C7FC0
0CC600
0CFFE0
0CC600
0BFFF0
0C0600
160600
738000
30FFF0
000000
ENDCHAR

STARTCHAR jisx0208_3064
ENCODING 12388
SWIDTH 960 0
DWIDTH 20 0
BBX 20 20 0 -2
BITMAP
000000
000C00
30FFC0
18CCC0
18FFC0
000C30
03FFF0
000000
0CFFC0
7EC0C0
0CFFC0
0CC0C0
0CFFC0
0CC0C0
0CFFC0
0C31C0
16E0E0
738000
30FFF0
000000
ENDCHAR

STARTCHAR jisx0208_3065
ENCODING 12389
SWIDTH 960 0
DWIDTH 20 0
BBX 20 20 0 -2
BITMAP
000000
600180
7FFFC0
600000
638000
630600
67FF00
666000
6C6000
606300
5FFF80
606000
60B800
60CE00
638700
5E0300
6000C0
7FFFE0
600000
000000
ENDCHAR

STARTCHAR jisx0208_3066
ENCODING 12390
SWIDTH 960 0
DWIDTH 20 0
BBX 20 20 0 -2
BITMAP
000000
038700
030600
030600
0306C0
3FFFE0
030600
030600
030600
030600
030660
7FFFF0
030600
030600
060600
060600
0C0600
180600
300600
000000
ENDCHAR

STARTCHAR jisx0208_3067
ENCODING 12391
SWIDTH 960 0
DWIDTH 20 0
BBX 20 20 0 -2
BITMAP
000000
007000
006000
0060C0
7FFFE0
00C000
018700
0B0600
060C00
039800
01B1C0
006180
01C300
070600
3C0C00
003600
00E380
0780E0
3C0060
000000
ENDCHAR

STARTCHAR jisx0208_3068
ENCODING 12392
SWIDTH 960 0
DWIDTH 20 0
BBX 20 20 0 -2
BITMAP
000000
1C06C0
180660
180660
180600
15FFF0
7E0600
180600
19B670
19F660
19B660
19B2C0
19F2C0
1982C0
1E1980
7873B0
37C6B0
031CE0
007070
000000
ENDCHAR

STARTCHAR jisx0208_3069
ENCODING 12393
SWIDTH 960 0
DWIDTH 20 0
BBX 20 20 0 -2
BITMAP
000000
007000
0060C0
7FFFE0
018300
031F80
3FF0C0
1800C0
060300
07FF80
060300
060300
07FF00
060300
07FF00
060300
060300
061F00
060600
000000
ENDCHAR

STARTCHAR jisx0208_306A
ENCODING 12394
SWIDTH 960 0
DWIDTH 20 0
BBX 20 20 0 -2
BITMAP
000000
070660
0667F0
7FF660
0C0660
0C06C0
1866C0
1FF580
186580
3866C0
5FE660
186660
186630
1FE630
186630
1865F0
186660
19E600
18C600
000000
ENDCHAR

STARTCHAR jisx0208_306B
ENCODING 12395
SWIDTH 960 0
DWIDTH 20 0
BBX 20 20 0 -2
BITMAP
000000
0636C0
7F6580
18D760
185560
1836C0
306DB0
36F7E0
3F06C0
760660
75FFF0
366600
366670
366360
367AC0
3E6DB0
36C2B0
30CEE0
01B870
000000
ENDCHAR

STARTCHAR jisx0208_306C
ENCODING 12396
SWIDTH 960 0
DWIDTH 20 0
BBX 20 20 0 -2
BITMAP
000000
000000
000000
000000
000000
000000
000000
000000
000060
7FFFF0
000000
000000
000000
000000
000000
000000
000000
000000
000000
000000
ENDCHAR

STARTCHAR jisx0208_306D
ENCODING 12397
SWIDTH 960 0
DWIDTH 20 0
BBX 20 20 0 -2
BITMAP
000000
007000
006180
3FFFC0
006000
006300
1FFF80
000000
3000C0
3FFFE0
7000C0
600180
070600
061F00
07F000
0600C0
0600C0
0600E0
03FFC0
000000
ENDCHAR

STARTCHAR jisx0208_306E
ENCODING 12398
SWIDTH 960 0
DWIDTH 20 0
BBX 20 20 0 -2
BITMAP
000000
30C1C0
186180
186360
03FFF0
606300
306300
2CC180
0CC1C0
0D80F0
1B0060
1980C0
19FFE0
71B6C0
31B6C0
31B6C0
31B6B0
37FFF0
300000
000000
ENDCHAR

STARTCHAR jisx0208_306F
ENCODING 12399
SWIDTH 960 0
DWIDTH 20 0
BBX 20 20 0 -2
BITMAP
000000
003800
303300
187F80
18C300
0386C0
00FFE0
00CCC0
0CCCC0
7ECCC0
0CFFC0
0CB6C0
0C3600
0C6660
0CC670
0B83E0
160000
738000
30FFF0
000000
ENDCHAR

STARTCHAR jisx0208_3070
ENCODING 12400
SWIDTH 960 0
DWIDTH 20 0
BBX 20 20 0 -2
BITMAP
000000
0300C0
0F83E0
7C7E00
0C0070
0B6C60
7FB6C0
0C36C0
1C0C60
1E6FF0
1B6C60
2D6C60
2C6C60
6C6FE0
0C6C60
0C6C60
0C6C60
0C6FE0
0C6C60
000000
ENDCHAR

STARTCHAR jisx0208_3071
ENCODING 12401
SWIDTH 960 0
DWIDTH 20 0
BBX 20 20 0 -2
BITMAP
000000
038700
030660
7FFFF0
030600
037600
306000
1860C0
18FFE0
00D8C0
0D9980
0B1B00
182C00
182C00
706600
306300
30C380
3181E0
3700C0
000000
ENDCHAR

STARTCHAR jisx0208_3072
ENCODING 12402
SWIDTH 960 0
DWIDTH 20 0
BBX 20 20 0 -2
BITMAP
000000
038E00
030CC0
7FFFE0
030C00
030C00
000300
1FFF80
006000
006000
0060C0
7FFFE0
006000
006000
006000
006000
006000
03E000
00C000
000000
ENDCHAR

STARTCHAR jisx0208_3073
ENCODING 12403
SWIDTH 960 0
DWIDTH 20 0
BBX 20 20 0 -2
BITMAP
000000
1C0C60
167BF0
1F0C60
360C60
2B2D60
7FBDE0
2B3180
2B6B60
3F7BF0
2B0C60
2B6B60
3F2D60
331CE0
006B60
556B60
558C60
563DE0
6018C0
000000
ENDCHAR

STARTCHAR jisx0208_3074
ENCODING 12404
SWIDTH 960 0
DWIDTH 20 0
BBX 20 20 0 -2
BITMAP
000000
00E000
00C000
018600
018300
030180
0300C0
063F60
3FEC60
198E00
01CC00
018C00
018C00
018C00
030C00
030C60
060C60
1C0C70
7007E0
000000
ENDCHAR

STARTCHAR jisx0208_3075
ENCODING 12405
SWIDTH 960 0
DWIDTH 20 0
BBX 20 20 0 -2
BITMAP
000000
030000
67B060
7C3FF0
603060
603060
603060
603060
633060
7FB060
603060
603060
603060
603060
633060
7FB3E0
6030C0
003000
003000
000000
ENDCHAR

STARTCHAR jisx0208_3076
ENCODING 12406
SWIDTH 960 0
DWIDTH 20 0
BBX 20 20 0 -2
BITMAP
000000
018060
6DFFF0
7D8060
6D8E60
6D8C60
6D8D60
6D7F60
6D8C60
6D8C60
6D8E60
6D9B60
7D9B60
6DB160
616160
018060
018060
01FFE0
018060
000000
ENDCHAR

STARTCHAR jisx0208_3077
ENCODING 12407
SWIDTH 960 0
DWIDTH 20 0
BBX 20 20 0 -2
BITMAP
000000
0C0180
0FFFC0
0C0180
0C0180
0FFF80
1800C0
1FFFE0
1800C0
1FFFC0
1800C0
1FFFC0
1800C0
1800C0
1FFFC0
1800C0
030700
0E01C0
780060
000000
ENDCHAR

STARTCHAR jisx0208_3078
ENCODING 12408
SWIDTH 960 0
DWIDTH 20 0
BBX 20 20 0 -2
BITMAP
000000
600060
7FFFF0
600060
607060
606060
606660
6FFF60
606060
60B060
60B060
619860
618C60
630E60
660760
5C0360
600060
7FFFE0
600060
000000
ENDCHAR

STARTCHAR jisx0208_3079
ENCODING 12409
SWIDTH 960 0
DWIDTH 20 0
BBX 20 20 0 -2
BITMAP
000000
1C6060
187FF0
186060
1B6760
7F6660
1B6560
1B7FE0
336660
336660
336B60
336B60
365960
765960
6E7160
0B6060
1B6060
307FE0
606060
000000
ENDCHAR

STARTCHAR jisx0208_307A
ENCODING 12410
SWIDTH 960 0
DWIDTH 20 0
BBX 20 20 0 -2
BITMAP
000000
00C0E0
7FE0C0
00C0C0
00C0C0
30C0C0
3FC0C0
3000C0
3000C0
30C0C0
7FE0C0
60C0C0
60C0C0
00C0C0
00C0C0
0180C0
0180C0
1F00C0
0600C0
000000
ENDCHAR

STARTCHAR jisx0208_307B
ENCODING 12411
SWIDTH 960 0
DWIDTH 20 0
BBX 20 20 0 -2
BITMAP
000000
0E0E00
0B0C00
198C00
16D860
359FF0
7FB660
31B660
3166C0
3F8600
318600
318B00
3F8B00
300D80
331980
3198C0
36B0E0
7C6070
60C060
000000
ENDCHAR

STARTCHAR jisx0208_307C
ENCODING 12412
SWIDTH 960 0
DWIDTH 20 0
BBX 20 20 0 -2
BITMAP
000000
3000C0
180FE0
19FC00
0000E0
6198C0
30CCC0
2CCD80
0C07E0
0DFC00
180C00
180C60
1BFFF0
700C00
300C00
300C00
300CC0
31FFE0
300000
000000
ENDCHAR

STARTCHAR jisx0208_307D
ENCODING 12413
SWIDTH 960 0
DWIDTH 20 0
BBX 20 20 0 -2
BITMAP
000000
1C61C0
1AC180
199980
18B180
186D80
18CD80
17F580
180180
1B0D80
1BFD80
1B0D80
1BFD80
1B0D80
1BFD80
1B0DB0
330DB0
333DB0
6319F0
000000
ENDCHAR

STARTCHAR jisx0208_307E
ENCODING 12414
SWIDTH 960 0
DWIDTH 20 0
BBX 20 20 0 -2
BITMAP
000000
018C60
7FFFF0
018C00
360C00
3F1600
363300
3661C0
2DBF70
2C0000
36FFC0
360180
333F80
330060
33FFF0
2E1980
3033C0
31FE60
30C060
000000
ENDCHAR

STARTCHAR jisx0208_3121
ENCODING 12577
SWIDTH 960 0
DWIDTH 20 0
BBX 20 20 0 -2
BITMAP
000000
660E00
7ECC60
66FFF0
6DC060
6D80C0
580300
587F80
6C0000
6C00C0
65FFE0
663600
663600
5E3600
6C3600
606660
606660
60C670
6383E0
000000
ENDCHAR

STARTCHAR jisx0208_3122
ENCODING 12578
SWIDTH 960 0
DWIDTH 20 0
BBX 20 20 0 -2
BITMAP
000000
661C00
7F1600
663300
6C61C0
6CBEF0
5B8060
580180
6CFFC0
6C0180
660300
667FC0
660000
5E0060
6DFFF0
601980
6033C0
60FE60
606060
000000
ENDCHAR

STARTCHAR jisx0208_3123
ENCODING 12579
SWIDTH 960 0
DWIDTH 20 0
BBX 20 20 0 -2
BITMAP
000000
6600C0
7F03E0
66FE00
6CD8E0
6C6CC0
586D80
58FFC0
6C00C0
6CFFC0
6600C0
6600C0
66FFC0
5E00C0
6C2C00
61B660
61B1B0
61B1B0
631F80
000000
ENDCHAR

STARTCHAR jisx0208_3124
ENCODING 12580
SWIDTH 960 0
DWIDTH 20 0
BBX 20 20 0 -2
BITMAP
000000
0E0CC0
0CCFE0
7FCCC0
318FC0
198000
1B1FE0
7FD860
001860
319FE0
3FD860
319FE0
319860
3F9860
319FE0
318000
3F8CC0
319860
307030
000000
ENDCHAR

STARTCHAR jisx0208_3125
ENCODING 12581
SWIDTH 960 0
DWIDTH 20 0
BBX 20 20 0 -2
BITMAP
000000
0001C0
660180
7F0180
660180
6601B0
66FFF0
660180
660180
666180
663180
663180
7E3180
660180
600180
000180
000180
000F80
000300
000000
ENDCHAR

STARTCHAR jisx0208_3126
ENCODING 12582
SWIDTH 960 0
DWIDTH 20 0
BBX 20 20 0 -2
BITMAP
000000
007000
006000
006060
7FFFF0
00C000
018000
018000
030000
0300C0
07FFE0
0B00C0
1B00C0
3300C0
6300C0
0300C0
0300C0
03FFC0
0300C0
000000
ENDCHAR

STARTCHAR jisx0208_3127
ENCODING 12583
SWIDTH 960 0
DWIDTH 20 0
BBX 20 20 0 -2
BITMAP
000000
007000
3060C0
3FFFE0
7000C0
600180
000600
0FFF00
006000
006000
0060C0
7FFFE0
006000
006000
006000
006000
006000
03E000
00C000
000000
ENDCHAR

STARTCHAR jisx0208_3128
ENCODING 12584
SWIDTH 960 0
DWIDTH 20 0
BBX 20 20 0 -2
BITMAP
000000
00E000
0CC180
0FFFC0
0C0180
0C0180
0FFF80
0C0000
0C00C0
0FFFE0
0C0000
0C0060
0FFFF0
0C0060
006C60
333660
31B0C0
3187C0
600180
000000
ENDCHAR

STARTCHAR jisx0208_3129
ENCODING 12585
SWIDTH 960 0
DWIDTH 20 0
BBX 20 20 0 -2
BITMAP
000000
00C060
7FBFF0
00C060
00C060
30D860
18CC60
0CC660
0CC660
00C060
00C060
02C160
0EC760
78BC60
30D860
00C060
00C060
07C3E0
0180C0
000000
ENDCHAR

STARTCHAR jisx0208_312A
ENCODING 12586
SWIDTH 960 0
DWIDTH 20 0
BBX 20 20 0 -2
BITMAP
000000
0000C0
31FFE0
180C00
180C00
000C00
000C00
000C60
0BFFF0
7E0C00
0C0C00
0C0C00
0C0C00
0C0C00
0C0C00
0C7C00
161800
738000
30FFF0
000000
ENDCHAR

STARTCHAR jisx0208_312B
ENCODING 12587
SWIDTH 960 0
DWIDTH 20 0
BBX 20 20 0 -2
BITMAP
000000
0000C0
7FFFE0
006000
006000
3060C0
3FFFE0
3060C0
3060C0
366CC0
3366C0
3366C0
3060C0
366CC0
3366C0
3366C0
3060C0
3063C0
306180
000000
ENDCHAR

STARTCHAR jisx0208_312C
ENCODING 12588
SWIDTH 960 0
DWIDTH 20 0
BBX 20 20 0 -2
BITMAP
000000
00C000
1BEC60
1F0FF0
180C60
18EC60
18CC60
18CC60
18CC60
18CC60
18CC60
1BCC60
1ECC60
798C60
318C60
030BE0
060CC0
1C0C00
700C00
000000
ENDCHAR

STARTCHAR jisx0208_312D
ENCODING 12589
SWIDTH 960 0
DWIDTH 20 0
BBX 20 20 0 -2
BITMAP
000000
318700
199660
1ADFF0
7FD860
06DFE0
36D860
3FD860
361FE0
36D830
7FDFF0
66D800
0EDFF0
16C030
16AAB0
37B570
65B5B0
0661E0
0600C0
000000
ENDCHAR

STARTCHAR jisx0208_312E
ENCODING 12590
SWIDTH 960 0
DWIDTH 20 0
BBX 20 20 0 -2
BITMAP
000000
007000
3060C0
3FFFE0
7198C0
671980
1C0F80
0E6180
0C7FC0
3F6180
0C7F80
0D6180
7F7F80
0C6180
0E7F80
1B3600
19B660
306660
61C3E0
000000
ENDCHAR

STARTCHAR jisx0208_312F
ENCODING 12591
SWIDTH 960 0
DWIDTH 20 0
BBX 20 20 0 -2
BITMAP
000000
000300
3FFF80
018300
018300
018300
018300
030300
030360
7FFFF0
030600
030600
030600
060600
060600
060600
060660
7FFFF0
000000
000000
ENDCHAR

STARTCHAR jisx0208_3130
ENCODING 12592
SWIDTH 960 0
DWIDTH 20 0
BBX 20 20 0 -2
BITMAP
000000
063B80
7F3300
186600
186660
18FFF0
316600
366600
3F66C0
767FE0
766600
366600
3666C0
367FE0
366600
3E6600
366660
307FF0
006000
000000
ENDCHAR

STARTCHAR jisx0208_3131
ENCODING 12593
SWIDTH 960 0
DWIDTH 20 0
BBX 20 20 0 -2
BITMAP
000000
018000
37C0C0
3E1FE0
3000C0
3000C0
3000C0
3000C0
3000C0
3300C0
3F9FC0
3000C0
3000C0
3000C0
3000C0
3000C0
3000C0
3FFFC0
3000C0
000000
ENDCHAR

STARTCHAR jisx0208_3132
ENCODING 12594
SWIDTH 960 0
DWIDTH 20 0
BBX 20 20 0 -2
BITMAP
000000
30C180
18FFC0
18C180
00D980
66DF80
36D980
2CD980
0AD960
0BFFF0
1B0060
1B6360
1B7F60
736360
336360
337F60
336360
3361E0
3300C0
000000
ENDCHAR

STARTCHAR jisx0208_3133
ENCODING 12595
SWIDTH 960 0
DWIDTH 20 0
BBX 20 20 0 -2
BITMAP
000000
000E00
6C0CC0
7E0FC0
6D8C60
6DFFF0
6D8C60
6D8BC0
6D7E00
6D8C60
6D87E0
7D8000
6B1B80
62DB60
035B60
065AC0
065B00
0C1B30
01FFF0
000000
ENDCHAR

STARTCHAR jisx0208_3134
ENCODING 12596
SWIDTH 960 0
DWIDTH 20 0
BBX 20 20 0 -2
BITMAP
000000
006060
667FF0
7F6060
666060
666060
667FE0
666060
666060
666060
667FE0
666060
7E6060
666060
607FE0
006060
0030C0
006060
01C030
000000
ENDCHAR

STARTCHAR jisx0208_3135
ENCODING 12597
SWIDTH 960 0
DWIDTH 20 0
BBX 20 20 0 -2
BITMAP
000000
0AD9B0
7F77F0
0CD980
1EDBC0
2B7560
6CD9B0
1800C0
1FFFE0
198CC0
1FFFC0
186180
1FE160
187FF0
1FD980
18CD80
19C180
7F6780
306300
000000
ENDCHAR

STARTCHAR jisx0208_3136
ENCODING 12598
SWIDTH 960 0
DWIDTH 20 0
BBX 20 20 0 -2
BITMAP
000000
01CE00
018C60
7FFFF0
018C00
3030E0
3FF8C0
3030B0
3FEFF0
3000C0
37E0C0
300CC0
2FF6C0
3186C0
2D60C0
2DB0C0
59B0C0
6787C0
030180
000000
ENDCHAR

STARTCHAR jisx0208_3137
ENCODING 12599
SWIDTH 960 0
DWIDTH 20 0
BBX 20 20 0 -2
BITMAP
000000
1C30C0
163FE0
1F30C0
363FC0
2B30C0
7FBFC0
2B6060
2B7FF0
3F6B60
2B6B60
2B7FE0
3F0000
337FC0
0018C0
558D80
558700
561DC0
60F070
000000
ENDCHAR

STARTCHAR jisx0208_3138
ENCODING 12600
SWIDTH 960 0
DWIDTH 20 0
BBX 20 20 0 -2
BITMAP
000000
1C0E00
180C70
180B60
1B7F60
7F8CC0
1B0CC0
1B0DB0
32FFF0
330600
331C00
3318C0
363BE0
76DF00
6E1800
0B1860
1B1860
301870
600FE0
000000
ENDCHAR

STARTCHAR jisx0208_3139
ENCODING 12601
SWIDTH 960 0
DWIDTH 20 0
BBX 20 20 0 -2
BITMAP
000000
3000C0
3FFFE0
300000
3660C0
37FFE0
366D80
366D80
37ED80
366D60
367FE0
37E300
366300
36C580
366580
36ED80
5FADB0
6C19B0
6031F0
000000
ENDCHAR

STARTCHAR jisx0208_313A
ENCODING 12602
SWIDTH 960 0
DWIDTH 20 0
BBX 20 20 0 -2
BITMAP
000000
300EC0
180C60
180C60
03FFF0
600C00
318C60
31FFF0
0D8C60
0D8C60
0DFFE0
198C60
198C60
19FFE0
718C60
318C60
318C60
318DE0
3180C0
000000
ENDCHAR

STARTCHAR jisx0208_313B
ENCODING 12603
SWIDTH 960 0
DWIDTH 20 0
BBX 20 20 0 -2
BITMAP
000000
000180
0C1FC0
0FF300
0C6300
0C7300
0C6300
0C6300
0C6300
0C6180
0C6180
0C6180
0C6180
186CC0
1866C0
187EC0
37E2E0
330370
600060
000000
ENDCHAR

STARTCHAR jisx0208_313C
ENCODING 12604
SWIDTH 960 0
DWIDTH 20 0
BBX 20 20 0 -2
BITMAP
000000
619860
7FDFF0
619860
7F9FE0
619860
7F9FE0
619860
600660
67FE60
606060
606C60
63FC60
606060
606060
606660
6FFF60
6001E0
6000C0
000000
ENDCHAR

STARTCHAR jisx0208_313D
ENCODING 12605
SWIDTH 960 0
DWIDTH 20 0
BBX 20 20 0 -2
BITMAP
000000
6C3180
7E1B60
6DFFF0
6C1B00
6CDB60
6CFFF0
6CDB60
6CF3E0
6CC060
6CFFE0
7CC060
6CFFE0
0001B0
03FFF0
006180
003180
003780
000300
000000
ENDCHAR

STARTCHAR jisx0208_313E
ENCODING 12606
SWIDTH 960 0
DWIDTH 20 0
BBX 20 20 0 -2
BITMAP
000000
000300
0FFF80
000000
000000
000000
000000
000060
7FFFF0
00C000
00C000
018000
018600
030300
030180
0600C0
060FC0
3FF860
180060
000000
ENDCHAR

STARTCHAR jisx0208_313F
ENCODING 12607
SWIDTH 960 0
DWIDTH 20 0
BBX 20 20 0 -2
BITMAP
000000
018060
31FFF0
1B8C60
1B0CC0
00FFC0
000C00
00FFC0
0CCCC0
7EFFC0
0CCCC0
0CFFC0
0C0C00
0C0CC0
0DFFE0
0C0C00
160C00
738000
30FFF0
000000
ENDCHAR

STARTCHAR jisx0208_3140
ENCODING 12608
SWIDTH 960 0
DWIDTH 20 0
BBX 20 20 0 -2
BITMAP
000000
000180
1FFFC0
006000
3FFFE0
706060
6F5EC0
006000
0F5F00
006000
000600
0FFF00
0000C0
7FFFE0
00C600
018300
031F80
1FF0C0
0C00C0
000000
ENDCHAR

STARTCHAR jisx0208_3141
ENCODING 12609
SWIDTH 960 0
DWIDTH 20 0
BBX 20 20 0 -2
BITMAP
000000
01CE00
018C60
7FFFF0
018C00
018C00
0E00C0
0C0FE0
0DFC00
180C00
180C00
380C60
5BFFF0
180C00
180C00
180C00
180C00
180CC0
19FFE0
000000
ENDCHAR

STARTCHAR jisx0208_3142
ENCODING 12610
SWIDTH 960 0
DWIDTH 20 0
BBX 20 20 0 -2
BITMAP
000000
0E0060
0B7FF0
1998C0
16D8C0
3598C0
7FDFC0
3198C0
3198C0
3F98C0
319FC0
3198C0
3F98B0
3018F0
3317C0
317CC0
36C0C0
7CC0C0
6000C0
000000
ENDCHAR

STARTCHAR jisx0208_3143
ENCODING 12611
SWIDTH 960 0
DWIDTH 20 0
BBX 20 20 0 -2
BITMAP
000000
036000
03F060
030FF0
3FF660
703660
6F6660
000660
176660
75B660
0CC360
1FE2C0
7872C0
1FE180
186180
1FE2C0
1866C0
1FEC60
185830
000000
ENDCHAR

STARTCHAR jisx0208_3144
ENCODING 12612
SWIDTH 960 0
DWIDTH 20 0
BBX 20 20 0 -2
BITMAP
000000
0CC380
066300
366660
3FFFF0
700060
6602C0
07FF80
060300
060300
07FF00
066300
18C0C0
1FFFE0
1800C0
1800C0
1800C0
1FFFC0
1800C0
000000
ENDCHAR

STARTCHAR jisx0208_3145
ENCODING 12613
SWIDTH 960 0
DWIDTH 20 0
BBX 20 20 0 -2
BITMAP
000000
18D8C0
1FDFE0
18D8C0
1FDFC0
18D8C0
1FDFC0
18D8C0
1FDFC0
0D8D80
18D8C0
307060
018000
7FFFF0
030600
07CC00
007800
01EF00
3F0180
000000
ENDCHAR

STARTCHAR jisx0208_3146
ENCODING 12614
SWIDTH 960 0
DWIDTH 20 0
BBX 20 20 0 -2
BITMAP
000000
186070
1FF060
1860C0
1FE380
186E00
1FE000
031870
7FF860
0000C0
1FE380
186E00
1FE000
030070
1AC060
1B60C0
336180
6F0700
061C00
000000
ENDCHAR

STARTCHAR jisx0208_3147
ENCODING 12615
SWIDTH 960 0
DWIDTH 20 0
BBX 20 20 0 -2
BITMAP
000000
000E00
660C00
7ECCC0
66FFE0
66CCC0
66CCC0
66CCC0
7ECCC0
66CCB0
67FFF0
660C00
661600
661600
7E3300
663300
6061C0
00C0F0
038060
000000
ENDCHAR

STARTCHAR jisx0208_3148
ENCODING 12616
SWIDTH 960 0
DWIDTH 20 0
BBX 20 20 0 -2
BITMAP
000000
007000
186180
1FFFC0
186180
186180
1FFF80
186180
186180
186180
1FFF80
186180
1861C0
003380
001630
001C30
00F730
0781E0
7C0070
000000
ENDCHAR

STARTCHAR jisx0208_3149
ENCODING 12617
SWIDTH 960 0
DWIDTH 20 0
BBX 20 20 0 -2
BITMAP
000000
0CC380
066300
066600
300CC0
3FFFE0
7000C0
607180
006000
0060C0
7FFFE0
00F000
015800
036C00
066700
1C63E0
7060C0
006000
006000
000000
ENDCHAR

STARTCHAR jisx0208_314A
ENCODING 12618
SWIDTH 960 0
DWIDTH 20 0
BBX 20 20 0 -2
BITMAP
000000
01C000
007000
003000
006000
0FF000
006000
0061C0
037180
3F7300
035600
036C00
066C00
066600
0C6380
1861E0
7060C0
03E000
00C000
000000
ENDCHAR

STARTCHAR jisx0208_314B
ENCODING 12619
SWIDTH 960 0
DWIDTH 20 0
BBX 20 20 0 -2
BITMAP
000000
303800
180E00
180600
600C00
31FE00
300C00
0C0CE0
0C6EC0
0BED80
186B00
186B00
18CD80
70CDC0
318CF0
330C60
360C00
307C00
301800
000000
ENDCHAR

STARTCHAR jisx0208_314C
ENCODING 12620
SWIDTH 960 0
DWIDTH 20 0
BBX 20 20 0 -2
BITMAP
000000
301C00
181800
1998C0
01FFE0
6598C0
3598C0
2DFFC0
0D98C0
0D98C0
19FFC0
1998C0
1998E0
700CC0
300D80
300730
300F30
3079E0
37C070
000000
ENDCHAR

STARTCHAR jisx0208_314D
ENCODING 12621
SWIDTH 960 0
DWIDTH 20 0
BBX 20 20 0 -2
BITMAP
000000
063B80
7E3360
19FFE0
183300
180E00
18CCC0
18FFE0
7ECCC0
18CCC0
18CCC0
18CCB0
1BFFF0
180C00
1E1600
783300
3061C0
00C0F0
038060
000000
ENDCHAR

STARTCHAR jisx0208_314E
ENCODING 12622
SWIDTH 960 0
DWIDTH 20 0
BBX 20 20 0 -2
BITMAP
000000
000600
3FFF00
060600
060600
066660
0FEFF0
0C6C60
0B6060
18C0C0
1967C0
373180
600000
0C0180
0FFFC0
0CD980
0CD980
0CD960
7FFFF0
000000
ENDCHAR

STARTCHAR jisx0208_314F
ENCODING 12623
SWIDTH 960 0
DWIDTH 20 0
BBX 20 20 0 -2
BITMAP
000000
398060
33BFF0
3E0300
30D660
30DFF0
1FD860
001860
03DFE0
3F1860
061860
06DFE0
7FD860
061860
0F1FE0
158000
36CCC0
661860
067030
000000
ENDCHAR

STARTCHAR jisx0208_3150
ENCODING 12624
SWIDTH 960 0
DWIDTH 20 0
BBX 20 20 0 -2
BITMAP
000000
398060
33BFF0
3E0300
30D660
30DFF0
1FD860
001860
019FE0
3FD860
001860
00DFE0
7FD860
061860
359FE0
36C000
66CCC0
1E1860
0C7030
000000
ENDCHAR

STARTCHAR jisx0208_3151
ENCODING 12625
SWIDTH 960 0
DWIDTH 20 0
BBX 20 20 0 -2
BITMAP
000000
038E00
030CC0
7FFFE0
030C00
036C00
0C6300
0FFF80
0C6300
0C6300
0C6300
0C62C0
7FFFE0
006000
00B000
019800
030E00
0E03E0
7800C0
000000
ENDCHAR

STARTCHAR jisx0208_3152
ENCODING 12626
SWIDTH 960 0
DWIDTH 20 0
BBX 20 20 0 -2
BITMAP
000000
1CE060
18DBE0
33FC00
60D800
00D600
1FFE30
1803F0
39FCC0
398CC0
59FCC0
1830C0
19FCC0
19B0C0
19ACC0
17FEC0
1830C0
1833C0
183180
000000
ENDCHAR

STARTCHAR jisx0208_3153
ENCODING 12627
SWIDTH 960 0
DWIDTH 20 0
BBX 20 20 0 -2
BITMAP
000000
030C00
3F0600
000000
018600
7F7F00
000600
030670
3F1760
00FEC0
3F1580
001580
331580
3FB6C0
3336E0
336670
32C660
3F1E00
330C00
000000
ENDCHAR

STARTCHAR jisx0208_3154
ENCODING 12628
SWIDTH 960 0
DWIDTH 20 0
BBX 20 20 0 -2
BITMAP
000000
0E31C0
0B1980
199980
196360
337FF0
7F6060
0C6060
0D6060
7F6060
0C7FE0
0D5B60
6D9B00
2D9B00
2B1B00
0C3330
0BB330
7E6330
30C1F0
000000
ENDCHAR

STARTCHAR jisx0208_3155
ENCODING 12629
SWIDTH 960 0
DWIDTH 20 0
BBX 20 20 0 -2
BITMAP
000000
300E00
180C60
1BFFF0
000000
66E700
36C660
2CC7F0
0D8C60
0D8C60
1B9660
15BAC0
196DC0
718CC0
318580
318300
3185C0
319CF0
317060
000000
ENDCHAR

STARTCHAR jisx0208_3156
ENCODING 12630
SWIDTH 960 0
DWIDTH 20 0
BBX 20 20 0 -2
BITMAP
000000
001C00
0C1860
0FFFF0
0C0000
6CC600
2CFF00
2CC600
0CC660
0D8670
1B03E0
2C0300
6BFF80
0CC300
186600
182C00
301800
30EF00
6F81F0
000000
ENDCHAR

STARTCHAR jisx0208_3157
ENCODING 12631
SWIDTH 960 0
DWIDTH 20 0
BBX 20 20 0 -2
BITMAP
000000
060700
030600
018C60
7FFFF0
030C00
038C00
070600
060300
0C01C0
1800F0
6C0160
0FFFC0
0CD980
0CD980
0CD980
0CD980
0CD9B0
7FFFF0
000000
ENDCHAR

STARTCHAR jisx0208_3158
ENCODING 12632
SWIDTH 960 0
DWIDTH 20 0
BBX 20 20 0 -2
BITMAP
000000
30D860
3FDFF0
361860
36D860
3FD860
361860
36D860
3FDFE0
361B60
36DB00
3FDB00
00D980
55D980
56B180
58B0C0
61B0E0
0F6070
02C060
000000
ENDCHAR

STARTCHAR jisx0208_3159
ENCODING 12633
SWIDTH 960 0
DWIDTH 20 0
BBX 20 20 0 -2
BITMAP
000000
0E61C0
0C3180
0C3300
2EC6C0
2AFFE0
2AC0C0
2CC0C0
6CC0C0
6CC0C0
0CFFC0
0CB6C0
0C3600
0C3600
0C6600
0C6660
0CC660
0D8670
0B03E0
000000
ENDCHAR

STARTCHAR jisx0208_315A
ENCODING 12634
SWIDTH 960 0
DWIDTH 20 0
BBX 20 20 0 -2
BITMAP
000000
0360C0
3F7FE0
0060C0
017FC0
7F60C0
0060C0
037FC0
3F3000
003060
3F7FF0
00C060
336E60
3F7860
336360
336360
333F60
3F00C0
330380
000000
ENDCHAR

STARTCHAR jisx0208_315B
ENCODING 12635
SWIDTH 960 0
DWIDTH 20 0
BBX 20 20 0 -2
BITMAP
000000
070360
060330
05B330
3FBFF0
063300
063300
05B370
7FB360
063360
0632C0
36B2C0
37ADB0
363BB0
36F6E0
366C70
360000
6E0000
63FFF0
000000
ENDCHAR

STARTCHAR jisx0208_315C
ENCODING 12636
SWIDTH 960 0
DWIDTH 20 0
BBX 20 20 0 -2
BITMAP
000000
619860
7FDFF0
619860
7F9FE0
619860
7F9FE0
619860
630C60
619860
67FE60
660660
660660
67FE60
61B060
61B360
633360
6E1FE0
6000C0
000000
ENDCHAR

STARTCHAR jisx0208_315D
ENCODING 12637
SWIDTH 960 0
DWIDTH 20 0
BBX 20 20 0 -2
BITMAP
000000
0E0060
0DFFF0
0C0C00
0B58C0
7F7FE0
0C60C0
1C7FC0
1E60C0
1B7FC0
2D60C0
2C7FC0
6C1800
0C3FC0
0C7180
0DDB00
0C0E00
0C3B80
0DE0F0
000000
ENDCHAR

STARTCHAR jisx0208_315E
ENCODING 12638
SWIDTH 960 0
DWIDTH 20 0
BBX 20 20 0 -2
BITMAP
000000
300060
3FFFF0
300000
37F1C0
363180
37F160
3631B0
37F180
300FF0
363180
37F980
3633C0
37F2C0
3632C0
37F2E0
363660
663670
66EC60
000000
ENDCHAR

STARTCHAR jisx0208_315F
ENCODING 12639
SWIDTH 960 0
DWIDTH 20 0
BBX 20 20 0 -2
BITMAP
000000
3000C0
3FFFE0
3060C0
3060C0
3060C0
3060C0
3060C0
3060C0
3060C0
3FFFC0
3000C0
3000C0
3000C0
3000C0
3000C0
3000C0
3007C0
300180
000000
ENDCHAR

STARTCHAR jisx0208_3160
ENCODING 12640
SWIDTH 960 0
DWIDTH 20 0
BBX 20 20 0 -2
BITMAP
000000
600060
7FFFF0
606060
606660
6FFF60
606060
5FFF60
600060
67FE60
660660
67FE60
60E360
617660
676E60
5C6360
600060
7FFFE0
600060
000000
ENDCHAR

STARTCHAR jisx0208_3161
ENCODING 12641
SWIDTH 960 0
DWIDTH 20 0
BBX 20 20 0 -2
BITMAP
000000
1D8060
19FFF0
198000
19BFC0
15B0C0
7DBFC0
19B0C0
19BFC0
198600
198C60
197FF0
199980
1DBB00
798780
31BCC0
018000
01FFF0
018000
000000
ENDCHAR

STARTCHAR jisx0208_3162
ENCODING 12642
SWIDTH 960 0
DWIDTH 20 0
BBX 20 20 0 -2
BITMAP
000000
00E000
00C060
7FFFF0
018C00
030600
067300
0C61C0
1FFEF0
6C6360
0C6300
0FFF00
0C6300
0C6300
0FFF00
0C6360
0C6060
006070
003FE0
000000
ENDCHAR

STARTCHAR jisx0208_3163
ENCODING 12643
SWIDTH 960 0
DWIDTH 20 0
BBX 20 20 0 -2
BITMAP
000000
007000
3060C0
3FFFE0
7000C0
67FD80
060600
07FE00
060600
07FE00
06C600
0180C0
7FFFE0
030C00
061800
0FB000
007C00
03C700
3E0180
000000
ENDCHAR

STARTCHAR jisx0208_3164
ENCODING 12644
SWIDTH 960 0
DWIDTH 20 0
BBX 20 20 0 -2
BITMAP
000000
0C00C0
7E07E0
0CFE00
0C0600
180600
187600
3666C0
3F67E0
666600
066600
366600
366600
566660
5DFFF0
0C0000
160000
338000
60FFF0
000000
ENDCHAR

STARTCHAR jisx0208_3165
ENCODING 12645
SWIDTH 960 0
DWIDTH 20 0
BBX 20 20 0 -2
BITMAP
000000
0E18C0
0CDFE0
1FD8C0
18D8C0
38D8C0
6D9BC0
059980
031860
061870
1C0FE0
700000
003000
0398C0
1B1860
1B0330
330330
630380
01FF00
000000
ENDCHAR

STARTCHAR jisx0208_3166
ENCODING 12646
SWIDTH 960 0
DWIDTH 20 0
BBX 20 20 0 -2
BITMAP
000000
1C1C00
181860
19FFF0
163300
7E6180
18CEC0
1B8C70
18FFC0
1ECCC0
78CCC0
58FFC0
18CCC0
18CCC0
18FFC0
18CCC0
18CC60
780C70
3007E0
000000
ENDCHAR

STARTCHAR jisx0208_3167
ENCODING 12647
SWIDTH 960 0
DWIDTH 20 0
BBX 20 20 0 -2
BITMAP
000000
1C00C0
1807E0
18FCC0
166CC0
7E3580
18FFE0
181800
181860
1DFFF0
781800
583180
183FC0
187180
18DB00
1B8E00
180B00
7839F0
31E060
000000
ENDCHAR

STARTCHAR jisx0208_3168
ENCODING 12648
SWIDTH 960 0
DWIDTH 20 0
BBX 20 20 0 -2
BITMAP
000000
300300
183F80
180300
007300
666180
3661C0
2CC0E0
0D8070
0B0060
18C0C0
18FFE0
18C0C0
70C0C0
30C0C0
30C0C0
30C0C0
30FFC0
30C0C0
000000
ENDCHAR

STARTCHAR jisx0208_3169
ENCODING 12649
SWIDTH 960 0
DWIDTH 20 0
BBX 20 20 0 -2
BITMAP
000000
300E00
198C60
19FFF0
038060
630180
30FFC0
2C0C00
0CCCC0
0CFFE0
18CCC0
18FFC0
18CCC0
70CCC0
30FFC0
30C0C0
303180
3060C0
31C060
000000
ENDCHAR

STARTCHAR jisx0208_316A
ENCODING 12650
SWIDTH 960 0
DWIDTH 20 0
BBX 20 20 0 -2
BITMAP
000000
007000
066380
066300
0C6600
18B800
018E00
030380
0E00E0
787060
006000
066380
066300
0CB600
18D800
018C00
030700
0E03E0
7800C0
000000
ENDCHAR

STARTCHAR jisx0208_316B
ENCODING 12651
SWIDTH 960 0
DWIDTH 20 0
BBX 20 20 0 -2
BITMAP
000000
0E1C00
0C1980
0C3FC0
0BB180
2B6180
2EC300
2C0600
6CD860
6CDFF0
0CD860
0CD860
0CD860
0CDFE0
16D860
1AD860
32D860
30DFE0
60D860
000000
ENDCHAR

STARTCHAR jisx0208_316C
ENCODING 12652
SWIDTH 960 0
DWIDTH 20 0
BBX 20 20 0 -2
BITMAP
000000
0E0060
0DFFF0
0C1B00
0ADB60
2AFFF0
2EDB60
2CDB60
6CDB60
6CFFE0
0CC060
0C0E00
0C0C00
0C0CC0
16FFE0
1B0C00
330C00
300C60
61FFF0
000000
ENDCHAR

STARTCHAR jisx0208_316D
ENCODING 12653
SWIDTH 960 0
DWIDTH 20 0
BBX 20 20 0 -2
BITMAP
000000
01DC00
0198C0
7FFFE0
019800
01F800
0E0380
0D9B00
7DFB60
0D9BC0
0D9B00
1D9B60
6DFB60
0D9BE0
000000
199980
18CCC0
30CC60
60CC60
000000
ENDCHAR

STARTCHAR jisx0208_316E
ENCODING 12654
SWIDTH 960 0
DWIDTH 20 0
BBX 20 20 0 -2
BITMAP
000000
670E00
360D80
1CFFC0
180C00
2C0C60
6BFFF0
060000
0EFFC0
16C0C0
16C0C0
36FFC0
6616E0
0636C0
06F380
0DB300
0C2DC0
7DF8F0
18C060
000000
ENDCHAR

STARTCHAR jisx0208_316F
ENCODING 12655
SWIDTH 960 0
DWIDTH 20 0
BBX 20 20 0 -2
BITMAP
000000
0C0180
0C3FC0
1B0180
733F80
360180
1C0160
0AFFF0
1B0600
7D9C70
0D7660
0C0EC0
2B1B80
2D7780
2D8AC0
2DBB70
6CE330
0C1F00
0C0600
000000
ENDCHAR

STARTCHAR jisx0208_3170
ENCODING 12656
SWIDTH 960 0
DWIDTH 20 0
BBX 20 20 0 -2
BITMAP
000000
0B0E00
2ACCC0
3FDFE0
2AD8C0
3FB180
2ADB60
3FDFF0
005B60
7FDB60
001B60
3FDB60
30DFE0
3FD860
199800
0D9860
0DD860
7F1870
300FE0
000000
ENDCHAR

STARTCHAR jisx0208_3171
ENCODING 12657
SWIDTH 960 0
DWIDTH 20 0
BBX 20 20 0 -2
BITMAP
000000
01DC00
0198C0
7FFFE0
019800
019800
0E0000
0CD8C0
0FDFE0
18D8C0
18D8C0
2D98C0
6598C0
031BC0
031980
061860
0C1860
181860
700FE0
000000
ENDCHAR

STARTCHAR jisx0208_3172
ENCODING 12658
SWIDTH 960 0
DWIDTH 20 0
BBX 20 20 0 -2
BITMAP
000000
038E00
030CC0
7FFFE0
030C00
3FFFC0
3060C0
37FCC0
3062C0
2FFEC0
330CC0
33FCC0
30E2C0
3376C0
2E6EC0
3062C0
3000C0
3FFFC0
3000C0
000000
ENDCHAR

STARTCHAR jisx0208_3173
ENCODING 12659
SWIDTH 960 0
DWIDTH 20 0
BBX 20 20 0 -2
BITMAP
000000
000E00
300CC0
19FFE0
180C00
000C60
03FFF0
000000
0CFFC0
7EC0C0
0CC0C0
0CFFC0
0C1C60
0C2EC0
0CED80
0B8CE0
160C60
738000
30FFF0
000000
ENDCHAR

STARTCHAR jisx0208_3174
ENCODING 12660
SWIDTH 960 0
DWIDTH 20 0
BBX 20 20 0 -2
BITMAP
000000
0E0180
0B1FC0
198180
199D80
3318C0
7F18C0
0C30E0
0DB070
7F6060
0C30C0
0DBFE0
6DB0C0
2DB0C0
2B30C0
2C30C0
0BB0C0
7E3FC0
3030C0
000000
ENDCHAR

STARTCHAR jisx0208_3175
ENCODING 12661
SWIDTH 960 0
DWIDTH 20 0
BBX 20 20 0 -2
BITMAP
000000
0CD980
0FDFC0
18D980
6D9980
06D760
1CD870
6FFFE0
0C0300
0FFF00
0C0300
0FFF00
0C00C0
0FFFE0
0C0000
0FFFE0
300060
366C60
6335C0
000000
ENDCHAR

STARTCHAR jisx0208_3176
ENCODING 12662
SWIDTH 960 0
DWIDTH 20 0
BBX 20 20 0 -2
BITMAP
000000
0E7000
0C6060
0CFFF0
0D8000
0B6180
7F7FC0
0C6180
0C6180
0C7F80
0C6000
0CC0C0
0CFFE0
0ED6C0
7CD6C0
30D6C0
00D6C0
00D6B0
03FFF0
000000
ENDCHAR

STARTCHAR jisx0208_3177
ENCODING 12663
SWIDTH 960 0
DWIDTH 20 0
BBX 20 20 0 -2
BITMAP
000000
0E0E00
0C0E00
0D8B00
7FDB00
0C1980
0C18C0
0DB0E0
0FB070
0D6060
0D8600
0D8380
198180
198000
198000
319C00
330700
6F01C0
6600C0
000000
ENDCHAR

STARTCHAR jisx0208_3178
ENCODING 12664
SWIDTH 960 0
DWIDTH 20 0
BBX 20 20 0 -2
BITMAP
000000
3000C0
19FFE0
181800
001800
601860
33FFF0
2C3000
0C3000
0C3060
187FF0
186060
186060
700060
300060
300060
3000C0
300FC0
300180
000000
ENDCHAR

STARTCHAR jisx0208_3179
ENCODING 12665
SWIDTH 960 0
DWIDTH 20 0
BBX 20 20 0 -2
BITMAP
000000
076060
067FF0
366660
356660
3F7FE0
366660
666660
667FE0
056660
3F8600
060660
06FFF0
060C60
07CC60
7E1860
3030C0
0067C0
01C180
000000
ENDCHAR

STARTCHAR jisx0208_317A
ENCODING 12666
SWIDTH 960 0
DWIDTH 20 0
BBX 20 20 0 -2
BITMAP
000000
318C60
3FCFF0
318C60
318C60
318C60
318C60
318C60
318C60
318C60
31FC60
318C60
318060
300060
300060
300060
300060
3FFFE0
300060
000000
ENDCHAR

STARTCHAR jisx0208_317B
ENCODING 12667
SWIDTH 960 0
DWIDTH 20 0
BBX 20 20 0 -2
BITMAP
000000
007000
006000
0C6300
0FFF80
0C6300
0C6300
0C6300
0C6300
0C6360
7FFFE0
006000
00B000
00B000
019800
030C00
060700
1C01E0
7000C0
000000
ENDCHAR

STARTCHAR jisx0208_317C
ENCODING 12668
SWIDTH 960 0
DWIDTH 20 0
BBX 20 20 0 -2
BITMAP
000000
007000
186180
1FFFC0
180180
1B6D80
195980
17FD80
18F180
195D80
176580
180180
186160
7FFFE0
00B000
019800
030E00
0E03E0
7800C0
000000
ENDCHAR

STARTCHAR jisx0208_317D
ENCODING 12669
SWIDTH 960 0
DWIDTH 20 0
BBX 20 20 0 -2
BITMAP
000000
0E1800
0C0C00
180C00
3000C0
6DFFE0
0C0C00
180C00
180C00
380C00
580D80
18FFC0
180C00
180C00
180C00
180C00
180C00
180C60
1BFFF0
000000
ENDCHAR

STARTCHAR jisx0208_317E
ENCODING 12670
SWIDTH 960 0
DWIDTH 20 0
BBX 20 20 0 -2
BITMAP
000000
003800
183060
1FFFF0
180000
181800
180C00
180C00
187000
186180
1B60C0
1B6060
1B6060
1B6030
1B6030
366180
366180
2C61C0
603F80
000000
ENDCHAR

STARTCHAR jisx0208_3221
ENCODING 12833
SWIDTH 960 0
DWIDTH 20 0
BBX 20 20 0 -2
BITMAP
000000
0E6060
0C7FF0
0C6660
0B6660
7F6660
0C6660
0C7FE0
0C6660
0D6660
0F6660
7C6660
6C7FE0
0C6660
0C0600
0C0600
0C0600
3C0600
180600
000000
ENDCHAR

STARTCHAR jisx0208_3222
ENCODING 12834
SWIDTH 960 0
DWIDTH 20 0
BBX 20 20 0 -2
BITMAP
000000
000060
66FFF0
7F0C00
660C00
660C00
660C00
660C00
7E0C00
660CC0
66FFE0
660C00
660C00
660C00
7E0C00
660C00
600C00
000C60
03FFF0
000000
ENDCHAR

STARTCHAR jisx0208_3223
ENCODING 12835
SWIDTH 960 0
DWIDTH 20 0
BBX 20 20 0 -2
BITMAP
000000
0E1DC0
0C1980
0C7FE0
0B1980
7F19B0
0CFFF0
1C0600
1E6660
1B7FF0
2C6660
2C7FE0
6C6660
0C6660
0C7FE0
0C6000
0C18C0
0C3060
0CE030
000000
ENDCHAR

STARTCHAR jisx0208_3224
ENCODING 12836
SWIDTH 960 0
DWIDTH 20 0
BBX 20 20 0 -2
BITMAP
000000
60CE00
7FEC00
600C00
61D860
599FF0
6DB660
673660
6366C0
630600
658600
658B00
6CCB00
6CCD80
58D980
6018C0
7FB0E0
606070
00C060
000000
ENDCHAR

STARTCHAR jisx0208_3225
ENCODING 12837
SWIDTH 960 0
DWIDTH 20 0
BBX 20 20 0 -2
BITMAP
000000
60D980
7FDFC0
601980
61D980
5999B0
6D99B0
65B1F0
633000
6300C0
65BFE0
6598C0
6CD980
6CCD80
58CB00
600600
7FEB80
6039F0
00E060
000000
ENDCHAR

STARTCHAR jisx0208_3226
ENCODING 12838
SWIDTH 960 0
DWIDTH 20 0
BBX 20 20 0 -2
BITMAP
000000
000180
3FFFC0
006000
006000
006000
006000
006000
006600
0FFF00
006000
006000
006000
006000
006000
006000
0060C0
7FFFE0
000000
000000
ENDCHAR

STARTCHAR jisx0208_3227
ENCODING 12839
SWIDTH 960 0
DWIDTH 20 0
BBX 20 20 0 -2
BITMAP
000000
000600
06FF00
060600
0DDB80
198DF0
733E60
1FE300
0C0300
00C060
7FBFF0
00C060
18CC60
0CC660
02C160
0EC760
78BC60
33D9E0
0180C0
000000
ENDCHAR

STARTCHAR jisx0208_3228
ENCODING 12840
SWIDTH 960 0
DWIDTH 20 0
BBX 20 20 0 -2
BITMAP
000000
1C0700
186660
167FF0
7F76E0
065560
067FE0
0C6F60
0C5560
1B76E0
3E6660
566060
1B6760
180600
18FFF0
180600
180B00
1819C0
18F070
000000
ENDCHAR

STARTCHAR jisx0208_3229
ENCODING 12841
SWIDTH 960 0
DWIDTH 20 0
BBX 20 20 0 -2
BITMAP
000000
066300
333660
3FFFF0
706060
6CC2C0
0FFF80
0C0300
0FFF00
0C0300
0FFF00
0C00C0
0FFFE0
0C0000
0FFFE0
000060
36D860
336BE0
6000C0
000000
ENDCHAR

STARTCHAR jisx0208_322A
ENCODING 12842
SWIDTH 960 0
DWIDTH 20 0
BBX 20 20 0 -2
BITMAP
000000
618700
7FD660
601FF0
61D860
599FE0
6D9860
671860
631FE0
671800
659FF0
6D9800
6CDFF0
58C030
602AB0
61AAB0
7FAC60
6063E0
0000C0
000000
ENDCHAR

STARTCHAR jisx0208_322B
ENCODING 12843
SWIDTH 960 0
DWIDTH 20 0
BBX 20 20 0 -2
BITMAP
000000
01DC00
019980
3FFFC0
019800
0198C0
7FFFE0
006000
0C6300
0FFF80
0C6300
0C6300
0FFF00
0C6300
0C6300
0FFF00
030600
0E0380
7800C0
000000
ENDCHAR

STARTCHAR jisx0208_322C
ENCODING 12844
SWIDTH 960 0
DWIDTH 20 0
BBX 20 20 0 -2
BITMAP
000000
600060
7FFFF0
600060
630E60
618C60
619B60
6FFF60
606060
606060
676760
666660
666660
666660
67FE60
660660
600060
6003E0
6000C0
000000
ENDCHAR

STARTCHAR jisx0208_322D
ENCODING 12845
SWIDTH 960 0
DWIDTH 20 0
BBX 20 20 0 -2
BITMAP
000000
300E00
180C00
180C00
018C60
65FFF0
358C60
2D8C60
0D8C60
0D8C60
198C60
19FFE0
198C60
718C00
300C00
300C00
300C00
300C00
300C00
000000
ENDCHAR

STARTCHAR jisx0208_322E
ENCODING 12846
SWIDTH 960 0
DWIDTH 20 0
BBX 20 20 0 -2
BITMAP
000000
01CE00
018C60
7FFFF0
018C00
000000
370E00
160C00
0C6CE0
166CC0
736D80
06CC00
0B1600
1B1600
733300
033380
0661C0
3EC0F0
0D8060
000000
ENDCHAR

STARTCHAR jisx0208_322F
ENCODING 12847
SWIDTH 960 0
DWIDTH 20 0
BBX 20 20 0 -2
BITMAP
000000
0E1C00
0C18C0
0BFFE0
18C300
186660
17FFF0
380000
39FFC0
5980C0
19FFC0
1980C0
19FFC0
180000
1818C0
1AEC60
1ACB30
16C3B0
167F00
000000
ENDCHAR

STARTCHAR jisx0208_3230
ENCODING 12848
SWIDTH 960 0
DWIDTH 20 0
BBX 20 20 0 -2
BITMAP
000000
1800C0
1FFFE0
1800C0
1800C0
1FFFC0
180000
1800C0
1FFFE0
186300
186180
18CFC0
17F8C0
1B1800
301980
33FFC0
301800
601860
6FFFF0
000000
ENDCHAR

STARTCHAR jisx0208_3231
ENCODING 12849
SWIDTH 960 0
DWIDTH 20 0
BBX 20 20 0 -2
BITMAP
000000
1C0E00
180CC0
1DFFE0
566180
563360
5BFFF0
580000
58FFC0
58C0C0
18FFC0
18C0C0
18FFC0
180000
180C00
197660
1965B0
1B61B0
1B3F80
000000
ENDCHAR

STARTCHAR jisx0208_3232
ENCODING 12850
SWIDTH 960 0
DWIDTH 20 0
BBX 20 20 0 -2
BITMAP
000000
360E00
3F0CC0
36FFE0
363180
361B60
3DFFF0
360000
367FC0
3660C0
367FC0
3E60C0
367FC0
360000
360C00
36B660
36B5B0
5DB1B0
6D9F80
000000
ENDCHAR

STARTCHAR jisx0208_3233
ENCODING 12851
SWIDTH 960 0
DWIDTH 20 0
BBX 20 20 0 -2
BITMAP
000000
0E00C0
0CFFE0
0C00C0
0B1B80
7F8E00
0C6660
1C7FF0
1E6660
1B6660
2D7FE0
2C6660
6C6660
0C7FE0
0C6660
0C6660
0C6660
0C65E0
0C60C0
000000
ENDCHAR

STARTCHAR jisx0208_3234
ENCODING 12852
SWIDTH 960 0
DWIDTH 20 0
BBX 20 20 0 -2
BITMAP
000000
070700
060600
360600
360600
358600
3FC6C0
367FE0
660600
660600
060600
05C600
0F0600
760600
660600
060600
060600
060660
06FFF0
000000
ENDCHAR

STARTCHAR jisx0208_3235
ENCODING 12853
SWIDTH 960 0
DWIDTH 20 0
BBX 20 20 0 -2
BITMAP
000000
000000
000300
3FFF80
000600
001C00
003000
006000
00C000
018000
030000
060000
0C0000
180060
180060
300060
300070
1FFFE0
000000
000000
ENDCHAR

STARTCHAR jisx0208_3236
ENCODING 12854
SWIDTH 960 0
DWIDTH 20 0
BBX 20 20 0 -2
BITMAP
000000
0E1C00
0C1860
0BFFF0
183600
186300
18DDC0
3998F0
37FF60
599980
199980
19FF80
199980
199980
19FF80
199960
199860
181870
180FE0
000000
ENDCHAR

STARTCHAR jisx0208_3237
ENCODING 12855
SWIDTH 960 0
DWIDTH 20 0
BBX 20 20 0 -2
BITMAP
000000
1C0C60
198FF0
3FCC60
360C60
660C60
06CC60
7FEC60
060C60
060C60
36CC60
37CC60
360C60
360C60
360C60
35EBE0
7F0CC0
600C00
000C00
000000
ENDCHAR

STARTCHAR jisx0208_3238
ENCODING 12856
SWIDTH 960 0
DWIDTH 20 0
BBX 20 20 0 -2
BITMAP
000000
180180
1FFFC0
186180
186D80
17FD80
186180
18B980
198D80
170580
180180
1FFF80
180180
006000
03B180
1B36C0
1B0660
330760
61FE00
000000
ENDCHAR

STARTCHAR jisx0208_3239
ENCODING 12857
SWIDTH 960 0
DWIDTH 20 0
BBX 20 20 0 -2
BITMAP
000000
30C180
18FFC0
18C180
00C180
66FF80
36C180
2CC180
0CFF80
0C0000
1980C0
19FFE0
19B6C0
71B6C0
31B6C0
31B6C0
31B6B0
37FFF0
300000
000000
ENDCHAR

STARTCHAR jisx0208_323A
ENCODING 12858
SWIDTH 960 0
DWIDTH 20 0
BBX 20 20 0 -2
BITMAP
000000
0300C0
0F03E0
7CFEC0
0C6CC0
0B3580
7F7FE0
0C0060
1C7FE0
1E0060
1B0060
2C7FE0
2C0060
6C0600
0C3B00
0CB060
0CB1B0
0DB1B0
0D9F80
000000
ENDCHAR

STARTCHAR jisx0208_323B
ENCODING 12859
SWIDTH 960 0
DWIDTH 20 0
BBX 20 20 0 -2
BITMAP
000000
007000
006300
1FFF80
060600
030600
030CC0
7FFFE0
000000
000000
0C0300
0FFF80
0C0300
0C0300
0FFF00
0C0300
0C0300
0FFF00
0C0300
000000
ENDCHAR

STARTCHAR jisx0208_323C
ENCODING 12860
SWIDTH 960 0
DWIDTH 20 0
BBX 20 20 0 -2
BITMAP
000000
000000
0000C0
7FFFE0
006000
006000
006000
006000
007800
006E00
006380
006180
006000
006000
006000
006000
006000
006000
006000
000000
ENDCHAR

STARTCHAR jisx0208_323D
ENCODING 12861
SWIDTH 960 0
DWIDTH 20 0
BBX 20 20 0 -2
BITMAP
000000
03B800
033000
033000
063000
0630C0
0C31E0
0C3700
1C3C00
2C3000
6C3000
0C3000
0C3000
0C3000
0C3000
0C3060
0C3060
0C3070
0C1FE0
000000
ENDCHAR

STARTCHAR jisx0208_323E
ENCODING 12862
SWIDTH 960 0
DWIDTH 20 0
BBX 20 20 0 -2
BITMAP
000000
0EC060
0CFFF0
0CC000
18C000
18C000
18C0C0
38FFE0
38D8C0
58D8C0
18D8C0
18D980
18CD80
198B00
198600
198B00
1B19C0
1B30F0
16E060
000000
ENDCHAR

STARTCHAR jisx0208_323F
ENCODING 12863
SWIDTH 960 0
DWIDTH 20 0
BBX 20 20 0 -2
BITMAP
000000
0E0060
0DFFF0
0C00C0
1800C0
18CCC0
18FEC0
38CCC0
38CCC0
58CCC0
18CCC0
18CCC0
18FCC0
18CCC0
18C0C0
1800C0
1800C0
1807C0
180180
000000
ENDCHAR

STARTCHAR jisx0208_3240
ENCODING 12864
SWIDTH 960 0
DWIDTH 20 0
BBX 20 20 0 -2
BITMAP
000000
0EE000
0CC000
0CC360
18DBF0
17FB60
18DB60
38DB60
38DB60
58DB60
18DB60
18DB60
18DB60
199B60
199B60
199B60
1B3360
1AF3E0
166360
000000
ENDCHAR

STARTCHAR jisx0208_3241
ENCODING 12865
SWIDTH 960 0
DWIDTH 20 0
BBX 20 20 0 -2
BITMAP
000000
0E0060
0BFFF0
0C3600
183600
183600
1B3660
3BFFF0
3B3660
5B3660
1B3660
1B3660
1B3660
1B3660
1B3660
1B3660
1B3660
1BFFE0
1B0060
000000
ENDCHAR

STARTCHAR jisx0208_3242
ENCODING 12866
SWIDTH 960 0
DWIDTH 20 0
BBX 20 20 0 -2
BITMAP
000000
0E0E00
0C0C00
0C0CC0
19FFE0
180C00
180C00
380C60
3BFFF0
580000
180E00
180C00
180CC0
19FFE0
180C00
180C00
180C00
180C60
1BFFF0
000000
ENDCHAR

STARTCHAR jisx0208_3243
ENCODING 12867
SWIDTH 960 0
DWIDTH 20 0
BBX 20 20 0 -2
BITMAP
000000
070000
060000
060C60
066FF0
7FEC60
066C60
066C60
066C60
066C60
0C6C60
0C6C60
0C6C60
0C6C60
186C60
186C60
30CC60
37CFE0
618C60
000000
ENDCHAR

STARTCHAR jisx0208_3244
ENCODING 12868
SWIDTH 960 0
DWIDTH 20 0
BBX 20 20 0 -2
BITMAP
000000
000060
7FFFF0
000180
000180
0C3180
0FF980
0C3180
0C3180
0C3180
0C3180
0C3180
0FF180
0C3180
0C0180
000180
000180
000F80
000300
000000
ENDCHAR

STARTCHAR jisx0208_3245
ENCODING 12869
SWIDTH 960 0
DWIDTH 20 0
BBX 20 20 0 -2
BITMAP
000000
007000
0060C0
7FFFE0
006000
1FFF80
000000
0FFF00
0C0300
0FFF00
030C00
0198C0
7FFFE0
060000
066CC0
3FEFE0
066CC0
0C6FC0
39CCC0
000000
ENDCHAR

STARTCHAR jisx0208_3246
ENCODING 12870
SWIDTH 960 0
DWIDTH 20 0
BBX 20 20 0 -2
BITMAP
000000
000060
7FFFF0
006000
0CC180
0FFFC0
0C0180
0FFF80
0C0180
0FFF80
0C0180
0FFF80
0D8000
03FF00
0D8600
38CC00
007800
03CF00
7E01F0
000000
ENDCHAR

STARTCHAR jisx0208_3247
ENCODING 12871
SWIDTH 960 0
DWIDTH 20 0
BBX 20 20 0 -2
BITMAP
000000
380E00
30CC60
30FFF0
35C060
7D80C0
363FC0
360C00
363860
66ECC0
660D80
663700
6CE700
7C0B80
6E3AC0
1AE360
1B0330
303E00
600C00
000000
ENDCHAR

STARTCHAR jisx0208_3248
ENCODING 12872
SWIDTH 960 0
DWIDTH 20 0
BBX 20 20 0 -2
BITMAP
000000
007000
3060C0
3FFFE0
7000C0
600300
0FFF80
006000
01C180
0763C0
3C6E00
01B800
073C00
3C5600
01DB80
0719E0
1C30C0
71F000
006000
000000
ENDCHAR

STARTCHAR jisx0208_3249
ENCODING 12873
SWIDTH 960 0
DWIDTH 20 0
BBX 20 20 0 -2
BITMAP
000000
3060C0
3FFFE0
7000C0
6FFF80
006000
0FFF00
0C0300
0FFF00
0C0300
0FFF00
0C02C0
7FFFE0
060600
0FFF80
78C6E0
00C600
03BC00
1E1800
000000
ENDCHAR

STARTCHAR jisx0208_324A
ENCODING 12874
SWIDTH 960 0
DWIDTH 20 0
BBX 20 20 0 -2
BITMAP
000000
0301C0
0F8180
7C1980
0C0D80
0B0D80
7F8180
0C3180
1C1980
1E19B0
1B0170
2D83C0
2C1D80
6CF180
0C0180
0C0180
0C0180
0C0180
0C0180
000000
ENDCHAR

STARTCHAR jisx0208_324B
ENCODING 12875
SWIDTH 960 0
DWIDTH 20 0
BBX 20 20 0 -2
BITMAP
000000
019860
6DF7F0
7D9860
6D9860
6D9860
6DF7E0
6D9860
7D8000
6DB060
6DF7F0
6D8660
6D8660
7DB2C0
6DFAC0
618180
0182C0
018660
019C30
000000
ENDCHAR

STARTCHAR jisx0208_324C
ENCODING 12876
SWIDTH 960 0
DWIDTH 20 0
BBX 20 20 0 -2
BITMAP
000000
180180
1FFFC0
186180
186180
1FFF80
186180
186180
1FFF80
186180
0060C0
7FFFE0
00F000
015800
036C00
066700
1C63E0
7060C0
006000
000000
ENDCHAR

STARTCHAR jisx0208_324D
ENCODING 12877
SWIDTH 960 0
DWIDTH 20 0
BBX 20 20 0 -2
BITMAP
000000
0E0000
0CD8C0
7FDFE0
0CD8C0
0CD8C0
18D8C0
18DFC0
3798C0
630000
007000
0060C0
7FFFE0
00F000
015800
036E00
0E63E0
7860C0
006000
000000
ENDCHAR

STARTCHAR jisx0208_324E
ENCODING 12878
SWIDTH 960 0
DWIDTH 20 0
BBX 20 20 0 -2
BITMAP
000000
006700
7FF600
00C600
3ECC60
36CFF0
3EDB60
36B360
03C2C0
000300
7FF300
00C300
3EC580
36C580
3EC6C0
36CCC0
00CCE0
03D870
01B060
000000
ENDCHAR

STARTCHAR jisx0208_324F
ENCODING 12879
SWIDTH 960 0
DWIDTH 20 0
BBX 20 20 0 -2
BITMAP
000000
300060
1BFFF0
1800C0
0000C0
60CCC0
30FEC0
2CCCC0
0CCCC0
0CCCC0
18CCC0
18CCC0
18FCC0
70CCC0
3000C0
3000C0
3000C0
3007C0
300180
000000
ENDCHAR

STARTCHAR jisx0208_3250
ENCODING 12880
SWIDTH 960 0
DWIDTH 20 0
BBX 20 20 0 -2
BITMAP
000000
007000
006000
006000
0C61C0
0C6180
0C6180
186300
186600
306000
00B000
00B000
019800
019800
030C00
060600
0C0380
1801E0
7000C0
000000
ENDCHAR

STARTCHAR jisx0208_3251
ENCODING 12881
SWIDTH 960 0
DWIDTH 20 0
BBX 20 20 0 -2
BITMAP
000000
060060
7EFFF0
1800C0
1800C0
186CC0
187EC0
166CC0
7F6CC0
186CC0
186CC0
186CC0
187CC0
186CC0
1E60C0
7800C0
6000C0
0007C0
000180
000000
ENDCHAR

STARTCHAR jisx0208_3252
ENCODING 12882
SWIDTH 960 0
DWIDTH 20 0
BBX 20 20 0 -2
BITMAP
000000
1C6180
187FC0
166180
7F6D80
066F80
066D80
0C6D80
0D6D60
19FFF0
3D8060
55B360
19BF60
19B360
19B360
19BF60
19B360
1981E0
1980C0
000000
ENDCHAR

STARTCHAR jisx0208_3253
ENCODING 12883
SWIDTH 960 0
DWIDTH 20 0
BBX 20 20 0 -2
BITMAP
000000
000180
003FC0
3FE000
006000
006000
0060C0
7FFFE0
00F000
015800
015800
036C00
036600
066700
0C6380
1861E0
7060C0
006000
006000
000000
ENDCHAR

STARTCHAR jisx0208_3254
ENCODING 12884
SWIDTH 960 0
DWIDTH 20 0
BBX 20 20 0 -2
BITMAP
000000
030E00
0ECC60
7CFFF0
0DC060
0D8180
7F7FC0
0C0C00
1C3860
1EECC0
1B0D80
2C3700
2CE780
6C0AC0
0C1AC0
0C7360
0DC330
0C3E00
0C0C00
000000
ENDCHAR

STARTCHAR jisx0208_3255
ENCODING 12885
SWIDTH 960 0
DWIDTH 20 0
BBX 20 20 0 -2
BITMAP
000000
1C1C00
1998C0
3FBFE0
363600
6362C0
3FFFE0
3060C0
3066C0
2FFEC0
3060C0
336CC0
33FEC0
330CC0
330CC0
33FCC0
3000C0
3FFFC0
3000C0
000000
ENDCHAR

ENDFONT
